<svg xmlns="http://www.w3.org/2000/svg" viewBox="0 0 24 24"><defs><style>.cls-1{fill:none;}.cls-2{fill-rule:evenodd;}</style></defs><title>24</title><g id="fill-write"><rect class="cls-1" width="24" height="24"/><path class="cls-2" d="M14.4,5.59A2.16,2.16,0,0,1,15.93,5a2.1,2.1,0,0,1,.82.16,2.19,2.19,0,0,1,1.17,1.17,2.21,2.21,0,0,1,0,1.65,2.21,2.21,0,0,1-.47.7L8.06,18a.61.61,0,0,1-.26.15l-3,.75a.55.55,0,0,1-.53-.15.56.56,0,0,1-.15-.54l.75-3A.61.61,0,0,1,5,15ZM12.83,17.17a1,1,0,1,0,0,2h6a1,1,0,0,0,0-2Z"/></g></svg>