<svg xmlns="http://www.w3.org/2000/svg" viewBox="0 0 24 24"><defs><style>.cls-1{fill:none;}</style></defs><title>21</title><g id="fill-notice"><rect class="cls-1" width="24" height="24"/><path d="M5.3,15.3H7.6l4.9,3.3a1.33,1.33,0,0,0,2.1-1.1V6.5a1.33,1.33,0,0,0-2.1-1.1L7.7,8.7H5.3A1.32,1.32,0,0,0,4,10v4A1.32,1.32,0,0,0,5.3,15.3Zm12.6-.2a2.77,2.77,0,0,1-1.3.3V8.7a3.08,3.08,0,0,1,1.3.3,4.13,4.13,0,0,1,1.1.7,2.59,2.59,0,0,1,.7,1.1,2.77,2.77,0,0,1,.3,1.3,3.08,3.08,0,0,1-.3,1.3,4.13,4.13,0,0,1-.7,1.1A10.91,10.91,0,0,1,17.9,15.1Z"/></g></svg>