<svg xmlns="http://www.w3.org/2000/svg" viewBox="0 0 24 24"><defs><style>.cls-1{fill:none;}</style></defs><title>03</title><g id="line-home"><rect class="cls-1" width="24" height="24"/><path d="M18.47,9,13.36,4.61a2.09,2.09,0,0,0-2.72,0L5.53,9a2.11,2.11,0,0,0-.73,1.59v8.26A1.06,1.06,0,0,0,5.86,19.9H8.91a1,1,0,0,0,1-1V15.42a2.17,2.17,0,0,1,1.88-2.2,2.06,2.06,0,0,1,2.24,2v3.6a1,1,0,0,0,1,1h3.05a1.06,1.06,0,0,0,1.06-1.06V10.58A2.11,2.11,0,0,0,18.47,9Zm-.85,9.37h-2a0,0,0,0,1,0,0V15.48a3.73,3.73,0,0,0-2.95-3.75A3.6,3.6,0,0,0,8.4,15.27v3.06a0,0,0,0,1,0,0h-2a0,0,0,0,1,0,0V10.58a.57.57,0,0,1,.19-.42l5.11-4.38a.57.57,0,0,1,.72,0l5.11,4.38a.57.57,0,0,1,.19.42v7.75A0,0,0,0,1,17.62,18.36Z"/></g></svg>