<svg xmlns="http://www.w3.org/2000/svg" viewBox="0 0 24 24"><defs><style>.cls-1{fill:none;}</style></defs><title>04</title><g id="line-notice"><rect class="cls-1" width="24" height="24"/><path d="M12.6,4.92,7.2,8.62H4.5a1,1,0,0,0-1,1v4.7a1,1,0,0,0,1,1H7.1L12.5,19a1,1,0,0,0,1.6-.9V5.82A1,1,0,0,0,12.6,4.92Zm.1,12.3-5-3.4H5.1v-3.7H7.7l5-3.4Zm7.6-6.6a2.73,2.73,0,0,0-.6-1.2,3.13,3.13,0,0,0-1.1-.9,3.26,3.26,0,0,0-1.4-.4,1.47,1.47,0,0,0-1.5,1.5v4.7a1.47,1.47,0,0,0,1.5,1.5,2.3,2.3,0,0,0,1.4-.4,4.81,4.81,0,0,0,1.1-.9,3.38,3.38,0,0,0,.6-1.2,5.9,5.9,0,0,0,.2-1.4A6.88,6.88,0,0,0,20.3,10.62Zm-1.5,2.3c0,.1-.1.2-.1.3s-.2.3-.3.5a2.65,2.65,0,0,1-.6.5,1.45,1.45,0,0,1-.7.2V9.62a1.85,1.85,0,0,1,.7.2,2.65,2.65,0,0,1,.6.5,2.19,2.19,0,0,1,.3.5c0,.1.1.2.1.3a2.77,2.77,0,0,1,.1.9A2.77,2.77,0,0,1,18.8,12.92Z"/></g></svg>