<svg xmlns="http://www.w3.org/2000/svg" viewBox="0 0 24 24"><defs><style>.cls-1{fill:none;}</style></defs><title>01</title><g id="line-calendar-today"><rect class="cls-1" width="24" height="24"/><path d="M17.2,6.09H15.86V4.8a.78.78,0,0,0-1.55,0V6.09H9.69V4.8a.78.78,0,0,0-1.55,0V6.09H6.8A2.2,2.2,0,0,0,4.54,8.23v9.6A2.2,2.2,0,0,0,6.8,20H17.2a2.2,2.2,0,0,0,2.26-2.14V8.23A2.2,2.2,0,0,0,17.2,6.09Zm.71,11.74a.67.67,0,0,1-.71.6H6.8a.67.67,0,0,1-.71-.6V12.2H17.91Zm0-7.17H6.09V8.23a.66.66,0,0,1,.71-.6H8.14v.26a.78.78,0,0,0,1.55,0V7.63h4.62v.26a.78.78,0,0,0,1.55,0V7.63H17.2a.66.66,0,0,1,.71.6Z"/></g></svg>