<svg xmlns="http://www.w3.org/2000/svg" viewBox="0 0 24 24"><defs><style>.cls-1{fill:none;}</style></defs><title>02</title><g id="line-description"><rect class="cls-1" width="24" height="24"/><path d="M18.69,8.71a.78.78,0,0,0-.16-.24L14,4a.78.78,0,0,0-.24-.16.72.72,0,0,0-.29-.06h-6a2.27,2.27,0,0,0-1.59.66A2.21,2.21,0,0,0,5.25,6V18A2.25,2.25,0,0,0,7.5,20.25h9A2.25,2.25,0,0,0,18.75,18V9A.72.72,0,0,0,18.69,8.71Zm-4.44-2.4,1.94,1.94H14.25ZM17,18.53a.75.75,0,0,1-.53.22h-9A.75.75,0,0,1,6.75,18V6a.75.75,0,0,1,.75-.75h5.25V9a.76.76,0,0,0,.75.75h3.75V18A.75.75,0,0,1,17,18.53Zm-1.28-5.78a.76.76,0,0,1-.75.75H9A.75.75,0,0,1,9,12h6A.76.76,0,0,1,15.75,12.75Zm0,3a.76.76,0,0,1-.75.75H9A.75.75,0,0,1,9,15h6A.76.76,0,0,1,15.75,15.75Z"/></g></svg>