<svg width="32" height="32" viewBox="0 0 32 32" fill="none" xmlns="http://www.w3.org/2000/svg">
<path d="M21.9333 16.0003L15.9999 21.9337L10.0666 16.0003L10.9066 15.1603L15.4133 19.6937L15.4133 10.067H16.5866V19.6937L21.0933 15.1603L21.9333 16.0003V16.0003ZM29.3333 16.0003C29.3333 8.64033 23.3599 2.66699 15.9999 2.66699C8.63992 2.66699 2.66658 8.64033 2.66658 16.0003C2.66658 23.3603 8.63992 29.3337 15.9999 29.3337C23.3599 29.3337 29.3333 23.3603 29.3333 16.0003ZM3.81325 16.0003C3.81325 9.26699 9.26658 3.81366 15.9999 3.81366C22.7333 3.81366 28.1866 9.26699 28.1866 16.0003C28.1866 22.7337 22.7333 28.187 15.9999 28.187C9.26658 28.187 3.81325 22.7337 3.81325 16.0003Z" fill="white"/>
</svg>
