<svg width="24" height="24" viewBox="0 0 24 24" fill="none" xmlns="http://www.w3.org/2000/svg">
<path fill-rule="evenodd" clip-rule="evenodd" d="M12 21.1C17.0258 21.1 21.1 17.0258 21.1 12C21.1 6.97421 17.0258 2.9 12 2.9C6.97421 2.9 2.9 6.97421 2.9 12C2.9 17.0258 6.97421 21.1 12 21.1ZM12 22C17.5228 22 22 17.5228 22 12C22 6.47715 17.5228 2 12 2C6.47715 2 2 6.47715 2 12C2 17.5228 6.47715 22 12 22Z" fill="#191919"/>
<path fill-rule="evenodd" clip-rule="evenodd" d="M11.9416 7.5758L16.3653 11.9995L11.9416 16.4232L11.3052 15.7868L14.6425 12.4495H7.55975V11.5495H14.6425L11.3052 8.21219L11.9416 7.5758Z" fill="#191919"/>
</svg>
