<svg width="176" height="176" viewBox="0 0 176 176" fill="none" xmlns="http://www.w3.org/2000/svg">
<path d="M62.2046 132.526L87.2826 156.195C88.3074 157.162 89.9089 157.162 90.9338 156.195L152.09 98.4739C152.171 98.4394 152.246 98.388 152.31 98.32C156.476 93.8674 159.751 88.5303 161.93 82.6441C164.11 76.7579 165.149 70.4474 164.983 64.1069C164.817 57.7664 163.45 51.5298 160.966 45.7872C158.482 40.0445 154.934 34.9176 150.54 30.729C146.146 26.5403 141.002 23.3801 135.427 21.4497C129.852 19.5193 123.969 18.8611 118.147 19.5174C112.326 20.1738 106.694 22.1301 101.605 25.2612C96.7734 28.2337 92.5304 32.2036 89.1112 36.9415C85.7053 32.1673 81.4661 28.1612 76.6304 25.1563C71.5378 21.9917 65.8948 20.0067 60.0569 19.3292C59.5774 19.2735 59.0974 19.2268 58.6172 19.189L59.67 20.5986C59.7488 20.6072 59.8277 20.6161 59.9065 20.6252C65.5492 21.2801 71.0089 23.1992 75.9418 26.2646C80.8749 29.33 85.1752 33.4761 88.5695 38.4446C88.6907 38.622 88.8915 38.7284 89.1064 38.729C89.3213 38.7296 89.5227 38.6243 89.6448 38.4475C93.0537 33.5152 97.359 29.4054 102.289 26.3725C107.218 23.3398 112.667 21.4484 118.293 20.814C123.92 20.1796 129.607 20.8154 135 22.6827C140.393 24.55 145.377 27.6096 149.64 31.6734C153.903 35.7373 157.352 40.7179 159.769 46.3052C162.185 51.8926 163.517 57.9647 163.679 64.141C163.84 70.3173 162.828 76.4624 160.707 82.191C158.616 87.8371 155.493 92.957 151.531 97.2412C151.479 97.2684 151.43 97.303 151.385 97.3452L90.0382 155.246C89.5161 155.739 88.7002 155.739 88.1781 155.246L63.2574 131.725L62.2046 132.526Z" fill="#E5E7EF"/>
<path fill-rule="evenodd" clip-rule="evenodd" d="M56.729 20.4024C56.0204 20.3802 55.3119 20.378 54.6041 20.3956L54.5716 19.0913C55.3038 19.073 56.0367 19.0753 56.7698 19.0982L56.729 20.4024ZM52.4822 20.5083C51.7764 20.5657 51.0721 20.643 50.3699 20.7399L50.1914 19.4474C50.9177 19.3471 51.6463 19.2672 52.3764 19.2079L52.4822 20.5083ZM59.9072 20.6362C59.5551 20.5953 59.2027 20.5594 58.8501 20.5285L58.9641 19.2287C59.3288 19.2607 59.6934 19.2978 60.0576 19.3401C60.4244 19.3827 60.7905 19.4304 61.1557 19.4833L60.9688 20.7746C60.6157 20.7235 60.2618 20.6773 59.9072 20.6362ZM123.582 20.6013C122.876 20.5817 122.17 20.5818 121.463 20.6018L121.427 19.2976C122.157 19.2769 122.888 19.2767 123.618 19.297L123.582 20.6013ZM127.802 20.9558C127.102 20.8574 126.4 20.7786 125.697 20.7195L125.806 19.4193C126.534 19.4804 127.26 19.562 127.984 19.6638L127.802 20.9558ZM119.348 20.721C118.997 20.7507 118.645 20.7854 118.294 20.825C117.941 20.8648 117.588 20.9096 117.236 20.9594L117.053 19.6675C117.417 19.616 117.782 19.5696 118.148 19.5284C118.511 19.4874 118.875 19.4516 119.239 19.4209L119.348 20.721ZM48.2738 21.0894C47.5795 21.2252 46.8881 21.3805 46.2002 21.5552L45.8789 20.2906C46.5903 20.1099 47.3053 19.9493 48.0233 19.8089L48.2738 21.0894ZM65.1639 21.625C64.4731 21.4441 63.7776 21.2827 63.0782 21.1409L63.3375 19.8621C64.0608 20.0088 64.78 20.1757 65.4944 20.3627L65.1639 21.625ZM131.957 21.7782C131.272 21.6025 130.583 21.4462 129.891 21.3093L130.144 20.0293C130.86 20.171 131.572 20.3326 132.281 20.5143L131.957 21.7782ZM115.132 21.3172C114.434 21.4561 113.741 21.6145 113.051 21.7922L112.726 20.5288C113.438 20.345 114.156 20.1812 114.877 20.0376L115.132 21.3172ZM44.1553 22.1353C43.8177 22.2412 43.4811 22.3519 43.1456 22.4674C42.8038 22.585 42.4636 22.7075 42.1251 22.8346L41.6662 21.6132C42.016 21.4818 42.3676 21.3552 42.7209 21.2336C43.0677 21.1143 43.4157 20.9998 43.7648 20.8903L44.1553 22.1353ZM69.2392 22.9375C68.5717 22.681 67.8983 22.4434 67.2196 22.2247L67.6197 20.9828C68.3213 21.2088 69.0174 21.4545 69.7072 21.7196L69.2392 22.9375ZM135.001 22.6936C134.666 22.5779 134.331 22.4669 133.995 22.3606L134.388 21.1164C134.735 21.2263 135.082 21.3411 135.428 21.4607C135.78 21.5826 136.13 21.7094 136.478 21.841L136.017 23.0616C135.68 22.9342 135.341 22.8116 135.001 22.6936ZM111 22.3823C110.323 22.5976 109.651 22.8319 108.985 23.0848L108.521 21.865C109.21 21.6036 109.905 21.3614 110.605 21.1388L111 22.3823ZM40.1166 23.6537C39.4554 23.945 38.8017 24.2547 38.156 24.5826L37.5652 23.4192C38.2321 23.0806 38.9075 22.7606 39.5906 22.4597L40.1166 23.6537ZM73.1471 24.6898C72.5107 24.3618 71.867 24.0519 71.2169 23.7603L71.7508 22.5698C72.4225 22.8711 73.0874 23.1912 73.7448 23.5299L73.1471 24.6898ZM139.972 24.8105C139.329 24.4828 138.677 24.173 138.018 23.8816L138.546 22.6883C139.227 22.9894 139.9 23.3094 140.564 23.648L139.972 24.8105ZM107.01 23.8969C106.361 24.1848 105.718 24.491 105.082 24.8152L104.49 23.6528C105.146 23.3179 105.81 23.0017 106.481 22.7042L107.01 23.8969ZM36.2488 25.6173C35.6236 25.9788 35.0071 26.3577 34.3999 26.7539L33.687 25.661C34.3138 25.2522 34.9502 24.861 35.5957 24.4878L36.2488 25.6173ZM75.9425 26.2755C75.6386 26.0866 75.3327 25.9021 75.0249 25.722L75.6838 24.5959C76.0016 24.7818 76.3174 24.9723 76.6311 25.1673C76.9536 25.3676 77.2734 25.5724 77.5904 25.7816L76.8718 26.8707C76.5646 26.668 76.2548 26.4696 75.9425 26.2755ZM103.206 25.8359C102.899 26.0141 102.593 26.1966 102.289 26.3835C101.977 26.5755 101.668 26.7718 101.361 26.9724L100.647 25.8801C100.964 25.6731 101.283 25.4704 101.606 25.2722C101.919 25.0793 102.235 24.8908 102.552 24.7069L103.206 25.8359ZM143.714 26.9798C143.109 26.5843 142.495 26.2058 141.872 25.8447L142.526 24.7159C143.169 25.0887 143.803 25.4795 144.428 25.8877L143.714 26.9798ZM32.614 27.9878C32.0312 28.4137 31.4582 28.856 30.8954 29.3145L30.0713 28.3029C30.6517 27.83 31.2429 27.3737 31.8441 26.9343L32.614 27.9878ZM80.4196 29.4961C79.8512 29.0265 79.2714 28.5729 78.6807 28.1357L79.457 27.0869C80.0664 27.538 80.6645 28.0059 81.2506 28.4901L80.4196 29.4961ZM147.206 29.5358C146.645 29.0783 146.074 28.6368 145.493 28.2117L146.264 27.159C146.863 27.5975 147.452 28.0529 148.03 28.5247L147.206 29.5358ZM99.5523 28.2246C98.9616 28.6576 98.3817 29.1069 97.8131 29.572L96.987 28.5621C97.5734 28.0824 98.1715 27.6189 98.7809 27.1723L99.5523 28.2246ZM29.2479 30.7292C28.9799 30.9717 28.7145 31.218 28.4519 31.4681C28.2353 31.6745 28.0207 31.8832 27.8083 32.0942L26.8887 31.1686C27.1076 30.9511 27.3287 30.736 27.552 30.5233C27.8227 30.2655 28.0962 30.0116 28.3725 29.7617L29.2479 30.7292ZM149.641 31.6843C149.379 31.4348 149.114 31.1891 148.847 30.9473L149.723 29.9802C149.999 30.2295 150.271 30.4828 150.541 30.7399C150.763 30.9521 150.984 31.1666 151.202 31.3835L150.282 32.3087C150.07 32.0983 149.856 31.8901 149.641 31.6843ZM83.6715 32.4829C83.1546 31.956 82.6254 31.4439 82.0844 30.9468L82.9671 29.986C83.5248 30.4983 84.0703 31.0262 84.6029 31.5691L83.6715 32.4829ZM96.1472 31.0096C95.6056 31.5022 95.0758 32.01 94.5581 32.5324L93.6313 31.6139C94.1648 31.0756 94.7109 30.5523 95.2692 30.0444L96.1472 31.0096ZM26.5611 33.3864C26.1548 33.8253 25.7572 34.2732 25.3685 34.7296L24.3751 33.8836C24.7754 33.4136 25.185 32.9523 25.6036 32.5001L26.5611 33.3864ZM152.713 34.9366C152.326 34.4815 151.93 34.035 151.525 33.5973L152.483 32.7112C152.9 33.1621 153.308 33.6221 153.707 34.0907L152.713 34.9366ZM86.5998 35.79C86.1387 35.2128 85.6645 34.649 85.1776 34.099L86.1546 33.2341C86.6561 33.8007 87.1445 34.3813 87.6192 34.9757L86.5998 35.79ZM93.0491 34.1352C92.5611 34.6807 92.0857 35.2401 91.6232 35.8128L90.608 34.9931C91.0842 34.4034 91.5739 33.8272 92.0766 33.2653L93.0491 34.1352ZM24.2321 36.1209C23.8633 36.5918 23.5036 37.0708 23.1531 37.5577L22.0941 36.7954C22.4549 36.2943 22.8252 35.8012 23.2049 35.3164L24.2321 36.1209ZM154.922 37.7558C154.572 37.2705 154.214 36.793 153.846 36.3236L154.873 35.5191C155.252 36.0023 155.621 36.4939 155.981 36.9935L154.922 37.7558ZM88.5702 38.4556C88.362 38.1508 88.1504 37.8492 87.9355 37.5507L88.9943 36.7883C89.0337 36.8429 89.0729 36.8976 89.112 36.9524C89.1506 36.8989 89.1893 36.8455 89.2281 36.7921L90.2829 37.5602C90.0671 37.8565 89.8546 38.156 89.6456 38.4585L89.1058 39.2395L88.5702 38.4556ZM22.1328 39.037C21.8032 39.536 21.483 40.0425 21.1723 40.5562L20.0559 39.8809C20.3754 39.3525 20.7049 38.8314 21.0441 38.3179L22.1328 39.037ZM156.897 40.7445C156.587 40.2326 156.268 39.7278 155.939 39.2304L157.028 38.511C157.366 39.0228 157.695 39.5422 158.014 40.0688L156.897 40.7445ZM20.2726 42.1123C19.9835 42.6358 19.7041 43.1661 19.4345 43.7027L18.2686 43.1171C18.5457 42.5653 18.8331 42.02 19.1304 41.4816L20.2726 42.1123ZM158.631 43.8804C158.362 43.3456 158.083 42.8172 157.795 42.2954L158.937 41.6641C159.233 42.2007 159.52 42.7441 159.797 43.2941L158.631 43.8804ZM18.6588 45.3247C18.5349 45.5973 18.4135 45.8713 18.2946 46.1469C18.1729 46.4287 18.054 46.7118 17.9379 46.9961L16.73 46.5027C16.8494 46.2105 16.9716 45.9195 17.0966 45.6298C17.2189 45.3466 17.3437 45.0649 17.4711 44.7847L18.6588 45.3247ZM159.769 46.3162C159.651 46.0416 159.529 45.7685 159.406 45.4969L160.593 44.956C160.72 45.2352 160.845 45.5159 160.967 45.7982C161.092 46.0869 161.214 46.3768 161.333 46.668L160.126 47.1624C160.01 46.8791 159.891 46.597 159.769 46.3162ZM17.2747 48.7148C17.065 49.2918 16.8663 49.873 16.679 50.4582L15.4363 50.0603C15.6288 49.4591 15.8329 48.8618 16.0485 48.269L17.2747 48.7148ZM161.384 50.6125C161.196 50.0293 160.998 49.4501 160.788 48.8752L162.014 48.4281C162.229 49.0189 162.433 49.6141 162.626 50.2133L161.384 50.6125ZM16.1511 52.2235C15.9866 52.815 15.8333 53.4099 15.6915 54.008L14.4219 53.7068C14.5676 53.0925 14.725 52.4814 14.894 51.8739L16.1511 52.2235ZM162.372 54.1499C162.23 53.5539 162.077 52.961 161.912 52.3717L163.169 52.0205C163.338 52.6259 163.496 53.2349 163.642 53.8471L162.372 54.1499ZM15.3005 55.8089C15.1817 56.4111 15.0743 57.0161 14.9784 57.6234L13.6896 57.4199C13.7881 56.7962 13.8984 56.1749 14.0204 55.5564L15.3005 55.8089ZM163.088 57.753C162.992 57.1477 162.884 56.5448 162.765 55.9446L164.044 55.6904C164.167 56.3067 164.278 56.9259 164.377 57.5475L163.088 57.753ZM14.7255 59.449C14.6528 60.0585 14.5916 60.6699 14.5419 61.2829L13.2414 61.1775C13.2924 60.5481 13.3553 59.9203 13.4299 59.2945L14.7255 59.449ZM163.529 61.4002C163.479 60.7892 163.417 60.1799 163.343 59.5724L164.639 59.4158C164.714 60.0395 164.778 60.6652 164.83 61.2925L163.529 61.4002ZM14.4278 63.1224C14.4146 63.4292 14.4042 63.7362 14.3968 64.0435C14.3893 64.3513 14.3848 64.659 14.3832 64.9666L13.0784 64.9596C13.0801 64.6439 13.0847 64.328 13.0924 64.012C13.1 63.6964 13.1106 63.3812 13.1242 63.0662L14.4278 63.1224ZM163.679 64.1519C163.671 63.8456 163.66 63.5395 163.647 63.2338L164.95 63.1751C164.964 63.4891 164.975 63.8033 164.984 64.1178C164.992 64.4329 164.997 64.7478 164.999 65.0626L163.695 65.0722C163.692 64.7655 163.687 64.4588 163.679 64.1519ZM14.4082 66.8125C14.4283 67.428 14.4599 68.0427 14.5031 68.6561L13.2016 68.7478C13.1572 68.118 13.1247 67.4869 13.1042 66.8549L14.4082 66.8125ZM163.583 68.7508C163.624 68.1392 163.655 67.5263 163.673 66.9125L164.978 66.9522C164.958 67.5823 164.927 68.2116 164.885 68.8396L163.583 68.7508ZM14.6677 70.4948C14.7342 71.107 14.8122 71.7175 14.9018 72.3259L13.611 72.5159C13.519 71.8912 13.4388 71.2643 13.3705 70.6357L14.6677 70.4948ZM163.194 72.4104C163.282 71.8036 163.358 71.1948 163.423 70.5843L164.72 70.7222C164.654 71.349 164.575 71.9742 164.485 72.5973L163.194 72.4104ZM15.2054 74.1466C15.3182 74.7518 15.4425 75.3546 15.5782 75.9544L14.3055 76.2423C14.1662 75.6262 14.0385 75.0072 13.9227 74.3857L15.2054 74.1466ZM162.529 76.0298C162.663 75.4314 162.785 74.8301 162.896 74.2265L164.179 74.4622C164.065 75.0821 163.94 75.6996 163.802 76.3142L162.529 76.0298ZM16.0199 77.7465C16.1786 78.3411 16.3487 78.9324 16.5302 79.5201L15.2835 79.905C15.0971 79.3013 14.9223 78.6938 14.7592 78.083L16.0199 77.7465ZM161.59 79.5874C161.769 79.0009 161.937 78.4109 162.093 77.8176L163.355 78.1506C163.194 78.76 163.022 79.3661 162.838 79.9686L161.59 79.5874ZM17.1087 81.2725C17.2108 81.5626 17.3157 81.8517 17.4234 82.1398C17.5289 82.422 17.637 82.7029 17.7477 82.9825L16.5345 83.4627C16.4208 83.1755 16.3097 82.8868 16.2013 82.5968C16.0906 82.3008 15.9828 82.0037 15.8779 81.7055L17.1087 81.2725ZM160.707 82.202C160.814 81.9144 160.917 81.6258 161.018 81.3362L162.251 81.7654C162.147 82.063 162.04 82.3596 161.931 82.655C161.824 82.9446 161.714 83.2328 161.601 83.5196L160.387 83.0433C160.496 82.7642 160.603 82.4837 160.707 82.202ZM18.4444 84.6479C18.6878 85.1996 18.9414 85.7454 19.2049 86.2851L18.0325 86.8576C17.7615 86.3028 17.5008 85.7417 17.2507 85.1746L18.4444 84.6479ZM158.945 86.3416C159.206 85.8025 159.457 85.2573 159.697 84.7064L160.893 85.229C160.645 85.7953 160.387 86.3558 160.119 86.91L158.945 86.3416ZM20.0285 87.8912C20.314 88.422 20.6093 88.9462 20.9145 89.4635L19.7906 90.1264C19.4767 89.5942 19.1729 89.0551 18.8794 88.5092L20.0285 87.8912ZM157.251 89.5173C157.554 89.0003 157.846 88.4765 158.129 87.9461L159.28 88.5599C158.99 89.1053 158.689 89.6441 158.378 90.1759L157.251 89.5173ZM21.8619 90.9993C22.1883 91.5055 22.5244 92.0044 22.8699 92.4957L21.8026 93.2463C21.4471 92.7407 21.1012 92.2272 20.7653 91.7064L21.8619 90.9993ZM155.313 92.5487C155.656 92.0574 155.989 91.5586 156.313 91.0525L157.412 91.7552C157.079 92.276 156.736 92.7893 156.384 93.295L155.313 92.5487ZM23.9373 93.9499C24.3034 94.4279 24.6787 94.8977 25.0631 95.3592L24.0606 96.1943C23.6647 95.7191 23.2783 95.2353 22.9014 94.7432L23.9373 93.9499ZM153.138 95.4136C153.52 94.9517 153.892 94.4815 154.255 94.0033L155.294 94.7922C154.921 95.2845 154.537 95.7686 154.145 96.2442L153.138 95.4136ZM26.8452 97.369C26.6433 97.155 26.4435 96.9389 26.2458 96.7207L25.2788 97.5966C25.4867 97.8262 25.697 98.0535 25.9095 98.2785L25.9224 98.2921L26.6663 98.9943L27.5619 98.0454L26.8452 97.369ZM151.532 97.2522C151.677 97.0947 151.822 96.9362 151.965 96.7765L152.936 97.648C152.73 97.8779 152.521 98.1055 152.31 98.3309C152.247 98.399 152.172 98.4504 152.091 98.4849L151.551 98.9943L150.656 98.0454L151.386 97.3561C151.431 97.3139 151.48 97.2793 151.532 97.2522ZM29.0225 99.424L30.4832 100.803L29.5876 101.751L28.127 100.373L29.0225 99.424ZM147.735 100.803L149.195 99.424L150.091 100.373L148.63 101.751L147.735 100.803ZM31.9438 102.181L33.4045 103.56L32.5089 104.509L31.0483 103.13L31.9438 102.181ZM144.813 103.56L146.274 102.181L147.169 103.13L145.709 104.509L144.813 103.56ZM34.8651 104.938L36.3258 106.317L35.4302 107.266L33.9696 105.887L34.8651 104.938ZM141.892 106.317L143.353 104.938L144.248 105.887L142.788 107.266L141.892 106.317ZM37.7864 107.696L39.2471 109.074L38.3515 110.023L36.8909 108.644L37.7864 107.696ZM138.971 109.074L140.431 107.696L141.327 108.644L139.866 110.023L138.971 109.074ZM40.7077 110.453L42.1684 111.831L41.2728 112.78L39.8122 111.402L40.7077 110.453ZM136.049 111.831L137.51 110.453L138.406 111.402L136.945 112.78L136.049 111.831ZM43.629 113.21L45.0897 114.589L44.1941 115.537L42.7335 114.159L43.629 113.21ZM133.128 114.589L134.589 113.21L135.484 114.159L134.024 115.537L133.128 114.589ZM46.5503 115.967L48.011 117.346L47.1154 118.295L45.6548 116.916L46.5503 115.967ZM130.207 117.346L131.667 115.967L132.563 116.916L131.102 118.295L130.207 117.346ZM49.4716 118.724L50.9323 120.103L50.0367 121.052L48.5761 119.673L49.4716 118.724ZM127.285 120.103L128.746 118.724L129.642 119.673L128.181 121.052L127.285 120.103ZM52.3929 121.482L53.8536 122.86L52.958 123.809L51.4974 122.43L52.3929 121.482ZM124.364 122.86L125.825 121.482L126.72 122.43L125.26 123.809L124.364 122.86ZM55.3142 124.239L56.7749 125.617L55.8793 126.566L54.4187 125.188L55.3142 124.239ZM121.443 125.617L122.904 124.239L123.799 125.188L122.338 126.566L121.443 125.617ZM58.2355 126.996L59.6962 128.374L58.8006 129.323L57.34 127.945L58.2355 126.996ZM118.522 128.375L119.982 126.996L120.878 127.945L119.417 129.323L118.522 128.375ZM61.1568 129.753L62.6175 131.132L61.7219 132.081L60.2613 130.702L61.1568 129.753ZM115.6 131.132L117.061 129.753L117.956 130.702L116.496 132.081L115.6 131.132ZM64.0781 132.51L65.5388 133.889L64.6432 134.838L63.1826 133.459L64.0781 132.51ZM112.679 133.889L114.14 132.51L115.035 133.459L113.575 134.838L112.679 133.889ZM66.9994 135.267L68.4601 136.646L67.5645 137.595L66.1039 136.216L66.9994 135.267ZM109.758 136.646L111.218 135.267L112.114 136.216L110.653 137.595L109.758 136.646ZM69.9207 138.025L71.3814 139.403L70.4858 140.352L69.0252 138.974L69.9207 138.025ZM106.836 139.403L108.297 138.025L109.193 138.974L107.732 140.352L106.836 139.403ZM72.842 140.782L74.3027 142.16L73.4071 143.109L71.9465 141.731L72.842 140.782ZM103.915 142.16L105.376 140.782L106.271 141.731L104.811 143.109L103.915 142.16ZM75.7633 143.539L77.224 144.918L76.3284 145.867L74.8678 144.488L75.7633 143.539ZM100.994 144.918L102.454 143.539L103.35 144.488L101.889 145.867L100.994 144.918ZM78.6846 146.296L80.1453 147.675L79.2497 148.624L77.7891 147.245L78.6846 146.296ZM98.0725 147.675L99.5331 146.296L100.429 147.245L98.9681 148.624L98.0725 147.675ZM81.6059 149.053L83.0666 150.432L82.171 151.381L80.7104 150.002L81.6059 149.053ZM95.1512 150.432L96.6118 149.053L97.5074 150.002L96.0468 151.381L95.1512 150.432ZM84.5272 151.811L85.9879 153.189L85.0923 154.138L83.6317 152.76L84.5272 151.811ZM92.2299 153.189L93.6905 151.811L94.5861 152.76L93.1255 154.138L92.2299 153.189ZM87.4485 154.568L88.1789 155.257C88.3079 155.379 88.4538 155.47 88.6081 155.531L88.1267 156.744C87.8215 156.623 87.5345 156.443 87.2833 156.206L86.553 155.517L87.4485 154.568ZM90.0389 155.257L90.7692 154.568L91.6648 155.517L90.9345 156.206C90.6833 156.443 90.3963 156.623 90.0911 156.744L89.6096 155.531C89.764 155.47 89.9098 155.379 90.0389 155.257Z" fill="#E5E7EF"/>
<path fill-rule="evenodd" clip-rule="evenodd" d="M57.7992 34.1128L57.8706 34.1285C58.1951 34.2001 58.5061 34.2692 58.8046 34.3359L58.5198 35.6093C58.2446 35.5477 57.9586 35.4842 57.6608 35.4184C57.2905 35.4207 56.9352 35.4237 56.5934 35.4276L56.5784 34.1229C56.9455 34.1187 57.3277 34.1156 57.7261 34.1132L57.7992 34.1128ZM54.325 35.4773C53.4949 35.5072 52.7584 35.5508 52.082 35.6146L51.9596 34.3155C52.668 34.2488 53.4308 34.2038 54.2781 34.1733L54.325 35.4773ZM124.186 35.7083C123.568 35.6605 122.927 35.6414 122.26 35.6545L122.234 34.35C122.942 34.336 123.626 34.3564 124.287 34.4074L124.186 35.7083ZM119.39 35.8972C119.71 35.8506 120.024 35.8109 120.333 35.7779L120.195 34.4805C119.862 34.516 119.524 34.5588 119.18 34.6092L119.16 34.6122L119.14 34.6165C118.845 34.6791 118.547 34.7437 118.247 34.8106L118.531 36.0841C118.819 36.0198 119.106 35.9576 119.39 35.8972ZM49.8934 35.933C49.1784 36.0807 48.4918 36.2712 47.7734 36.5186L47.3487 35.2849C48.116 35.0207 48.8563 34.8149 49.6294 34.6552L49.8934 35.933ZM127.961 36.3968C127.36 36.221 126.738 36.0719 126.092 35.9542L126.326 34.6706C127.018 34.7967 127.684 34.9564 128.327 35.1443L127.961 36.3968ZM62.2002 36.4866C61.654 36.3423 61.0517 36.1934 60.3689 36.0324L60.6684 34.7625C61.3589 34.9253 61.973 35.077 62.5335 35.2252L62.2002 36.4866ZM116.782 36.4979C116.205 36.643 115.627 36.7979 115.052 36.9642L114.689 35.7108C115.281 35.5397 115.874 35.3809 116.464 35.2326L116.782 36.4979ZM65.734 37.647C65.1615 37.4121 64.6017 37.2058 63.9932 37.0084L64.3958 35.7673C65.0364 35.9751 65.6271 36.1928 66.2292 36.4399L65.734 37.647ZM131.545 37.8227C130.972 37.5362 130.385 37.2691 129.781 37.0271L130.266 35.8158C130.907 36.0727 131.527 36.3549 132.128 36.6555L131.545 37.8227ZM45.6999 37.3401C45.3716 37.4839 45.0295 37.6389 44.6698 37.8058C44.3739 37.9431 44.0773 38.0916 43.7806 38.2508L43.1639 37.101C43.4816 36.9305 43.8007 36.7706 44.1206 36.6222C44.4871 36.4521 44.8378 36.2933 45.1763 36.145L45.6999 37.3401ZM113.347 37.4965C112.782 37.6871 112.224 37.8907 111.677 38.1091L111.193 36.8973C111.764 36.6693 112.345 36.4575 112.93 36.2601L113.347 37.4965ZM68.2969 38.8145C67.9971 38.6692 67.7142 38.5337 67.4435 38.4063L67.999 37.2257C68.2753 37.3557 68.5629 37.4935 68.8659 37.6403C69.1523 37.7791 69.43 37.9202 69.7014 38.0649L69.0877 39.2163C68.8315 39.0798 68.5688 38.9462 68.2969 38.8145ZM134.1 39.2527C133.822 39.0824 133.541 38.9148 133.259 38.7508L133.914 37.6223C134.206 37.7919 134.495 37.9646 134.781 38.1394C135.048 38.3028 135.308 38.4672 135.561 38.6328L134.846 39.7243C134.605 39.5663 134.356 39.4091 134.1 39.2527ZM110.055 38.8185C109.519 39.0758 108.999 39.35 108.5 39.643L107.84 38.5179C108.373 38.2047 108.925 37.9135 109.49 37.6421L110.055 38.8185ZM42.0671 39.284C41.5191 39.6504 40.9759 40.0476 40.4415 40.4705L39.6319 39.4473C40.1917 39.0043 40.763 38.5864 41.3419 38.1994L42.0671 39.284ZM72.0774 41.1267C71.5783 40.7572 71.0976 40.4226 70.6146 40.1123L71.3199 39.0146C71.8307 39.3428 72.3352 39.6941 72.8538 40.0781L72.0774 41.1267ZM107.041 40.6016C106.806 40.7745 106.579 40.9528 106.358 41.1368C106.135 41.3231 105.895 41.5249 105.641 41.7405L104.797 40.7449C105.054 40.5275 105.296 40.3237 105.522 40.1352C105.764 39.9336 106.012 39.739 106.267 39.5511L107.041 40.6016ZM137.642 41.8448C137.215 41.4698 136.764 41.1004 136.283 40.736L137.07 39.6957C137.577 40.0795 138.053 40.469 138.503 40.8647L137.642 41.8448ZM38.9036 41.779C38.4065 42.2322 37.9221 42.704 37.4537 43.1896L36.5145 42.2839C37.0018 41.7787 37.5063 41.2873 38.0245 40.8148L38.9036 41.779ZM74.8982 43.3784C74.4012 42.9632 73.9385 42.5818 73.4989 42.2284L74.3164 41.2115C74.7645 41.5717 75.2339 41.9587 75.7347 42.377L74.8982 43.3784ZM104.207 42.9677C103.756 43.3579 103.279 43.7731 102.784 44.2075L101.923 43.227C102.421 42.7904 102.9 42.373 103.354 41.9805L104.207 42.9677ZM140.109 44.3453C139.729 43.9051 139.334 43.4738 138.917 43.0505L139.847 42.1353C140.285 42.5806 140.699 43.0328 141.096 43.4921L140.109 44.3453ZM76.9864 45.1407C76.7472 44.938 76.5155 44.7416 76.2905 44.5511L77.1336 43.5553C77.359 43.7461 77.591 43.9427 77.8301 44.1455C78.0985 44.373 78.3663 44.6019 78.6332 44.8318L77.7815 45.8203C77.5172 45.5926 77.2521 45.366 76.9864 45.1407ZM36.0948 44.6898C35.6523 45.2102 35.2309 45.7393 34.8344 46.2718L33.7879 45.4926C34.2015 44.9371 34.6404 44.3859 35.1009 43.8445L36.0948 44.6898ZM101.369 45.4593C100.908 45.87 100.438 46.2917 99.9637 46.7202L99.0888 45.7523C99.5653 45.3215 100.038 44.8978 100.501 44.485L101.369 45.4593ZM142.303 47.1377C141.947 46.6524 141.593 46.1784 141.23 45.7142L142.259 44.9114C142.632 45.3893 142.995 45.8747 143.356 46.3673L142.303 47.1377ZM80.9106 48.6C80.399 48.1318 79.8803 47.6639 79.3563 47.1984L80.223 46.223C80.7518 46.6928 81.2752 47.165 81.7915 47.6375L80.9106 48.6ZM98.5683 47.9915C98.1047 48.4173 97.6417 48.8461 97.184 49.2741L96.2928 48.3211C96.7536 47.8902 97.2194 47.4588 97.6857 47.0305L98.5683 47.9915ZM33.6868 47.9315C33.5034 48.2187 33.3286 48.505 33.1627 48.7896C32.9949 49.0777 32.8274 49.3717 32.661 49.6717L31.5199 49.039C31.6912 48.7301 31.8633 48.4281 32.0353 48.1328C32.2104 47.8323 32.3945 47.5309 32.5871 47.2293L33.6868 47.9315ZM143.519 48.8295C143.463 48.7508 143.407 48.6723 143.351 48.5943L144.414 47.8363L144.576 48.0641C144.696 48.2317 144.816 48.4 144.937 48.5696L144.963 48.6061L144.984 48.646C145.126 48.9178 145.282 49.1929 145.448 49.4784L144.322 50.1362C144.157 49.8546 143.998 49.5742 143.849 49.2921C143.739 49.137 143.629 48.9827 143.519 48.8295ZM83.9561 51.4707C83.4631 50.992 82.9584 50.509 82.444 50.0241L83.3389 49.0746C83.8581 49.5639 84.3675 50.0514 84.8652 50.5348L83.9561 51.4707ZM95.8137 50.5689C95.3497 51.0124 94.8965 51.4509 94.4592 51.8804L93.5449 50.9496C93.9869 50.5154 94.4444 50.0727 94.9123 49.6256L95.8137 50.5689ZM31.7233 51.465C31.4336 52.0563 31.1535 52.6686 30.8887 53.3026L29.6847 52.7996C29.9605 52.1395 30.2515 51.5035 30.5515 50.891L31.7233 51.465ZM146.23 53.5171C145.931 52.9035 145.625 52.3475 145.323 51.8256L146.452 51.172C146.764 51.711 147.086 52.2956 147.403 52.9457L146.23 53.5171ZM86.9087 54.4336C86.439 53.9455 85.9503 53.4466 85.4452 52.9401L86.3691 52.0188C86.8795 52.5306 87.3737 53.035 87.8489 53.529L86.9087 54.4336ZM93.131 53.2086C92.667 53.6822 92.2327 54.1367 91.8363 54.5659L90.8779 53.6805C91.2847 53.2402 91.7279 52.7762 92.1992 52.2954L93.131 53.2086ZM30.1738 55.1852C29.9614 55.8076 29.7663 56.4489 29.5927 57.1098L28.3307 56.7784C28.5127 56.0857 28.717 55.4143 28.939 54.7638L30.1738 55.1852ZM147.583 57.0807C147.398 56.4243 147.197 55.823 146.987 55.2675L148.207 54.8049C148.431 55.3955 148.644 56.0329 148.839 56.7265L147.583 57.0807ZM89.0431 56.7242C88.8166 56.4722 88.5826 56.2153 88.3416 55.9538L89.3008 55.0694C89.3636 55.1374 89.4258 55.2051 89.4876 55.2726C89.5264 55.2246 89.5659 55.1762 89.6061 55.1274L90.6134 55.9567C90.4003 56.2156 90.2139 56.4545 90.0561 56.6716L89.5821 57.3238L89.0431 56.7242ZM148.349 60.8417C148.257 60.1669 148.15 59.5356 148.031 58.9433L149.31 58.6856C149.435 59.3061 149.546 59.9649 149.641 60.6664L148.349 60.8417ZM29.1561 59.0691C29.0379 59.7137 28.9415 60.3756 28.8704 61.0553L27.5727 60.9195C27.6474 60.2057 27.7486 59.5106 27.8727 58.8338L29.1561 59.0691ZM148.622 63.7111C148.603 63.3864 148.581 63.07 148.555 62.7614L149.856 62.6552C149.882 62.98 149.906 63.3128 149.925 63.654L149.927 63.673V63.692C149.927 64.0481 149.929 64.3821 149.933 64.697L148.629 64.715C148.624 64.3999 148.622 64.0662 148.622 63.7111ZM28.7385 63.058C28.7206 63.712 28.7265 64.3816 28.7591 65.0669L27.4558 65.1288C27.4217 64.4107 27.4154 63.7086 27.4342 63.0222L28.7385 63.058ZM148.716 67.4829C148.706 67.2519 148.695 67.0114 148.685 66.7565L149.989 66.7046C149.999 66.949 150.009 67.1845 150.019 67.4133C150.039 67.8745 150.057 68.3088 150.069 68.7349L148.765 68.7707C148.753 68.3546 148.735 67.9373 148.716 67.4829ZM29.0614 68.0505C29.0104 67.72 28.9657 67.3929 28.9269 67.0691L27.6314 67.2242C27.6726 67.5685 27.7203 67.9161 27.7746 68.2672L27.7773 68.2843L27.7808 68.3013C27.845 68.6075 27.9096 68.9114 27.9748 69.2134L29.2502 68.9379C29.1868 68.6445 29.124 68.3488 29.0614 68.0505ZM29.655 70.7383C29.7965 71.34 29.9433 71.9342 30.0985 72.5239L28.8367 72.856C28.6782 72.2536 28.5286 71.6481 28.3848 71.0369L29.655 70.7383ZM148.588 72.7223C148.673 71.9651 148.723 71.3245 148.751 70.7453L150.054 70.8065C150.025 71.4172 149.972 72.0863 149.884 72.8681L148.588 72.7223ZM30.5946 74.2903C30.7691 74.8721 30.9548 75.4522 31.1546 76.0335L29.9208 76.4577C29.7149 75.859 29.5239 75.2623 29.3448 74.6651L30.5946 74.2903ZM148.181 75.63C148.233 75.3057 148.281 74.9974 148.324 74.7038L149.615 74.8966C149.567 75.2166 149.515 75.553 149.458 75.9075L149.446 75.9774L149.42 76.0432C149.272 76.42 149.137 76.7632 149.016 77.0767L147.799 76.6054C147.915 76.3076 148.041 75.9836 148.181 75.63ZM31.7862 77.7495C32.0053 78.3069 32.2399 78.8681 32.4925 79.4354L31.3005 79.9662C31.04 79.381 30.7979 78.8019 30.5719 78.2268L31.7862 77.7495ZM146.899 78.9942C146.934 78.9011 146.97 78.802 147.009 78.696L148.233 79.1472C148.193 79.2567 148.155 79.3597 148.119 79.4571C147.817 80.2807 147.661 80.7043 147.368 81.2779L146.206 80.6833C146.462 80.1833 146.59 79.8364 146.899 78.9942ZM33.2727 81.0896C33.4071 81.3594 33.546 81.6311 33.6895 81.9048C33.8698 82.2487 34.0508 82.5852 34.2328 82.9148L33.0906 83.5454C32.904 83.2075 32.7185 82.8627 32.5339 82.5107C32.3862 82.229 32.2433 81.9493 32.1048 81.6714L33.2727 81.0896ZM145.044 82.7279L145.128 82.5846L146.255 83.2425C146.145 83.4312 146.025 83.636 145.895 83.8595C145.83 83.9704 145.763 84.086 145.692 84.2065C145.503 84.5318 145.318 84.8371 145.137 85.1254L144.032 84.4308C144.205 84.1558 144.382 83.8631 144.565 83.5496C144.742 83.246 144.901 82.9736 145.044 82.7279ZM35.3857 84.8922C35.7949 85.5564 36.2107 86.1927 36.6349 86.8063L35.5616 87.5483C35.1242 86.9156 34.6959 86.2601 34.2748 85.5766L35.3857 84.8922ZM141.551 87.6455C142.007 87.1652 142.438 86.6716 142.873 86.1052L143.908 86.9004C143.441 87.5082 142.979 88.0361 142.498 88.5435L141.551 87.6455ZM37.9849 88.6486C38.4549 89.2544 38.9372 89.8413 39.4342 90.4156L38.4476 91.2694C37.936 90.6782 37.4389 90.0733 36.9541 89.4485L37.9849 88.6486ZM139.842 89.3368C139.924 89.258 140.005 89.1805 140.084 89.1041L140.989 90.0442C140.909 90.1214 140.827 90.1994 140.745 90.2784C140.353 90.655 139.939 91.0536 139.488 91.4987L138.571 90.5701C139.029 90.1186 139.45 89.7133 139.842 89.3368ZM136.376 92.8365C136.621 92.5719 136.857 92.3209 137.084 92.082L138.029 92.9822C137.8 93.2221 137.563 93.4745 137.317 93.741L137.299 93.7599L136.563 94.4402L135.678 93.4818L136.376 92.8365ZM41.7613 92.9183C41.4945 92.6496 41.2322 92.3801 40.974 92.1091L40.0294 93.0091C40.2981 93.2912 40.5709 93.5714 40.8481 93.8504L40.8606 93.8631L41.6068 94.5365L42.481 93.5679L41.7613 92.9183ZM132.808 96.1328L134.243 94.8073L135.128 95.7656L133.694 97.0911L132.808 96.1328ZM43.947 94.891L45.4129 96.2141L44.5387 97.1827L43.0727 95.8596L43.947 94.891ZM129.939 98.7838L131.374 97.4583L132.259 98.4166L130.824 99.7421L129.939 98.7838ZM46.8788 97.5372L48.3448 98.8603L47.4706 99.8289L46.0046 98.5058L46.8788 97.5372ZM127.07 101.435L128.504 100.109L129.39 101.068L127.955 102.393L127.07 101.435ZM49.8107 100.183L51.2767 101.506L50.4024 102.475L48.9365 101.152L49.8107 100.183ZM124.2 104.086L125.635 102.76L126.52 103.719L125.086 105.044L124.2 104.086ZM52.7426 102.83L54.2085 104.153L53.3343 105.121L51.8684 103.798L52.7426 102.83ZM121.331 106.737L122.766 105.411L123.651 106.37L122.216 107.695L121.331 106.737ZM55.6745 105.476L57.1404 106.799L56.2662 107.767L54.8003 106.444L55.6745 105.476ZM118.462 109.388L119.896 108.062L120.782 109.021L119.347 110.346L118.462 109.388ZM58.6064 108.122L60.0723 109.445L59.1981 110.414L57.7322 109.091L58.6064 108.122ZM115.592 112.039L117.027 110.713L117.912 111.672L116.478 112.997L115.592 112.039ZM61.5383 110.768L63.0042 112.091L62.13 113.06L60.664 111.737L61.5383 110.768ZM112.723 114.69L114.158 113.364L115.043 114.323L113.608 115.648L112.723 114.69ZM64.4701 113.414L65.9361 114.737L65.0619 115.706L63.5959 114.383L64.4701 113.414ZM109.854 117.341L111.288 116.015L112.174 116.973L110.739 118.299L109.854 117.341ZM67.402 116.061L68.868 117.384L67.9937 118.352L66.5278 117.029L67.402 116.061ZM106.984 119.992L108.419 118.666L109.304 119.624L107.87 120.95L106.984 119.992ZM70.3339 118.707L71.7998 120.03L70.9256 120.998L69.4597 119.675L70.3339 118.707ZM104.115 122.643L105.55 121.317L106.435 122.275L105 123.601L104.115 122.643ZM73.2658 121.353L74.7317 122.676L73.8575 123.645L72.3916 122.321L73.2658 121.353ZM101.246 125.294L102.68 123.968L103.566 124.926L102.131 126.252L101.246 125.294ZM76.1977 123.999L77.6636 125.322L76.7894 126.291L75.3235 124.968L76.1977 123.999ZM98.3762 127.945L99.8109 126.619L100.696 127.577L99.2616 128.903L98.3762 127.945ZM79.1295 126.645L80.5955 127.968L79.7213 128.937L78.2553 127.614L79.1295 126.645ZM95.5069 130.595L96.9415 129.27L97.827 130.228L96.3923 131.554L95.5069 130.595ZM82.0614 129.291L83.5274 130.615L82.6532 131.583L81.1872 130.26L82.0614 129.291ZM92.6375 133.246L94.0722 131.921L94.9576 132.879L93.5229 134.205L92.6375 133.246ZM84.9933 131.938L86.4593 133.261L85.585 134.229L84.1191 132.906L84.9933 131.938ZM90.4855 135.235L91.2028 134.572L92.0883 135.53L91.3709 136.193C91.123 136.422 90.8413 136.596 90.5422 136.714L90.0637 135.5C90.215 135.44 90.3582 135.352 90.4855 135.235ZM87.9252 134.584L88.6582 135.245C88.7868 135.361 88.931 135.448 89.0831 135.506L88.6187 136.725C88.3182 136.611 88.0345 136.44 87.7839 136.214L87.051 135.552L87.9252 134.584Z" fill="#E5E7EF"/>
<path d="M35.3755 27.4655C35.3755 29.9851 33.333 32.0277 30.8134 32.0277C28.2938 32.0277 26.2512 29.9851 26.2512 27.4655C26.2512 24.9459 28.2938 22.9034 30.8134 22.9034C33.333 22.9034 35.3755 24.9459 35.3755 27.4655Z" fill="white"/>
<path fill-rule="evenodd" clip-rule="evenodd" d="M30.8134 23.5558C28.6541 23.5558 26.9036 25.3062 26.9036 27.4655C26.9036 29.6248 28.6541 31.3753 30.8134 31.3753C32.9727 31.3753 34.7232 29.6248 34.7232 27.4655C34.7232 25.3062 32.9727 23.5558 30.8134 23.5558ZM25.5988 27.4655C25.5988 24.5856 27.9335 22.251 30.8134 22.251C33.6933 22.251 36.0279 24.5856 36.0279 27.4655C36.0279 30.3454 33.6933 32.6801 30.8134 32.6801C27.9335 32.6801 25.5988 30.3454 25.5988 27.4655Z" fill="#E5E7EF"/>
<path d="M21.6891 42.5207C21.6891 44.2844 20.2593 45.7142 18.4956 45.7142C16.7319 45.7142 15.3021 44.2844 15.3021 42.5207C15.3021 40.757 16.7319 39.3272 18.4956 39.3272C20.2593 39.3272 21.6891 40.757 21.6891 42.5207Z" fill="white"/>
<path fill-rule="evenodd" clip-rule="evenodd" d="M18.4956 39.9796C17.0922 39.9796 15.9545 41.1173 15.9545 42.5207C15.9545 43.9241 17.0922 45.0618 18.4956 45.0618C19.899 45.0618 21.0367 43.9241 21.0367 42.5207C21.0367 41.1173 19.899 39.9796 18.4956 39.9796ZM14.6497 42.5207C14.6497 40.3967 16.3716 38.6748 18.4956 38.6748C20.6196 38.6748 22.3415 40.3967 22.3415 42.5207C22.3415 44.6447 20.6196 46.3666 18.4956 46.3666C16.3716 46.3666 14.6497 44.6447 14.6497 42.5207Z" fill="#E5E7EF"/>
<path d="M113.845 37.9587C113.845 39.7224 112.415 41.1522 110.651 41.1522C108.887 41.1522 107.458 39.7224 107.458 37.9587C107.458 36.195 108.887 34.7652 110.651 34.7652C112.415 34.7652 113.845 36.195 113.845 37.9587Z" fill="white"/>
<path fill-rule="evenodd" clip-rule="evenodd" d="M110.651 35.4176C109.248 35.4176 108.11 36.5553 108.11 37.9587C108.11 39.3621 109.248 40.4998 110.651 40.4998C112.054 40.4998 113.192 39.3621 113.192 37.9587C113.192 36.5553 112.054 35.4176 110.651 35.4176ZM106.805 37.9587C106.805 35.8347 108.527 34.1128 110.651 34.1128C112.775 34.1128 114.497 35.8347 114.497 37.9587C114.497 40.0827 112.775 41.8046 110.651 41.8046C108.527 41.8046 106.805 40.0827 106.805 37.9587Z" fill="#E5E7EF"/>
<path d="M16.2145 58.0321C16.2145 59.2919 15.1933 60.3132 13.9335 60.3132C12.6737 60.3132 11.6524 59.2919 11.6524 58.0321C11.6524 56.7723 12.6737 55.751 13.9335 55.751C15.1933 55.751 16.2145 56.7723 16.2145 58.0321Z" fill="white"/>
<path fill-rule="evenodd" clip-rule="evenodd" d="M13.9335 56.4034C13.034 56.4034 12.3048 57.1326 12.3048 58.0321C12.3048 58.9316 13.034 59.6608 13.9335 59.6608C14.833 59.6608 15.5622 58.9316 15.5622 58.0321C15.5622 57.1326 14.833 56.4034 13.9335 56.4034ZM11 58.0321C11 56.412 12.3134 55.0986 13.9335 55.0986C15.5536 55.0986 16.8669 56.412 16.8669 58.0321C16.8669 59.6522 15.5536 60.9656 13.9335 60.9656C12.3134 60.9656 11 59.6522 11 58.0321Z" fill="#E5E7EF"/>
<path d="M126.619 34.7648C126.619 35.7727 125.802 36.5897 124.794 36.5897C123.786 36.5897 122.969 35.7727 122.969 34.7648C122.969 33.757 123.786 32.94 124.794 32.94C125.802 32.94 126.619 33.757 126.619 34.7648Z" fill="white"/>
<path fill-rule="evenodd" clip-rule="evenodd" d="M124.794 33.5924C124.146 33.5924 123.621 34.1173 123.621 34.7648C123.621 35.4124 124.146 35.9373 124.794 35.9373C125.441 35.9373 125.966 35.4124 125.966 34.7648C125.966 34.1173 125.441 33.5924 124.794 33.5924ZM122.316 34.7648C122.316 33.3967 123.426 32.2876 124.794 32.2876C126.162 32.2876 127.271 33.3967 127.271 34.7648C127.271 36.133 126.162 37.2421 124.794 37.2421C123.426 37.2421 122.316 36.133 122.316 34.7648Z" fill="#E5E7EF"/>
<path fill-rule="evenodd" clip-rule="evenodd" d="M82.8236 52.756C81.711 51.722 80.3041 51.4164 79.0702 51.4841C78.1977 51.532 77.436 52.099 76.2927 52.9501L76.2784 52.9608C73.4638 55.056 69.5035 56.5337 65.9857 57.2885C64.2174 57.6679 62.5136 57.875 61.0719 57.8753C59.7042 57.8755 58.3224 57.6935 57.4143 57.0657L58.7632 55.1143C59.0306 55.2991 59.7636 55.5032 61.0716 55.5029C62.3055 55.5027 63.838 55.323 65.4881 54.9689C68.8071 54.2568 72.412 52.8816 74.8618 51.0578C74.9315 51.006 75.0035 50.9518 75.0778 50.8959C76.0181 50.1884 77.3266 49.2039 78.9403 49.1154C80.6319 49.0226 82.7335 49.4336 84.4386 51.0182L82.8236 52.756Z" fill="#323B5E"/>
<path fill-rule="evenodd" clip-rule="evenodd" d="M48.5054 92.2988C48.6458 88.1837 45.5248 85.9782 43.9392 85.4037L44.8716 82.8301C47.0716 83.6272 51.4375 86.6333 51.2411 92.3921L48.5054 92.2988Z" fill="#323B5E"/>
<path fill-rule="evenodd" clip-rule="evenodd" d="M51.4662 87.8353C53.3524 84.3858 57.675 83.1237 61.121 85.0165C64.567 86.9093 65.8314 91.2401 63.9452 94.6897L59.5541 102.72C57.6679 106.17 53.3453 107.432 49.8993 105.539C46.4534 103.646 45.189 99.3153 47.0752 95.8657L51.4662 87.8353ZM59.9828 87.098C57.6853 85.836 54.8032 86.6774 53.5455 88.9774L49.1545 97.0078C47.8969 99.3078 48.7399 102.195 51.0375 103.457C53.3351 104.719 56.2172 103.878 57.4748 101.578L61.8659 93.5475C63.1235 91.2476 62.2804 88.36 59.9828 87.098Z" fill="#323B5E"/>
<path fill-rule="evenodd" clip-rule="evenodd" d="M62.6319 90.1788C64.3972 86.9504 68.4427 85.7692 71.6677 87.5407C74.8928 89.3121 76.0761 93.3653 74.3108 96.5937L67.2899 109.434C65.5246 112.662 61.4791 113.843 58.254 112.072C55.029 110.3 53.8456 106.247 55.6109 103.019L62.6319 90.1788ZM70.5296 89.6222C68.4529 88.4815 65.8479 89.242 64.7112 91.3209L57.6902 104.161C56.5535 106.24 57.3155 108.85 59.3922 109.99C61.4689 111.131 64.0738 110.371 65.2106 108.292L72.2315 95.4516C73.3683 93.3728 72.6063 90.7628 70.5296 89.6222Z" fill="#323B5E"/>
<path fill-rule="evenodd" clip-rule="evenodd" d="M71.9731 97.0926C73.6175 94.0853 77.3859 92.9851 80.39 94.6352C83.3942 96.2853 84.4965 100.061 82.8521 103.068L76.7085 114.304C75.0641 117.311 71.2957 118.411 68.2916 116.761C65.2874 115.111 64.1851 111.335 65.8295 108.328L71.9731 97.0926ZM79.2519 96.7166C77.3961 95.6973 75.0682 96.3769 74.0524 98.2347L67.9088 109.47C66.893 111.328 67.5739 113.66 69.4297 114.68C71.2855 115.699 73.6134 115.019 74.6292 113.162L80.7728 101.926C81.7886 100.068 81.1077 97.736 79.2519 96.7166Z" fill="#323B5E"/>
<path fill-rule="evenodd" clip-rule="evenodd" d="M79.271 105.322C80.9154 102.315 84.6838 101.215 87.6879 102.865C90.6921 104.515 91.7944 108.29 90.15 111.298L86.1984 118.524C84.554 121.532 80.7857 122.632 77.7815 120.982C74.7774 119.332 73.675 115.556 75.3194 112.549L79.271 105.322ZM86.5498 104.946C84.694 103.927 82.3661 104.606 81.3503 106.464L77.3987 113.691C76.3829 115.549 77.0639 117.881 78.9197 118.9C80.7754 119.92 83.1033 119.24 84.1191 117.382L88.0707 110.155C89.0865 108.298 88.4055 105.965 86.5498 104.946Z" fill="#323B5E"/>
<path fill-rule="evenodd" clip-rule="evenodd" d="M43.0021 45.7655C44.0031 43.8437 46.371 43.1002 48.291 44.1048L56.3788 48.3368C58.2987 49.3414 59.0436 51.7137 58.0425 53.6355L42.4179 83.6308C41.4168 85.5525 39.0489 86.296 37.129 85.2914L29.0412 81.0594C27.1213 80.0548 26.3764 77.6825 27.3774 75.7607L43.0021 45.7655ZM47.195 46.2088C46.4359 45.8116 45.4998 46.1055 45.104 46.8653L29.4794 76.8606C29.0836 77.6204 29.3781 78.5583 30.1371 78.9554L38.225 83.1874C38.984 83.5846 39.9201 83.2907 40.3159 82.5309L55.9406 52.5356C56.3363 51.7758 56.0418 50.838 55.2828 50.4408L47.195 46.2088Z" fill="#323B5E"/>
<path fill-rule="evenodd" clip-rule="evenodd" d="M122.11 54.1823C121.14 52.2444 121.924 49.8847 123.86 48.9115L132.015 44.8124C133.951 43.8393 136.307 44.6214 137.276 46.5592L152.002 75.9889C152.971 77.9268 152.188 80.2865 150.252 81.2596L142.096 85.3587C140.16 86.3318 137.805 85.5498 136.835 83.6119L122.11 54.1823ZM124.921 51.0331C124.156 51.4178 123.846 52.3508 124.229 53.1169L138.955 82.5466C139.338 83.3127 140.269 83.6219 141.035 83.2372L149.19 79.1381C149.956 78.7533 150.265 77.8204 149.882 77.0543L135.157 47.6246C134.773 46.8585 133.842 46.5493 133.077 46.934L124.921 51.0331Z" fill="#323B5E"/>
<path fill-rule="evenodd" clip-rule="evenodd" d="M49.1049 46.2672C49.6851 46.5713 49.9098 47.2887 49.6068 47.8695L47.3223 52.2481C47.0192 52.8289 46.3032 53.0532 45.723 52.7491C45.1427 52.445 44.918 51.7277 45.221 51.1469L47.5056 46.7682C47.8086 46.1874 48.5246 45.9631 49.1049 46.2672Z" fill="#323B5E"/>
<path fill-rule="evenodd" clip-rule="evenodd" d="M139.429 73.5343C140.017 73.2449 140.727 73.4871 141.015 74.0753L144.799 81.7924C145.087 82.3806 144.845 83.0921 144.257 83.3815C143.669 83.671 142.959 83.4288 142.671 82.8406L138.887 75.1235C138.599 74.5353 138.841 73.8238 139.429 73.5343Z" fill="#323B5E"/>
<path fill-rule="evenodd" clip-rule="evenodd" d="M42.464 57.4446C41.8956 57.119 41.6978 56.3937 42.0224 55.8246L42.658 54.7101C42.9825 54.141 43.7064 53.9437 44.2748 54.2693C44.8433 54.595 45.041 55.3203 44.7164 55.8893L44.0808 57.0038C43.7563 57.5729 43.0324 57.7702 42.464 57.4446Z" fill="#323B5E"/>
<path fill-rule="evenodd" clip-rule="evenodd" d="M83.6203 51.4338C89.511 45.7791 97.4509 47.0294 101.55 48.6096C102.522 48.9843 103.337 49.582 104.025 50.1788C109.519 54.9483 113.508 56.4772 116.158 56.6192C118.753 56.7584 120.127 55.582 120.647 54.6394L122.724 55.7854C121.741 57.5671 119.485 59.1733 116.031 58.9882C112.631 58.8059 108.153 56.9037 102.47 51.9702C101.879 51.4576 101.303 51.0572 100.696 50.8231C96.9194 49.367 90.131 48.4398 85.2301 53.1771L85.1919 53.214L85.1506 53.2474C83.291 54.7479 80.8516 56.6603 78.3622 58.6119C76.8234 59.8184 75.2654 61.0398 73.8135 62.1881C71.9054 63.6973 70.1791 65.0813 68.9 66.1538C68.2591 66.6913 67.7425 67.1406 67.3754 67.4831C67.1909 67.6553 67.0568 67.7888 66.9677 67.8857C66.9399 67.9159 66.9206 67.9382 66.9081 67.9532C66.6105 68.601 66.5583 69.0033 66.5758 69.2899C66.5947 69.6018 66.7013 69.9089 66.938 70.407C67.1311 70.8135 68.1664 72.4824 70.3429 73.2499C72.4496 73.9927 75.9453 74.0002 81.3204 70.537L86.4942 66.5306L128.73 91.2575C128.884 90.2322 129.194 89.088 129.733 87.9712C130.696 85.9742 132.408 84.0375 135.255 83.0929L136.002 85.3445C133.873 86.0511 132.607 87.4723 131.869 89.0019C131.117 90.5615 130.932 92.2048 130.988 93.1936L131.113 95.4016L86.6791 69.3878L82.6927 72.4747L82.6504 72.5021C76.8531 76.2501 72.5723 76.5515 69.554 75.4872C66.5999 74.4455 65.1634 72.2002 64.7951 71.425C64.5325 70.8722 64.2558 70.222 64.2078 69.4339C64.159 68.6303 64.3523 67.8076 64.7942 66.873C64.9119 66.6243 65.1042 66.4074 65.2214 66.28C65.3684 66.1201 65.5515 65.9403 65.757 65.7486C66.1697 65.3635 66.7237 64.8829 67.3757 64.3361C68.6825 63.2402 70.4315 61.8383 72.3418 60.3274C73.8137 59.1633 75.3807 57.9349 76.9226 56.7261C79.3813 54.7986 81.7762 52.9211 83.6203 51.4338Z" fill="#E21521"/>
<path fill-rule="evenodd" clip-rule="evenodd" d="M130.111 99.762C131.482 97.6975 130.577 95.3856 129.112 94.1723L130.625 92.3452C132.691 94.0569 134.344 97.6754 132.088 101.074C129.885 104.392 126.032 104.499 124.072 103.77C123.339 103.498 122.701 103.256 121.851 102.9C121.855 103.281 121.835 103.673 121.787 104.067C121.622 105.411 121.11 106.9 119.943 108.036C118.636 109.31 116.038 110.226 112.189 108.553C112.507 110.985 111.521 113.637 109.206 115.106C107.486 116.198 104.697 116.414 101.034 114.486C101.06 114.792 101.073 115.104 101.068 115.419C101.045 116.947 100.611 118.661 99.3033 119.984C98.002 121.3 95.0868 122.861 91.9399 121.071L86.7327 118.362L87.8274 116.258L93.0771 118.988L93.0983 119.001C94.9616 120.07 96.7326 119.209 97.6162 118.316C98.36 117.563 98.6785 116.519 98.6959 115.382C98.7111 114.39 98.4921 113.424 98.221 112.731L94.3136 110.185L95.6087 108.198L101.419 111.984C105.027 114.127 107.102 113.632 107.935 113.103C110.391 111.544 110.44 107.923 108.501 106.374L102.683 102.68L103.954 100.677L112.312 105.983C115.999 107.906 117.763 106.848 118.288 106.337C118.951 105.691 119.31 104.774 119.432 103.779C119.53 102.986 119.466 102.221 119.338 101.646C116.868 100.224 112.786 97.7666 110.485 96.3688L111.717 94.3412C114.158 95.8241 118.57 98.4789 120.938 99.8286C121.637 100.227 122.193 100.468 122.388 100.551C123.396 100.982 124.075 101.24 124.899 101.547C126.142 102.009 128.687 101.907 130.111 99.762Z" fill="#323B5E"/>
</svg>
