<svg width="176" height="176" viewBox="0 0 176 176" fill="none" xmlns="http://www.w3.org/2000/svg">
<path fill-rule="evenodd" clip-rule="evenodd" d="M53.9009 48.4716C47.0954 48.4716 41.5784 53.9527 41.5784 60.714V118.3C41.5784 125.061 47.0954 130.542 53.9009 130.542H115.282C122.087 130.542 127.604 125.061 127.604 118.3V60.714C127.604 53.9527 122.087 48.4716 115.282 48.4716H53.9009ZM44.1061 60.714C44.1061 55.3397 48.4914 50.9829 53.9009 50.9829H115.282C120.691 50.9829 125.076 55.3397 125.076 60.714V67.2586H44.1061V60.714ZM44.1061 70.2266V118.3C44.1061 123.674 48.4914 128.031 53.9009 128.031H115.282C120.691 128.031 125.076 123.674 125.076 118.3V70.2266H44.1061Z" fill="#323B5E"/>
<path fill-rule="evenodd" clip-rule="evenodd" d="M124.638 52.6037C122.377 50.0694 119.071 48.4715 115.389 48.4715H53.9189C47.1035 48.4715 41.5785 53.9464 41.5785 60.7V100.878L44.1098 99.4067V60.7C44.1098 55.3317 48.5015 50.9799 53.9189 50.9799H115.389C118.137 50.9799 120.621 52.0995 122.402 53.9034L124.638 52.6037Z" fill="#E21521"/>
<path fill-rule="evenodd" clip-rule="evenodd" d="M61.8489 40.561C62.668 40.561 63.3321 41.1446 63.3321 41.8645V55.0783C63.3321 55.7982 62.668 56.3819 61.8489 56.3819C61.0297 56.3819 60.3657 55.7982 60.3657 55.0783V41.8645C60.3657 41.1446 61.0297 40.561 61.8489 40.561Z" fill="#323B5E"/>
<path fill-rule="evenodd" clip-rule="evenodd" d="M109.311 40.561C110.13 40.561 110.795 41.1446 110.795 41.8645V55.0783C110.795 55.7982 110.13 56.3819 109.311 56.3819C108.492 56.3819 107.828 55.7982 107.828 55.0783V41.8645C107.828 41.1446 108.492 40.561 109.311 40.561Z" fill="#323B5E"/>
<path fill-rule="evenodd" clip-rule="evenodd" d="M132.551 95.3855C137.078 93.563 142.111 93.481 146.694 95.1554C151.277 96.8297 155.087 100.142 157.402 104.46C159.717 108.777 160.378 113.801 159.261 118.576C158.143 123.352 155.324 127.55 151.335 130.371C147.346 133.192 142.467 134.437 137.624 133.869C132.781 133.301 128.317 130.958 125.079 127.291C121.841 123.623 120.053 118.886 120.053 113.98H123.02C123.02 118.166 124.545 122.204 127.302 125.327C130.06 128.45 133.856 130.44 137.97 130.923C142.083 131.406 146.23 130.348 149.623 127.949C153.016 125.549 155.419 121.974 156.373 117.9C157.326 113.827 156.761 109.542 154.788 105.862C152.814 102.182 149.571 99.3646 145.676 97.9417C141.782 96.5189 137.506 96.5884 133.659 98.1372C129.812 99.6861 126.66 102.608 124.805 106.35L122.147 105.033C124.323 100.642 128.025 97.2078 132.551 95.3855Z" fill="#323B5E"/>
<path d="M137.521 115.195C137.247 114.919 137.082 114.536 137.091 114.117L137.335 103.348C137.354 102.529 138.033 101.88 138.852 101.899C139.671 101.918 140.319 102.597 140.301 103.416L140.072 113.506L145.408 117.918C146.039 118.44 146.132 119.378 145.615 120.013C145.098 120.649 144.167 120.741 143.536 120.219L137.756 115.44C137.667 115.366 137.588 115.284 137.521 115.195Z" fill="#323B5E"/>
<path d="M132.495 95.2478C137.056 93.4116 142.127 93.3291 146.745 95.016C151.362 96.7029 155.2 100.04 157.532 104.39C158.079 105.41 158.535 106.47 158.897 107.556H155.42C155.195 107.004 154.941 106.462 154.656 105.932C152.7 102.284 149.485 99.4912 145.625 98.0809C141.765 96.6707 137.527 96.7396 133.714 98.2747C131.122 99.318 128.849 100.99 127.081 103.118L130.09 102.503C130.892 102.339 131.674 102.857 131.835 103.66C131.996 104.463 131.477 105.247 130.674 105.411L124.321 106.71C124.148 106.81 123.952 106.877 123.741 106.901C122.927 106.993 122.194 106.407 122.103 105.593L122.035 104.978L122.014 104.967C122.019 104.956 122.025 104.944 122.03 104.933L121.329 98.6057C121.239 97.7915 121.825 97.0572 122.639 96.9654C123.453 96.8736 124.186 97.4592 124.277 98.2734L124.581 101.021C126.689 98.4868 129.401 96.4935 132.495 95.2478Z" fill="#E21521"/>
<path fill-rule="evenodd" clip-rule="evenodd" d="M51.4665 86.3426C51.4665 85.6326 52.042 85.0571 52.7519 85.0571H62.0467C62.7566 85.0571 63.3321 85.6326 63.3321 86.3426C63.3321 87.0525 62.7566 87.628 62.0467 87.628H52.7519C52.042 87.628 51.4665 87.0525 51.4665 86.3426ZM52.4553 90.2978C52.4553 89.5878 53.0308 89.0123 53.7407 89.0123H70.9459C71.6558 89.0123 72.2313 89.5878 72.2313 90.2978C72.2313 91.0077 71.6558 91.5832 70.9459 91.5832H53.7407C53.0308 91.5832 52.4553 91.0077 52.4553 90.2978Z" fill="#323B5E"/>
<path fill-rule="evenodd" clip-rule="evenodd" d="M87.8787 27.9334C87.5054 27.9334 87.1329 27.9369 86.7613 27.9437L86.7371 26.635C87.1168 26.628 87.4973 26.6245 87.8787 26.6245C88.2546 26.6245 88.6297 26.6279 89.004 26.6347L88.9802 27.9434C88.6138 27.9368 88.2466 27.9334 87.8787 27.9334ZM93.3619 28.1834C92.6362 28.1169 91.9067 28.0635 91.1736 28.0234L91.2451 26.7164C91.9942 26.7574 92.7397 26.812 93.4813 26.8799L93.3619 28.1834ZM84.5287 28.0264C83.7825 28.0679 83.04 28.1232 82.3015 28.192L82.18 26.8888C82.9348 26.8184 83.6935 26.7619 84.456 26.7195L84.5287 28.0264ZM97.719 28.7455C96.999 28.6254 96.2746 28.5182 95.5461 28.4242L95.7136 27.126C96.4582 27.2221 97.1985 27.3316 97.9344 27.4544L97.719 28.7455ZM80.0824 28.4409C79.3417 28.5381 78.6053 28.649 77.8735 28.7733L77.6543 27.4828C78.4024 27.3558 79.155 27.2425 79.9121 27.1431L80.0824 28.4409ZM102.019 29.6286C101.31 29.4553 100.596 29.2947 99.8776 29.1471L100.141 27.8649C100.876 28.0158 101.605 28.1799 102.33 28.3571L102.019 29.6286ZM75.679 29.1887C74.9484 29.3414 74.2227 29.5075 73.5022 29.6868L73.1861 28.4166C73.9226 28.2333 74.6644 28.0635 75.4113 27.9074L75.679 29.1887ZM106.241 30.8291C105.547 30.6033 104.847 30.39 104.141 30.1894L104.499 28.9304C105.22 29.1355 105.936 29.3535 106.646 29.5843L106.241 30.8291ZM71.3459 30.2669C70.6292 30.4744 69.9181 30.6951 69.2128 30.9286L68.8014 29.6861C69.5223 29.4473 70.2492 29.2218 70.9819 29.0097L71.3459 30.2669ZM110.364 32.3416C109.688 32.0645 109.005 31.7996 108.317 31.547L108.768 30.3182C109.471 30.5763 110.169 30.8472 110.86 31.1305L110.364 32.3416ZM67.1064 31.6707C66.4078 31.9318 65.7155 32.2057 65.0297 32.4921L64.5253 31.2843C65.2263 30.9915 65.934 30.7115 66.6481 30.4446L67.1064 31.6707ZM114.362 34.1564C113.708 33.8297 113.047 33.5148 112.38 33.2119L112.921 32.02C113.603 32.3296 114.278 32.6516 114.947 32.9854L114.362 34.1564ZM62.9856 33.3915C62.3091 33.7046 61.6395 34.03 60.9771 34.3676L60.3828 33.2013C61.0599 32.8563 61.7444 32.5237 62.4359 32.2036L62.9856 33.3915ZM118.213 36.2627C117.585 35.8884 116.95 35.5253 116.307 35.1738L116.935 34.0254C117.592 34.3847 118.242 34.7557 118.884 35.1383L118.213 36.2627ZM59.0065 35.4189C58.3557 35.7821 57.7125 36.1572 57.077 36.5438L56.3966 35.4257C57.0461 35.0305 57.7035 34.6471 58.3687 34.2759L59.0065 35.4189ZM121.9 38.6488C121.301 38.2289 120.694 37.8197 120.079 37.4217L120.79 36.3229C121.419 36.7297 122.039 37.1478 122.651 37.577L121.9 38.6488ZM55.1913 37.7405C54.5698 38.1515 53.9566 38.5738 53.3518 39.0072L52.5893 37.9433C53.2074 37.5004 53.8342 37.0687 54.4693 36.6487L55.1913 37.7405ZM125.4 41.3002C124.833 40.8372 124.258 40.3845 123.674 39.9423L124.465 38.8989C125.061 39.3508 125.649 39.8135 126.228 40.2867L125.4 41.3002ZM51.5611 40.3421C51.2668 40.5702 50.9747 40.801 50.6848 41.0344L49.8638 40.0151C50.16 39.7765 50.4585 39.5406 50.7593 39.3075L51.5611 40.3421ZM128.696 44.2019C128.164 43.6984 127.624 43.2046 127.075 42.7207L127.94 41.7384C128.501 42.2328 129.053 42.7375 129.596 43.252L128.696 44.2019ZM131.769 47.3382C131.276 46.7968 130.774 46.2646 130.261 45.7418L131.196 44.8257C131.72 45.3599 132.233 45.9038 132.737 46.4571L131.769 47.3382ZM134.604 50.6917C134.152 50.1155 133.69 49.5478 133.217 48.9889L134.217 48.1439C134.7 48.7151 135.172 49.2952 135.634 49.8842L134.604 50.6917ZM137.184 54.2448C136.775 53.6366 136.356 53.0364 135.926 52.4445L136.985 51.6754C137.425 52.2804 137.853 52.8938 138.27 53.5154L137.184 54.2448ZM139.494 57.979C139.132 57.342 138.758 56.7124 138.373 56.0905L139.486 55.4017C139.88 56.0374 140.262 56.6809 140.632 57.3319L139.494 57.979ZM141.522 61.8729C141.208 61.2109 140.882 60.5556 140.544 59.9073L141.705 59.3028C142.05 59.9654 142.383 60.6353 142.704 61.312L141.522 61.8729ZM143.254 65.9068C142.99 65.2228 142.714 64.5451 142.425 63.8737L143.628 63.3571C143.923 64.0434 144.205 64.7362 144.475 65.4353L143.254 65.9068ZM144.682 70.0595C144.469 69.3572 144.244 68.6605 144.007 67.9696L145.244 67.544C145.487 68.2503 145.717 68.9625 145.935 69.6804L144.682 70.0595ZM145.796 74.3055C145.636 73.5896 145.464 72.8786 145.279 72.1727L146.545 71.8406C146.734 72.5621 146.91 73.289 147.073 74.0208L145.796 74.3055ZM146.422 77.5402C146.363 77.1779 146.3 76.8166 146.233 76.4564L147.521 76.2194C147.588 76.5875 147.653 76.9568 147.714 77.3272L146.422 77.5402ZM27.2399 88.2589C27.2346 87.9303 27.232 87.601 27.232 87.2712H28.5409C28.5409 87.5941 28.5435 87.9163 28.5486 88.238L27.2399 88.2589ZM27.4298 92.2046C27.3771 91.5503 27.3348 90.8931 27.3031 90.2332L28.6105 90.1703C28.6416 90.8162 28.6829 91.4593 28.7345 92.0995L27.4298 92.2046ZM27.8745 96.1302C27.7794 95.4804 27.6946 94.8273 27.6202 94.171L28.9208 94.0237C28.9936 94.6658 29.0766 95.3049 29.1696 95.9406L27.8745 96.1302ZM28.3754 99.051C28.3119 98.7283 28.2509 98.4047 28.1925 98.0802L29.4808 97.8484C29.5379 98.1659 29.5975 98.4825 29.6597 98.7982C29.729 99.1505 29.8015 99.5018 29.8771 99.8519L28.5976 100.128C28.5204 99.7702 28.4463 99.4112 28.3754 99.051ZM29.6793 104.381C29.4737 103.681 29.2805 102.975 29.0997 102.265L30.3683 101.942C30.5451 102.637 30.7341 103.327 30.9352 104.012L29.6793 104.381ZM31.0687 108.546C30.8124 107.862 30.568 107.172 30.3359 106.476L31.5776 106.062C31.8046 106.742 32.0437 107.418 32.2944 108.087L31.0687 108.546ZM32.7577 112.598C32.4522 111.934 32.1583 111.264 31.8764 110.588L33.0845 110.084C33.3604 110.746 33.6479 111.402 33.9467 112.051L32.7577 112.598ZM34.7364 116.516C34.3834 115.876 34.0417 115.229 33.7115 114.575L34.8798 113.985C35.2029 114.625 35.5372 115.258 35.8825 115.884L34.7364 116.516ZM36.994 120.281C36.5954 119.668 36.2077 119.047 35.8309 118.419L36.9535 117.745C37.3221 118.36 37.7015 118.967 38.0914 119.567L36.994 120.281ZM39.5177 123.872C39.0759 123.289 38.6444 122.698 38.2235 122.099L39.2944 121.347C39.7063 121.933 40.1285 122.511 40.5608 123.082L39.5177 123.872ZM42.2934 127.272C41.8107 126.723 41.3378 126.164 40.8749 125.597L41.8889 124.77C42.3418 125.324 42.8045 125.871 43.2769 126.409L42.2934 127.272ZM45.3065 130.464C44.7854 129.95 44.2735 129.427 43.7712 128.895L44.723 127.997C45.2145 128.517 45.7154 129.029 46.2253 129.532L45.3065 130.464ZM48.5412 133.431C47.9844 132.956 47.4363 132.471 46.8972 131.977L47.7819 131.012C48.3095 131.496 48.8458 131.97 49.3906 132.435L48.5412 133.431ZM51.981 136.157C51.3912 135.724 50.8097 135.279 50.2365 134.825L51.0495 133.799C51.6104 134.244 52.1795 134.679 52.7565 135.103L51.981 136.157ZM125.15 135.117C124.857 135.345 124.562 135.571 124.265 135.794L123.479 134.748C123.769 134.529 124.058 134.308 124.345 134.085L125.15 135.117ZM122.457 137.101C121.848 137.525 121.229 137.938 120.604 138.34L119.896 137.238C120.509 136.845 121.113 136.441 121.71 136.026L122.457 137.101ZM55.6087 138.629C54.989 138.239 54.3768 137.838 53.7724 137.426L54.5094 136.344C55.1008 136.747 55.6998 137.14 56.3061 137.521L55.6087 138.629ZM118.705 139.51C118.066 139.888 117.419 140.255 116.765 140.61L116.141 139.459C116.781 139.112 117.414 138.753 118.039 138.383L118.705 139.51ZM59.4055 140.832C58.7591 140.487 58.1196 140.132 57.4874 139.765L58.1443 138.633C58.7628 138.992 59.3884 139.34 60.0209 139.677L59.4055 140.832ZM114.786 141.637C114.121 141.967 113.449 142.285 112.77 142.591L112.232 141.397C112.896 141.098 113.554 140.787 114.204 140.464L114.786 141.637ZM63.3518 142.753C62.6817 142.457 62.0181 142.148 61.3611 141.828L61.9342 140.652C62.5769 140.965 63.2262 141.266 63.8816 141.556L63.3518 142.753ZM110.72 143.469C110.033 143.749 109.339 144.016 108.639 144.271L108.191 143.041C108.876 142.792 109.555 142.53 110.227 142.257L110.72 143.469ZM67.4282 144.383C66.7379 144.136 66.0534 143.877 65.375 143.605L65.8609 142.39C66.5246 142.655 67.1942 142.909 67.8695 143.151L67.4282 144.383ZM106.53 144.996C105.824 145.224 105.112 145.439 104.395 145.641L104.04 144.382C104.741 144.184 105.437 143.973 106.128 143.75L106.53 144.996ZM71.6127 145.712C70.9061 145.515 70.2048 145.307 69.5088 145.086L69.9049 143.838C70.5857 144.054 71.2718 144.258 71.963 144.45L71.6127 145.712ZM102.238 146.208C101.518 146.383 100.792 146.545 100.062 146.694L99.8005 145.411C100.515 145.265 101.225 145.107 101.93 144.936L102.238 146.208ZM75.8812 146.731C75.1619 146.587 74.4473 146.43 73.7375 146.26L74.0416 144.987C74.736 145.153 75.4351 145.307 76.1387 145.448L75.8812 146.731ZM97.869 147.099C97.1378 147.22 96.4021 147.328 95.6623 147.423L95.4959 146.125C96.2198 146.032 96.9395 145.926 97.655 145.808L97.869 147.099ZM80.2143 147.438C79.4857 147.346 78.7612 147.241 78.041 147.124L78.2517 145.832C78.9564 145.947 79.6652 146.05 80.3781 146.139L80.2143 147.438ZM93.4461 147.666C92.7086 147.733 91.9672 147.787 91.2223 147.827L91.1513 146.52C91.8803 146.481 92.6058 146.428 93.3274 146.362L93.4461 147.666ZM84.5858 147.83C83.8531 147.791 83.1239 147.739 82.3983 147.674L82.5151 146.37C83.2251 146.433 83.9387 146.485 84.6558 146.523L84.5858 147.83ZM88.9938 147.908C88.6229 147.914 88.2512 147.918 87.8787 147.918C87.511 147.918 87.1441 147.915 86.778 147.908L86.8013 146.599C87.1597 146.606 87.5188 146.609 87.8787 146.609C88.2433 146.609 88.6072 146.606 88.9702 146.599L88.9938 147.908Z" fill="#E5E7EF"/>
<path fill-rule="evenodd" clip-rule="evenodd" d="M86.1342 14.8441C85.7756 14.8441 85.4175 14.8466 85.0601 14.8517L85.0414 13.5429C85.4051 13.5378 85.7694 13.5352 86.1342 13.5352C86.5052 13.5352 86.8755 13.5378 87.2452 13.5432L87.2262 14.852C86.8629 14.8467 86.4989 14.8441 86.1342 14.8441ZM82.9156 14.913C82.1991 14.9437 81.4852 14.9846 80.7741 15.0357L80.6805 13.7301C81.404 13.6782 82.1304 13.6365 82.8595 13.6052L82.9156 14.913ZM91.5884 15.0425C90.8647 14.9896 90.138 14.9472 89.4086 14.9154L89.4657 13.6077C90.2079 13.6401 90.9473 13.6832 91.6837 13.737L91.5884 15.0425ZM78.6363 15.2201C77.9227 15.2921 77.2121 15.3742 76.5046 15.4663L76.3356 14.1684C77.0555 14.0746 77.7787 13.991 78.505 13.9178L78.6363 15.2201ZM95.9315 15.4884C95.2119 15.393 94.4891 15.3079 93.7632 15.2334L93.8968 13.9313C94.6356 14.0072 95.3712 14.0937 96.1035 14.1908L95.9315 15.4884ZM74.3814 15.7744C73.6736 15.8876 72.9692 16.0109 72.2684 16.144L72.024 14.8581C72.7374 14.7226 73.4543 14.5971 74.1746 14.4819L74.3814 15.7744ZM100.24 16.1901C99.5276 16.0522 98.8111 15.9245 98.0912 15.8073L98.3016 14.5154C99.0343 14.6347 99.7635 14.7647 100.489 14.905L100.24 16.1901ZM70.1673 16.5752C69.4675 16.7295 68.7713 16.8937 68.0791 17.0677L67.76 15.7983C68.4646 15.6211 69.1732 15.454 69.8855 15.2969L70.1673 16.5752ZM104.5 17.1465C103.796 16.9664 103.089 16.7963 102.377 16.6366L102.664 15.3595C103.388 15.5221 104.108 15.6951 104.825 15.8784L104.5 17.1465ZM66.0062 17.6211C65.3168 17.816 64.6316 18.0207 63.9506 18.235L63.5578 16.9864C64.2509 16.7683 64.9484 16.56 65.6501 16.3616L66.0062 17.6211ZM108.695 18.3547C108.003 18.1329 107.307 17.9211 106.606 17.7193L106.969 16.4615C107.682 16.6669 108.39 16.8825 109.094 17.1083L108.695 18.3547ZM61.9142 18.9086C61.2377 19.1435 60.5656 19.3879 59.8982 19.6417L59.4329 18.4183C60.1123 18.1599 60.7963 17.9112 61.4849 17.6721L61.9142 18.9086ZM111.79 19.4237C111.449 19.2974 111.107 19.1735 110.764 19.0521L111.2 17.8181C111.549 17.9417 111.898 18.0678 112.245 18.1964L111.79 19.4237ZM57.9041 20.4336C57.2426 20.7076 56.586 20.9909 55.9343 21.2835L55.3983 20.0893C56.0616 19.7916 56.73 19.5032 57.4033 19.2243L57.9041 20.4336ZM53.9903 22.1904C53.3461 22.5024 52.7071 22.8236 52.0735 23.1537L51.4688 21.9928C52.1136 21.6569 52.764 21.33 53.4197 21.0124L53.9903 22.1904ZM50.1853 24.1726C49.5605 24.5216 48.9412 24.8795 48.3277 25.2459L47.6565 24.1223C48.2808 23.7493 48.9111 23.3851 49.547 23.0298L50.1853 24.1726ZM46.5022 26.3728C45.8988 26.7575 45.3014 27.1507 44.7101 27.5522L43.9748 26.4694C44.5765 26.0607 45.1845 25.6606 45.7986 25.2691L46.5022 26.3728ZM42.9528 28.7832C42.3728 29.2022 41.7992 29.6294 41.232 30.0646L40.4352 29.0261C41.0123 28.5832 41.5961 28.1485 42.1864 27.7222L42.9528 28.7832ZM39.549 31.3951C38.9943 31.8469 38.4463 32.3065 37.9051 32.7739L37.0496 31.7832C37.6003 31.3076 38.158 30.8399 38.7225 30.3802L39.549 31.3951ZM36.3017 34.1995C36.0379 34.441 35.7759 34.6843 35.5157 34.9296L34.618 33.9769C34.8829 33.7274 35.1495 33.4797 35.4179 33.234L36.3017 34.1995ZM11.0046 89.5077C11.0015 89.2286 11 88.9492 11 88.6694H12.3089C12.3089 88.9444 12.3104 89.2191 12.3134 89.4934L11.0046 89.5077ZM11.0735 92.0216C11.0612 91.7427 11.0505 91.4635 11.0413 91.1839L12.3495 91.1408C12.3585 91.4157 12.3691 91.6901 12.3811 91.9642C12.3968 92.3214 12.415 92.678 12.4358 93.034L11.1291 93.1102C11.108 92.748 11.0894 92.3851 11.0735 92.0216ZM11.5066 97.4411C11.4231 96.7231 11.3498 96.0019 11.2867 95.2779L12.5906 95.1642C12.6527 95.8758 12.7248 96.5844 12.8068 97.2899L11.5066 97.4411ZM12.1341 101.746C12.0091 101.034 11.8941 100.318 11.7893 99.5988L13.0845 99.41C13.1875 100.117 13.3005 100.82 13.4234 101.52L12.1341 101.746ZM13.0099 106.005C12.8437 105.301 12.6874 104.594 12.5411 103.882L13.8232 103.619C13.9669 104.317 14.1205 105.013 14.2838 105.704L13.0099 106.005ZM14.1331 110.208C13.9259 109.515 13.7284 108.817 13.5409 108.115L14.8055 107.777C14.9897 108.467 15.1837 109.152 15.3873 109.834L14.1331 110.208ZM15.4989 114.337C15.2517 113.657 15.0139 112.972 14.786 112.283L16.0286 111.872C16.2526 112.549 16.4862 113.222 16.7291 113.89L15.4989 114.337ZM17.1033 118.38C16.8166 117.715 16.5392 117.045 16.2714 116.37L17.488 115.887C17.7512 116.55 18.0237 117.209 18.3053 117.862L17.1033 118.38ZM18.9403 122.323C18.6155 121.676 18.2997 121.023 17.9932 120.365L19.1796 119.812C19.4808 120.459 19.791 121.1 20.1102 121.736L18.9403 122.323ZM21.0027 126.152C20.6409 125.524 20.2878 124.891 19.9438 124.252L21.0961 123.632C21.4342 124.259 21.7811 124.881 22.1366 125.498L21.0027 126.152ZM23.2841 129.855C22.8864 129.25 22.4972 128.638 22.1167 128.02L23.2311 127.334C23.605 127.941 23.9874 128.542 24.3782 129.137L23.2841 129.855ZM25.7751 133.42C25.3431 132.838 24.9193 132.25 24.5039 131.656L25.5768 130.906C25.985 131.49 26.4015 132.068 26.826 132.64L25.7751 133.42ZM28.4676 136.836C28.0027 136.28 27.5457 135.717 27.0967 135.147L28.1246 134.337C28.5658 134.897 29.0149 135.45 29.4718 135.996L28.4676 136.836ZM31.3523 140.09C30.8561 139.562 30.3675 139.026 29.8866 138.484L30.8661 137.616C31.3387 138.149 31.8189 138.675 32.3065 139.194L31.3523 140.09ZM34.4193 143.174C33.8935 142.675 33.3749 142.168 32.8636 141.654L33.7916 140.731C34.294 141.236 34.8037 141.734 35.3204 142.225L34.4193 143.174ZM37.6586 146.076C37.1049 145.608 36.558 145.132 36.0181 144.648L36.8915 143.673C37.422 144.149 37.9594 144.616 38.5036 145.076L37.6586 146.076ZM41.0596 148.787C40.4796 148.351 39.9062 147.907 39.3395 147.456L40.1554 146.432C40.7123 146.876 41.2757 147.312 41.8456 147.74L41.0596 148.787ZM44.6115 151.297C44.0072 150.896 43.4091 150.486 42.8174 150.067L43.5728 148.999C44.1543 149.41 44.742 149.812 45.3358 150.207L44.6115 151.297ZM48.3019 153.598C47.6755 153.232 47.0548 152.857 46.44 152.474L47.1325 151.363C47.7365 151.74 48.3464 152.108 48.962 152.467L48.3019 153.598ZM52.12 155.681C51.4731 155.352 50.8317 155.014 50.1957 154.667L50.8227 153.518C51.4475 153.859 52.0778 154.191 52.7134 154.515L52.12 155.681ZM56.0526 157.539C55.3878 157.249 54.7279 156.948 54.0733 156.639L54.6325 155.456C55.2757 155.76 55.9239 156.054 56.5771 156.34L56.0526 157.539ZM59.07 158.781C58.7313 158.651 58.3938 158.517 58.0574 158.382L58.5468 157.168C58.8773 157.301 59.2089 157.432 59.5417 157.56L59.07 158.781Z" fill="#E5E7EF"/>
<path fill-rule="evenodd" clip-rule="evenodd" d="M161.483 86.7209C160.391 56.1984 140.649 30.4243 113.306 20.4546L113.904 18.8149C141.895 29.0211 162.109 55.4057 163.227 86.6586C163.259 87.5653 163.275 88.476 163.275 89.3905H161.53C161.53 88.4968 161.514 87.6069 161.483 86.7209ZM88.1773 162.743C107.887 162.743 125.78 154.971 138.96 142.322L140.169 143.581C126.676 156.53 108.355 164.489 88.1773 164.489C78.6846 164.489 69.6013 162.727 61.238 159.512L61.8642 157.883C70.0309 161.022 78.9021 162.743 88.1773 162.743Z" fill="#E5E7EF"/>
<path d="M102.926 16.2945C102.926 18.5456 101.089 20.3705 98.8221 20.3705C96.5554 20.3705 94.7179 18.5456 94.7179 16.2945C94.7179 14.0434 96.5554 12.2185 98.8221 12.2185C101.089 12.2185 102.926 14.0434 102.926 16.2945Z" fill="white"/>
<path fill-rule="evenodd" clip-rule="evenodd" d="M98.8221 12.9257C96.9412 12.9257 95.4249 14.4386 95.4249 16.2947C95.4249 18.1507 96.9412 19.6637 98.8221 19.6637C100.703 19.6637 102.219 18.1507 102.219 16.2947C102.219 14.4386 100.703 12.9257 98.8221 12.9257ZM94.0109 16.2947C94.0109 13.6485 96.1695 11.5117 98.8221 11.5117C101.475 11.5117 103.633 13.6485 103.633 16.2947C103.633 18.9408 101.475 21.0777 98.8221 21.0777C96.1695 21.0777 94.0109 18.9408 94.0109 16.2947Z" fill="#E5E7EF"/>
<path d="M77.2286 16.4956C77.2286 18.2405 75.8042 19.6551 74.0472 19.6551C72.2902 19.6551 70.8659 18.2405 70.8659 16.4956C70.8659 14.7507 72.2902 13.3362 74.0472 13.3362C75.8042 13.3362 77.2286 14.7507 77.2286 16.4956Z" fill="white"/>
<path fill-rule="evenodd" clip-rule="evenodd" d="M74.0472 14.0429C72.676 14.0429 71.5729 15.1455 71.5729 16.4953C71.5729 17.8452 72.676 18.9478 74.0472 18.9478C75.4184 18.9478 76.5215 17.8452 76.5215 16.4953C76.5215 15.1455 75.4184 14.0429 74.0472 14.0429ZM70.1589 16.4953C70.1589 14.3554 71.9044 12.6289 74.0472 12.6289C76.1901 12.6289 77.9355 14.3554 77.9355 16.4953C77.9355 18.6353 76.1901 20.3617 74.0472 20.3617C71.9044 20.3617 70.1589 18.6353 70.1589 16.4953Z" fill="#E5E7EF"/>
<path d="M53.5204 24.4387C53.5204 25.9046 52.3238 27.093 50.8477 27.093C49.3716 27.093 48.175 25.9046 48.175 24.4387C48.175 22.9728 49.3716 21.7844 50.8477 21.7844C52.3238 21.7844 53.5204 22.9728 53.5204 24.4387Z" fill="white"/>
<path fill-rule="evenodd" clip-rule="evenodd" d="M50.8477 22.4916C49.7575 22.4916 48.882 23.3681 48.882 24.439C48.882 25.5098 49.7575 26.3863 50.8477 26.3863C51.938 26.3863 52.8135 25.5098 52.8135 24.439C52.8135 23.3681 51.938 22.4916 50.8477 22.4916ZM47.468 24.439C47.468 22.5779 48.9858 21.0776 50.8477 21.0776C52.7097 21.0776 54.2275 22.5779 54.2275 24.439C54.2275 26.3 52.7097 27.8003 50.8477 27.8003C48.9858 27.8003 47.468 26.3 47.468 24.439Z" fill="#E5E7EF"/>
</svg>
