<svg width="28" height="28" viewBox="0 0 28 28" fill="none" xmlns="http://www.w3.org/2000/svg">
<path fill-rule="evenodd" clip-rule="evenodd" d="M12.3274 18.6828C12.3274 20.5984 11.3883 21.5543 9.51139 21.5543H9.51014C7.63323 21.5543 6.69415 20.5971 6.69415 18.6828V2H2V18.6828C2 20.9398 2.68388 22.7226 4.0529 24.0351C5.42067 25.3463 7.26866 26.0013 9.51014 26.0013C11.7516 26.0013 13.5644 25.3463 14.9473 24.0351C16.3288 22.7239 17.0215 20.9398 17.0215 18.6828V2H12.3274V18.6828ZM25.3689 6.35847C24.9478 5.91972 24.4311 5.69971 23.8226 5.69971V5.70097H23.7799C23.184 5.70097 22.6724 5.92098 22.2449 6.35974C21.8162 6.79849 21.6025 7.30552 21.6025 7.92383C21.6025 8.54213 21.8162 9.06307 22.2449 9.48792C22.6724 9.9115 23.1991 10.1239 23.8226 10.1239C24.4462 10.1239 24.9654 9.91908 25.379 9.50941C25.7926 9.09974 26 8.59776 26 7.96555C26 7.33334 25.7901 6.79723 25.3689 6.35847ZM25.3739 16.4916C24.9553 16.0591 24.4462 15.8442 23.8453 15.8442H23.8013C23.1991 15.8442 22.6824 16.0692 22.25 16.5143C21.8162 16.9594 21.6013 17.5183 21.6013 18.11C21.6013 18.7018 21.8175 19.2075 22.25 19.6324C22.6824 20.056 23.2154 20.2684 23.8453 20.2684C24.4462 20.2684 24.9553 20.0496 25.3739 19.6109C25.7913 19.1721 26.0013 18.6423 26.0013 18.024C26.0013 17.4335 25.7913 16.9227 25.3739 16.4916Z" fill="#E21521"/>
</svg>
