<svg width="80" height="80" viewBox="0 0 80 80" fill="none" xmlns="http://www.w3.org/2000/svg">
<path fill-rule="evenodd" clip-rule="evenodd" d="M52.2222 7.20086L50.3909 14.4445L48.8889 13.9103L50.7203 6.66671L52.2222 7.20086Z" fill="#323B5E"/>
<path fill-rule="evenodd" clip-rule="evenodd" d="M59.7426 11.5792L54.6512 17.0354L53.5962 15.8369L58.6876 10.3807L59.7426 11.5792Z" fill="#323B5E"/>
<path fill-rule="evenodd" clip-rule="evenodd" d="M42.1577 6.08583L43.0997 13.5003L44.655 13.1537L43.7129 5.73926L42.1577 6.08583Z" fill="#323B5E"/>
<path fill-rule="evenodd" clip-rule="evenodd" d="M57.0179 38.5642C54.2133 38.2996 51.2067 38.7545 49.3065 39.2585L48.8379 37.4999C50.8849 36.957 54.1144 36.4625 57.1896 36.7525C60.2288 37.0392 63.4026 38.1274 64.8801 41.0382L64.8901 41.0579L64.8991 41.078C65.2837 41.9366 65.8009 44.2347 65.425 47.4664C65.3727 47.9165 65.296 48.7346 65.1965 49.7956C64.973 52.1789 64.6346 55.7878 64.1993 59.2036C63.8814 61.6978 63.5044 64.161 63.0667 66.0923C62.8485 67.0552 62.6088 67.9151 62.3428 68.5906C62.2098 68.9282 62.0613 69.2431 61.8921 69.5099C61.73 69.7655 61.5072 70.0445 61.1987 70.2298C58.6656 71.7511 56.2229 72.7013 53.4764 73.1062C50.741 73.5095 47.7516 73.3648 44.1351 72.7594L43.8145 72.7057L43.6002 72.4618C42.8468 71.6042 42.3563 70.976 42.2468 70.0936C42.197 69.6922 42.2307 69.2789 42.2784 68.8501C42.2967 68.6863 42.317 68.5201 42.3388 68.3422C42.3785 68.018 42.4229 67.6552 42.4678 67.1985C42.7861 63.9638 43.7996 57.9599 44.5265 54.8249C44.5971 54.3151 44.8332 53.6853 45.1402 53.0643C45.4692 52.3987 45.9189 51.6647 46.4589 50.9724C47.4971 49.6412 49.0462 48.2409 50.8756 48.1105L51.0055 49.9256C49.9873 49.9982 48.8634 50.8526 47.8983 52.09C47.4365 52.682 47.052 53.3107 46.7759 53.8692C46.4892 54.4492 46.3554 54.8809 46.331 55.0909L46.3251 55.142L46.3134 55.1922C45.6024 58.2428 44.5945 64.2104 44.2829 67.3763C44.2364 67.8485 44.1858 68.2635 44.1444 68.6027C44.1238 68.7717 44.1055 68.9218 44.0911 69.051C44.0442 69.4727 44.0357 69.6993 44.0569 69.87C44.0861 70.1059 44.1735 70.3278 44.7602 71.0179C48.1175 71.559 50.8061 71.6604 53.2098 71.3061C55.6741 70.9427 57.886 70.0934 60.2438 68.6793C60.2506 68.6723 60.2887 68.635 60.3508 68.537C60.4368 68.4014 60.5367 68.2008 60.6452 67.9252C60.8622 67.3741 61.0781 66.6163 61.2878 65.691C61.7059 63.846 62.0743 61.4515 62.39 58.9741C62.8238 55.5701 63.1444 52.1419 63.3656 49.7768C63.4697 48.6633 63.5518 47.7854 63.6133 47.2566C63.9574 44.2985 63.4652 42.3569 63.2421 41.839C62.1921 39.7957 59.8488 38.8312 57.0179 38.5642Z" fill="#323B5E"/>
<path fill-rule="evenodd" clip-rule="evenodd" d="M49.3561 39.3066C51.2505 38.7932 54.2479 38.3299 57.044 38.5993C59.8662 38.8713 62.2024 39.8537 63.2492 41.9349C63.4715 42.4623 63.9623 44.44 63.6193 47.4529C63.558 47.9915 63.4761 48.8856 63.3723 50.0198C63.1623 52.3132 62.8625 55.5882 62.4611 58.8889H64.293C64.684 55.6342 64.9903 52.2968 65.1976 50.0391C65.2967 48.9584 65.3732 48.125 65.4254 47.6666C65.8002 44.375 65.2846 42.0343 64.9011 41.1598L64.8921 41.1393L64.8822 41.1192C63.4091 38.1545 60.245 37.0461 57.2151 36.7541C54.1493 36.4587 50.9296 36.9623 48.8889 37.5153L49.3561 39.3066Z" fill="#E21521"/>
<path fill-rule="evenodd" clip-rule="evenodd" d="M42.1504 23.0246C42.108 22.3339 42.1809 21.344 42.4843 20.5926C42.633 20.2244 42.8138 19.9711 43.0076 19.8198C43.1819 19.6838 43.4158 19.59 43.7814 19.6211C45.1963 19.7415 46.2796 19.969 47.1063 20.487C47.8897 20.9779 48.5404 21.7937 48.9493 23.324C49.7902 26.4714 48.945 28.9829 48.6605 29.6803C48.5821 29.8726 48.515 30.1654 48.4585 30.4366C48.3955 30.739 48.3258 31.1178 48.2531 31.5413C48.1075 32.3896 47.9451 33.4439 47.7937 34.4805C47.6422 35.518 47.5009 36.5433 47.3972 37.3355C47.3455 37.7313 47.3028 38.0713 47.273 38.3266C47.2474 38.5451 47.2211 38.7791 47.2211 38.8985C47.2211 38.9211 47.2234 38.969 47.2267 39.0401C47.2637 39.8301 47.4349 43.484 46.1491 47.1179C45.4541 49.0823 44.3484 50.9873 42.6047 52.4089C40.8717 53.8217 38.4425 54.8114 34.9976 54.8431L35.0138 56.6804C38.8112 56.6455 41.6426 55.5439 43.7266 53.8449C45.7999 52.1546 47.0676 49.9271 47.8406 47.7424C48.613 45.5595 48.9045 43.3839 49.0057 41.7411C49.0564 40.9168 49.0597 40.22 49.0501 39.7147C49.0453 39.4619 49.0373 39.2572 49.0306 39.1093C49.0237 38.9593 49.0208 38.9113 49.02 38.9008C49.0204 38.899 49.0216 38.8876 49.0239 38.8646C49.0288 38.8156 49.039 38.7145 49.0588 38.5446C49.0873 38.3011 49.1288 37.9703 49.18 37.5788C49.2823 36.7963 49.4224 35.7803 49.5726 34.7516C49.723 33.722 49.8828 32.685 50.0247 31.8587C50.0957 31.4448 50.1611 31.0904 50.2177 30.819C50.246 30.683 50.2708 30.5742 50.2917 30.4924C50.3078 30.429 50.3178 30.3972 50.3209 30.3875C50.3216 30.3853 50.3219 30.3842 50.3219 30.3842L50.3209 30.3875C50.6889 29.4853 51.6704 26.5306 50.6844 22.8402C50.1798 20.9517 49.2936 19.7021 48.0467 18.9208C46.8432 18.1667 45.4028 17.9154 43.9307 17.7901C43.1416 17.7229 42.4608 17.9344 41.9157 18.3598C41.3901 18.77 41.0468 19.3342 40.8216 19.8921C40.3879 20.9662 40.307 22.2267 40.3518 23.0769C40.0275 27.8124 39.2662 30.5689 38.8074 32.2303L38.807 32.2317C38.7703 32.3645 38.7356 32.4903 38.7032 32.6095C38.5803 33.0615 38.2793 33.5212 37.897 33.9334C37.5694 34.2866 37.2245 34.5594 36.9902 34.7164C29.5594 36.7529 25.3734 42.2175 23.9715 45.1733L23.9449 45.1757C23.6164 45.2052 23.1404 45.2305 22.5519 45.2547C21.9968 45.2775 21.3559 45.2987 20.6658 45.3215L20.5536 45.3252C19.8224 45.3494 19.0408 45.3755 18.2595 45.4072C16.9202 45.4615 15.5624 45.5326 14.4445 45.6409V47.4869C15.5324 47.3749 16.9184 47.3003 18.3308 47.2431C19.1047 47.2117 19.8802 47.1858 20.6118 47.1616L20.7267 47.1578C21.4141 47.1351 22.0616 47.1136 22.6242 47.0905C23.2145 47.0663 23.7275 47.0396 24.1021 47.0061C24.2855 46.9896 24.4612 46.9694 24.6043 46.9418C24.6716 46.9289 24.768 46.9076 24.8659 46.8705C24.9137 46.8524 24.9952 46.8182 25.0831 46.7587C25.1549 46.71 25.3293 46.5793 25.4307 46.3316C26.4364 43.9122 30.3189 38.3968 37.5796 36.4576L37.7037 36.4245L37.8138 36.3572C38.1777 36.1348 38.7083 35.7302 39.2027 35.1971C39.6926 34.6688 40.2047 33.9525 40.4361 33.1013C40.4685 32.9823 40.5033 32.8563 40.5401 32.723C41.011 31.0173 41.8153 28.1037 42.1501 23.1453L42.1542 23.085L42.1504 23.0246ZM14.4445 67.2394V69.0788C16.8435 68.9643 19.6605 68.6833 24.1125 67.9935C25.0525 69.5361 26.9257 71.038 29.7758 72.048C33.0288 73.2009 37.6255 73.7441 43.8131 72.9755L43.596 71.1516C37.6041 71.8959 33.2956 71.3507 30.3652 70.3122C27.4161 69.267 25.9306 67.7523 25.4198 66.6067L25.1373 65.9732L24.4639 66.0797C19.7733 66.8212 16.8807 67.1194 14.4445 67.2394Z" fill="#323B5E"/>
</svg>
