<svg width="80" height="80" viewBox="0 0 80 80" fill="none" xmlns="http://www.w3.org/2000/svg">
<path fill-rule="evenodd" clip-rule="evenodd" d="M39.4445 9.94764C35.1768 9.94764 31.7172 13.4073 31.7172 17.6749C31.7172 21.9426 35.1768 25.4022 39.4445 25.4022C43.7121 25.4022 47.1717 21.9426 47.1717 17.6749C47.1717 13.4073 43.7121 9.94764 39.4445 9.94764ZM30 17.6749C30 12.4589 34.2284 8.23047 39.4445 8.23047C44.6605 8.23047 48.8889 12.4589 48.8889 17.6749C48.8889 22.8909 44.6605 27.1194 39.4445 27.1194C34.2284 27.1194 30 22.8909 30 17.6749Z" fill="#323B5E"/>
<path fill-rule="evenodd" clip-rule="evenodd" d="M40 32.6749C25.8861 32.6749 14.4445 44.1711 14.4445 58.3524V72.5193C14.4445 72.5712 14.4446 72.6231 14.4449 72.6749H16.2074C16.2071 72.6231 16.2069 72.5712 16.2069 72.5193V58.3524C16.2069 45.1491 26.8594 34.4458 40 34.4458C53.1406 34.4458 63.7931 45.1491 63.7931 58.3524V72.5193C63.7931 72.5712 63.7929 72.6231 63.7926 72.6749H65.5551C65.5554 72.6231 65.5556 72.5712 65.5556 72.5193V58.3524C65.5556 44.1711 54.114 32.6749 40 32.6749Z" fill="#323B5E"/>
<path fill-rule="evenodd" clip-rule="evenodd" d="M38.8889 32.6749C25.3119 33.1346 14.4445 44.4526 14.4445 58.3472V72.5193L14.4449 72.6749H16.19L16.1895 72.5192V58.3472C16.1895 45.431 26.2759 34.9064 38.8889 34.4475V32.6749Z" fill="#E21521"/>
<path fill-rule="evenodd" clip-rule="evenodd" d="M38.0762 44.0442C38.0446 44.0089 38.0138 43.9725 37.9839 43.935L36.6589 42.2768C35.3454 40.6328 36.5425 38.2301 38.6751 38.2301H41.3249C43.4576 38.2301 44.6546 40.6328 43.3411 42.2768L42.0162 43.935C41.9862 43.9725 41.9554 44.0089 41.9239 44.0442C42.2188 44.3454 42.4494 44.7334 42.5789 45.2081L46.5752 59.8677C46.8406 60.8412 46.5181 61.8785 45.7449 62.5386L41.7486 65.9504C40.745 66.8071 39.255 66.8071 38.2515 65.9504L34.2551 62.5386C33.4819 61.8785 33.1595 60.8412 33.4249 59.8677L37.4212 45.2081C37.5506 44.7334 37.7813 44.3455 38.0762 44.0442ZM39.328 42.9067L38.003 41.2485C37.5652 40.7005 37.9642 39.8996 38.6751 39.8996H41.3249C42.0358 39.8996 42.4348 40.7005 41.997 41.2485L40.6721 42.9067C40.3305 43.3342 39.6695 43.3342 39.328 42.9067ZM40.8596 45.6631L44.856 60.3227C44.9444 60.6472 44.8369 60.993 44.5792 61.213L40.5829 64.6248C40.2484 64.9103 39.7517 64.9103 39.4172 64.6248L35.4208 61.213C35.1631 60.993 35.0556 60.6472 35.1441 60.3227L39.1404 45.6631C39.3765 44.7971 40.6236 44.7971 40.8596 45.6631Z" fill="#323B5E"/>
</svg>
