<svg width="80" height="80" viewBox="0 0 80 80" fill="none" xmlns="http://www.w3.org/2000/svg">
<path fill-rule="evenodd" clip-rule="evenodd" d="M11.1885 24.4231L12.3396 23.2474L23.0612 34.1957C24.4739 35.4501 27.7962 37.4841 31.5571 35.1453L32.1042 34.8051L35.5702 38.3446L34.419 39.5202L31.8474 36.894C27.3682 39.29 23.484 36.7836 21.9695 35.4295L21.9491 35.4112L11.1885 24.4231Z" fill="#E21521"/>
<path fill-rule="evenodd" clip-rule="evenodd" d="M24.4295 11.1713L23.2655 12.3352L34.4325 22.8325C35.7147 24.2196 37.8523 27.6561 35.559 31.4357L35.2307 31.9768L38.6779 35.3187L39.8604 34.1724L37.3159 31.7057C39.6606 27.1952 37.0413 23.2142 35.6558 21.7268L35.6371 21.7067L24.4295 11.1713Z" fill="#323B5E"/>
<path fill-rule="evenodd" clip-rule="evenodd" d="M29.8295 31.3374L16.744 17.7556L17.9073 16.5799L30.9927 30.1617L29.8295 31.3374Z" fill="#323B5E"/>
<path fill-rule="evenodd" clip-rule="evenodd" d="M66.9002 12.7706C66.7916 12.7871 66.6157 12.8529 66.4084 13.055C56.4857 22.7341 43.515 35.4175 32.9722 45.7974C27.7005 50.9876 23.0373 55.6005 19.6661 58.9736C17.9801 60.6605 16.6196 62.0349 15.6685 63.0154C15.1923 63.5063 14.8227 63.8945 14.5674 64.1721C14.4391 64.3116 14.345 64.4174 14.2825 64.4915C14.266 64.511 14.2532 64.5266 14.2435 64.5386L14.2357 64.5558L14.1839 64.6257C14.0565 64.7977 13.8925 65.1533 13.8973 65.5687C13.9017 65.9477 14.0454 66.4352 14.6231 66.9407C15.0457 67.3104 15.4994 67.3157 16.0508 67.0615C16.6384 66.7906 17.1923 66.2683 17.513 65.8607L17.5218 65.8496C20.1649 62.6063 24.1657 57.794 27.9828 53.6859C29.8901 51.6332 31.7646 49.7422 33.4091 48.3073C34.2311 47.5901 35.0085 46.9756 35.7136 46.5093C36.4039 46.0528 37.0874 45.6958 37.7132 45.5599C38.968 45.2874 39.5557 45.2275 40.3247 45.2799C40.5832 45.2975 40.8286 45.323 41.1114 45.3524C41.6706 45.4105 42.3762 45.4838 43.6183 45.5415C46.4865 45.6748 48.2975 43.7521 49.6723 42.2925C49.8419 42.1124 50.0049 41.9394 50.1624 41.7781C52.1983 39.6939 55.3019 34.8855 58.4928 29.4004C61.6639 23.9493 64.8651 17.9299 67.0922 13.5056C67.2216 13.2485 67.2259 13.0705 67.2082 12.9741C67.1908 12.8797 67.1485 12.8316 67.1121 12.8064C67.0749 12.7806 67.008 12.7543 66.9002 12.7706ZM68.0744 11.4537C68.9402 12.0533 69.1206 13.1914 68.5924 14.2407C66.3531 18.6892 63.1361 24.7384 59.9455 30.223C56.7747 35.6736 53.573 40.668 51.3685 42.9249C51.2396 43.0568 51.0964 43.2114 50.9382 43.3821C49.615 44.81 47.2476 47.3646 43.5395 47.1923C42.2666 47.1332 41.4089 47.0456 40.8228 46.9857C40.5725 46.9602 40.3717 46.9397 40.2093 46.9286C39.6662 46.8916 39.2544 46.9174 38.0732 47.1739C37.7563 47.2427 37.2816 47.4618 36.6461 47.8821C36.0255 48.2925 35.3096 48.8552 34.5187 49.5453C32.9377 50.9247 31.1084 52.7676 29.2175 54.8027C25.4403 58.8678 21.4695 63.6432 18.8316 66.8798C18.4082 67.4163 17.6614 68.1431 16.7599 68.5587C15.819 68.9926 14.5909 69.1213 13.5118 68.1772C12.588 67.3688 12.2323 66.4424 12.2224 65.5876C12.2133 64.7972 12.4993 64.1193 12.7996 63.6947C12.8317 63.6419 12.862 63.6014 12.8768 63.5816C12.9123 63.5342 12.9532 63.4839 12.9952 63.4341C13.0801 63.3335 13.1924 63.2078 13.327 63.0615C13.5973 62.7676 13.979 62.367 14.4584 61.8728C15.4184 60.8831 16.7858 59.5017 18.4735 57.8132C21.8496 54.4353 26.5166 49.8186 31.7891 44.6276C42.3345 34.2451 55.3073 21.5597 65.2308 11.8798C66.0706 11.0606 67.2179 10.8605 68.0744 11.4537Z" fill="#323B5E"/>
<path fill-rule="evenodd" clip-rule="evenodd" d="M57.5917 52.126C61.258 55.6966 65.6224 59.9291 68.5231 62.7374L68.6996 62.9082L68.7519 63.1444C68.9944 64.2388 68.9085 65.1669 68.545 65.9169C68.1805 66.6692 67.5753 67.1616 66.9331 67.4467C66.301 67.7274 65.6169 67.8162 65.0289 67.7637C64.7336 67.7373 64.4391 67.6734 64.1742 67.5626C63.9178 67.4554 63.6319 67.2799 63.4345 66.9965C63.4365 66.9994 63.435 66.9976 63.4286 66.9901C63.4134 66.9724 63.371 66.9226 63.2844 66.8284C63.1769 66.7112 63.0284 66.5544 62.8412 66.3601C62.4675 65.9722 61.9511 65.4473 61.3239 64.8163C60.0703 63.5549 58.383 61.8786 56.5286 60.0461C52.8202 56.3816 48.4492 52.0979 45.5555 49.2714L46.7567 48.1194C49.6517 50.9473 54.0251 55.2333 57.7365 58.9009C59.592 60.7344 61.2836 62.4149 62.5426 63.6816C63.1717 64.3147 63.6952 64.8468 64.0778 65.2439C64.2688 65.4421 64.4277 65.6097 64.5482 65.741C64.6402 65.8411 64.7395 65.9516 64.8086 66.0432C64.8167 66.0475 64.8284 66.0533 64.8447 66.0601C64.9143 66.0892 65.0286 66.1201 65.1841 66.134C65.4976 66.1619 65.8827 66.1125 66.2281 65.9592C66.5635 65.8103 66.8441 65.5728 67.0142 65.2218C67.1692 64.9021 67.2639 64.4224 67.1436 63.7167C64.2439 60.909 59.9836 56.7772 56.3924 53.2798C54.5586 51.4938 52.8985 49.8725 51.6828 48.6771C51.0752 48.0796 50.5772 47.5871 50.2236 47.2332C50.0471 47.0566 49.9043 46.9122 49.8011 46.8055C49.7498 46.7526 49.7051 46.7057 49.6698 46.6673C49.6688 46.6663 49.6677 46.6651 49.6664 46.6637C49.6459 46.6416 49.585 46.5758 49.5391 46.5076L50.9554 45.6136C50.9326 45.5797 50.9121 45.556 50.9118 45.5558C50.9116 45.5556 50.9172 45.5623 50.9316 45.5779C50.9534 45.6016 50.9873 45.6373 51.0348 45.6863C51.129 45.7836 51.2646 45.9209 51.4391 46.0955C51.7874 46.4441 52.2812 46.9325 52.8878 47.529C54.1006 48.7215 55.7585 50.3406 57.5917 52.126ZM64.7946 66.0347C64.7946 66.0347 64.7951 66.0351 64.796 66.0357L64.7946 66.0347Z" fill="#323B5E"/>
</svg>
