<svg width="80" height="80" viewBox="0 0 80 80" fill="none" xmlns="http://www.w3.org/2000/svg">
<path fill-rule="evenodd" clip-rule="evenodd" d="M20.0599 60.6672L20.06 70.2037L28.697 65.2164L29.4522 65.4573C32.6519 66.478 36.091 67.0336 39.6755 67.0336C57.0501 67.0336 70.8908 54.0406 70.8908 38.3026C70.8908 22.5646 57.0501 9.57152 39.6755 9.57152C22.3008 9.57152 8.46015 22.5646 8.46015 38.3026C8.46015 47.0046 12.6667 54.836 19.3771 60.1286L20.0599 60.6672ZM72.6842 38.3026C72.6842 55.1609 57.9057 68.8273 39.6755 68.8273C35.905 68.8273 32.2822 68.2427 28.9073 67.1662L20.9567 71.7571C19.761 72.4475 18.2665 71.5845 18.2665 70.2037V61.537C11.1679 55.9382 6.66669 47.6065 6.66669 38.3026C6.66669 21.4442 21.4452 7.77783 39.6755 7.77783C57.9057 7.77783 72.6842 21.4442 72.6842 38.3026Z" fill="#323B5E"/>
<path d="M26.5993 46.4242C25.5376 46.4242 24.605 46.2663 23.8015 45.9506C22.998 45.635 22.2233 45.1327 21.4772 44.4439C21.3767 44.3435 21.2907 44.2359 21.2189 44.1211C21.1615 43.9919 21.1328 43.8556 21.1328 43.7121C21.1328 43.4825 21.2117 43.2816 21.3696 43.1094C21.5417 42.9229 21.7498 42.8296 21.9937 42.8296C22.1946 42.8296 22.3739 42.9085 22.5317 43.0664C23.0913 43.6117 23.6939 44.0278 24.3396 44.3148C24.9995 44.6018 25.7385 44.7453 26.5563 44.7453C27.1876 44.7453 27.7543 44.6448 28.2565 44.4439C28.773 44.2431 29.1819 43.9632 29.4832 43.6045C29.7845 43.2458 29.9352 42.8296 29.9352 42.3561C29.9208 41.7821 29.7486 41.3086 29.4187 40.9355C29.103 40.5624 28.6582 40.2539 28.0843 40.0099C27.5247 39.7517 26.8719 39.5364 26.1258 39.3642C25.4659 39.2064 24.8561 39.0127 24.2965 38.7831C23.7513 38.5535 23.2778 38.2737 22.8761 37.9436C22.4743 37.5992 22.1587 37.1903 21.9291 36.7167C21.7139 36.2288 21.6063 35.662 21.6063 35.0163C21.6063 34.1984 21.8215 33.4809 22.252 32.8639C22.6824 32.2469 23.2778 31.7733 24.0382 31.4433C24.7987 31.0989 25.6739 30.9267 26.6639 30.9267C27.5391 30.9267 28.3641 31.0702 29.1389 31.3572C29.928 31.6442 30.5593 32.0388 31.0328 32.541C31.3197 32.8137 31.4632 33.0791 31.4632 33.3374C31.4632 33.5527 31.3699 33.7536 31.1834 33.9401C31.0113 34.1123 30.8104 34.1984 30.5808 34.1984C30.423 34.1984 30.2795 34.141 30.1504 34.0262C29.9065 33.7536 29.598 33.5096 29.225 33.2944C28.8519 33.0791 28.443 32.9069 27.9982 32.7778C27.5534 32.6486 27.1087 32.5841 26.6639 32.5841C26.0039 32.5841 25.4228 32.6845 24.9206 32.8854C24.4185 33.072 24.0239 33.3446 23.7369 33.7033C23.4643 34.0477 23.328 34.4639 23.328 34.9517C23.328 35.497 23.4859 35.949 23.8015 36.3078C24.1172 36.6522 24.5404 36.9392 25.0713 37.1687C25.6022 37.384 26.1904 37.5777 26.8361 37.7499C27.5391 37.9221 28.1847 38.123 28.773 38.3526C29.3756 38.5678 29.8921 38.8405 30.3226 39.1705C30.753 39.5005 31.083 39.9238 31.3126 40.4404C31.5565 40.9427 31.6784 41.5669 31.6784 42.313C31.6784 43.1023 31.456 43.8054 31.0113 44.4224C30.5665 45.0395 29.9567 45.5273 29.1819 45.8861C28.4215 46.2305 27.5606 46.4098 26.5993 46.4242Z" fill="#323B5E"/>
<path d="M44.8544 31.1419C45.0983 31.1419 45.292 31.2209 45.4354 31.3787C45.5789 31.5222 45.6507 31.7088 45.6507 31.9383V45.3049C45.6507 45.5776 45.5646 45.8 45.3924 45.9722C45.2202 46.13 45.0122 46.2089 44.7683 46.2089C44.6391 46.2089 44.51 46.1874 44.3809 46.1444C44.2518 46.087 44.1513 46.0152 44.0796 45.9291L35.2988 34.1768V45.4125C35.2988 45.6421 35.2198 45.8358 35.062 45.9937C34.9185 46.1372 34.7248 46.2089 34.4809 46.2089C34.2514 46.2089 34.0649 46.1372 33.9214 45.9937C33.7779 45.8358 33.7062 45.6421 33.7062 45.4125V32.0029C33.7062 31.7446 33.7851 31.5366 33.9429 31.3787C34.1151 31.2209 34.3159 31.1419 34.5455 31.1419C34.6746 31.1419 34.8038 31.1706 34.9329 31.228C35.0764 31.2711 35.184 31.3428 35.2557 31.4433L44.0581 43.0838V31.9383C44.0581 31.7088 44.1298 31.5222 44.2733 31.3787C44.4311 31.2209 44.6248 31.1419 44.8544 31.1419Z" fill="#323B5E"/>
<path d="M52.9566 46.4242C51.8948 46.4242 50.9622 46.2663 50.1588 45.9506C49.3553 45.635 48.5805 45.1327 47.8344 44.4439C47.734 44.3435 47.6479 44.2359 47.5762 44.1211C47.5188 43.9919 47.4901 43.8556 47.4901 43.7121C47.4901 43.4825 47.569 43.2816 47.7268 43.1094C47.899 42.9229 48.107 42.8296 48.3509 42.8296C48.5518 42.8296 48.7312 42.9085 48.889 43.0664C49.4485 43.6117 50.0512 44.0278 50.6968 44.3148C51.3568 44.6018 52.0957 44.7453 52.9135 44.7453C53.5448 44.7453 54.1116 44.6448 54.6137 44.4439C55.1303 44.2431 55.5392 43.9632 55.8405 43.6045C56.1418 43.2458 56.2924 42.8296 56.2924 42.3561C56.2781 41.7821 56.1059 41.3086 55.7759 40.9355C55.4602 40.5624 55.0155 40.2539 54.4416 40.0099C53.882 39.7517 53.2292 39.5364 52.4831 39.3642C51.8231 39.2064 51.2133 39.0127 50.6538 38.7831C50.1085 38.5535 49.6351 38.2737 49.2333 37.9436C48.8316 37.5992 48.5159 37.1903 48.2864 36.7167C48.0712 36.2288 47.9636 35.662 47.9636 35.0163C47.9636 34.1984 48.1788 33.4809 48.6092 32.8639C49.0396 32.2469 49.6351 31.7733 50.3955 31.4433C51.1559 31.0989 52.0311 30.9267 53.0211 30.9267C53.8963 30.9267 54.7213 31.0702 55.4961 31.3572C56.2852 31.6442 56.9165 32.0388 57.39 32.541C57.677 32.8137 57.8205 33.0791 57.8205 33.3374C57.8205 33.5527 57.7272 33.7536 57.5407 33.9401C57.3685 34.1123 57.1676 34.1984 56.9381 34.1984C56.7802 34.1984 56.6368 34.141 56.5076 34.0262C56.2637 33.7536 55.9552 33.5096 55.5822 33.2944C55.2092 33.0791 54.8003 32.9069 54.3555 32.7778C53.9107 32.6486 53.4659 32.5841 53.0211 32.5841C52.3611 32.5841 51.7801 32.6845 51.2779 32.8854C50.7757 33.072 50.3811 33.3446 50.0942 33.7033C49.8216 34.0477 49.6853 34.4639 49.6853 34.9517C49.6853 35.497 49.8431 35.949 50.1588 36.3078C50.4744 36.6522 50.8977 36.9392 51.4285 37.1687C51.9594 37.384 52.5477 37.5777 53.1933 37.7499C53.8963 37.9221 54.542 38.123 55.1303 38.3526C55.7329 38.5678 56.2494 38.8405 56.6798 39.1705C57.1102 39.5005 57.4402 39.9238 57.6698 40.4404C57.9137 40.9427 58.0357 41.5669 58.0357 42.313C58.0357 43.1023 57.8133 43.8054 57.3685 44.4224C56.9237 45.0395 56.3139 45.5273 55.5392 45.8861C54.7787 46.2305 53.9179 46.4098 52.9566 46.4242Z" fill="#323B5E"/>
<path fill-rule="evenodd" clip-rule="evenodd" d="M66.1273 56.5713C70.2485 51.4776 72.6892 45.1536 72.6892 38.3026C72.6892 21.4442 57.9106 7.77783 39.6804 7.77783C34.2055 7.77783 29.042 9.01041 24.4965 11.1919L25.7642 12.5736C29.943 10.6544 34.6645 9.57152 39.6804 9.57152C57.0551 9.57152 70.8957 22.5646 70.8957 38.3026C70.8957 44.6053 68.6759 50.4677 64.8984 55.2317L66.1273 56.5713Z" fill="#E21521"/>
</svg>
