<svg width="80" height="80" viewBox="0 0 80 80" fill="none" xmlns="http://www.w3.org/2000/svg">
<path fill-rule="evenodd" clip-rule="evenodd" d="M40.3776 9.53257C23.3423 9.53257 9.53251 23.3424 9.53251 40.3777C9.53251 57.4129 23.3423 71.2227 40.3776 71.2227C57.4129 71.2227 71.2227 57.4129 71.2227 40.3777C71.2227 23.3424 57.4129 9.53257 40.3776 9.53257ZM7.77777 40.3777C7.77777 22.3733 22.3732 7.77783 40.3776 7.77783C58.382 7.77783 72.9774 22.3733 72.9774 40.3777C72.9774 58.382 58.382 72.9775 40.3776 72.9775C22.3732 72.9775 7.77777 58.382 7.77777 40.3777Z" fill="#323B5E"/>
<path fill-rule="evenodd" clip-rule="evenodd" d="M27.2058 10.5577C35.1145 7.0641 44.0872 6.85532 52.1498 9.9773C60.2125 13.0993 66.7048 19.2963 70.1984 27.205C73.692 35.1138 73.9008 44.0864 70.7788 52.1491L69.1424 51.5155C72.0964 43.8868 71.8988 35.3971 68.5933 27.9141C65.2877 20.431 59.1449 14.5676 51.5162 11.6136C43.8875 8.65972 35.3979 8.85726 27.9148 12.1628C20.4318 15.4684 14.5683 21.6112 11.6144 29.2399L9.97805 28.6062C13.1 20.5436 19.297 14.0513 27.2058 10.5577Z" fill="#E21521"/>
<path fill-rule="evenodd" clip-rule="evenodd" d="M29.4707 39.597L36.2032 45.8851L51.2744 29.8048C52.4583 28.5416 54.442 28.4774 55.7052 29.6612C56.9684 30.8451 57.0326 32.8289 55.8487 34.092L38.6482 52.4442C38.097 53.0323 37.3685 53.3615 36.6247 53.4242C35.7701 53.5019 34.8803 53.2281 34.2006 52.5933L25.1914 44.1787C23.9262 42.997 23.8585 41.0134 25.0402 39.7482C26.2219 38.483 28.2055 38.4153 29.4707 39.597ZM36.4716 51.6761C36.0919 51.7122 35.699 51.5917 35.3984 51.3109L26.3892 42.8963C25.8322 42.3761 25.8024 41.5029 26.3226 40.9459C26.8428 40.389 27.716 40.3592 28.273 40.8794L36.2856 48.3631L52.5547 31.0047C53.0759 30.4487 53.9492 30.4204 54.5052 30.9416C55.0613 31.4627 55.0896 32.336 54.5684 32.8921L37.3679 51.2443C37.1235 51.505 36.8017 51.6497 36.4716 51.6761Z" fill="#323B5E"/>
</svg>
