<svg width="80" height="80" viewBox="0 0 80 80" fill="none" xmlns="http://www.w3.org/2000/svg">
<path fill-rule="evenodd" clip-rule="evenodd" d="M23.98 22.9158H38.304L40.1542 35.4383H27.526V37.0803H40.3968L42.2986 49.9522C38.0378 49.9497 33.9237 49.9364 30.7592 49.9135L30.7473 51.5555C36.1583 51.5947 44.337 51.6057 51.2854 51.5833C54.7595 51.5721 57.9281 51.5525 60.2903 51.524C61.4709 51.5098 62.453 51.4932 63.1721 51.4743C63.5312 51.4648 63.8288 51.4547 64.0545 51.4437C64.2531 51.434 64.46 51.4214 64.5901 51.3964C65.9447 51.1362 66.6095 50.0827 66.7894 49.5263L66.8013 49.4896L66.8096 49.4519C67.7091 45.4052 69.0822 39.2776 70.2784 34.0469C70.8766 31.4312 71.4301 29.0418 71.8579 27.2496C72.0719 26.353 72.2536 25.609 72.3934 25.062C72.4634 24.7881 72.5219 24.5675 72.568 24.4035C72.5911 24.3214 72.6101 24.2571 72.6251 24.2094C72.6366 24.1728 72.6431 24.1542 72.6452 24.1484C72.948 23.4217 72.8242 22.7607 72.5232 22.264C72.2453 21.8056 71.833 21.5057 71.5225 21.3556L71.3531 21.2737H23.98V22.9158ZM41.8141 35.4383L39.9639 22.9158H56.3973L54.8973 35.4383H41.8141ZM54.7006 37.0803H42.0567L43.9586 49.9527C46.4365 49.9525 48.9288 49.9488 51.2801 49.9412C51.9185 49.9391 52.5465 49.9368 53.1609 49.9342L54.7006 37.0803ZM54.8156 49.9262L56.3544 37.0803H67.9037C66.9276 41.3849 65.927 45.8551 65.2173 49.0479C65.1443 49.2324 64.8534 49.6737 64.2803 49.7838C64.2803 49.7838 64.2794 49.7837 64.2715 49.7844C64.2444 49.7869 64.1561 49.7947 63.9745 49.8035C63.7667 49.8137 63.4831 49.8235 63.1289 49.8328C62.4214 49.8514 61.4484 49.8678 60.2704 49.8821C58.7457 49.9005 56.8823 49.9151 54.8156 49.9262ZM56.5511 35.4383L58.0511 22.9158H70.9356C71.0029 22.9683 71.0718 23.0375 71.1189 23.1152C71.1537 23.1725 71.1712 23.2253 71.1761 23.2764C71.1807 23.3248 71.1772 23.4018 71.1294 23.5164C71.0525 23.7011 70.9361 24.1324 70.8025 24.6554C70.6595 25.215 70.4753 25.9689 70.2607 26.8684C69.8311 28.6682 69.2762 31.0635 68.6777 33.6808C68.5459 34.2571 68.412 34.8442 68.2767 35.4383H56.5511Z" fill="#323B5E"/>
<path fill-rule="evenodd" clip-rule="evenodd" d="M20.4317 14.4866L12.9948 12.7084L13.3767 11.1113L20.8958 12.9092L20.9318 12.9215C21.4404 13.0942 21.9079 13.465 22.2631 13.8497C22.6233 14.2399 22.9483 14.7311 23.1115 15.2348C23.1517 15.3589 23.2784 15.8762 23.4595 16.629C23.6475 17.4105 23.9073 18.503 24.222 19.8328C24.6993 21.8493 25.3037 24.4139 25.9772 27.272C26.192 28.1838 26.4139 29.1255 26.641 30.0887C28.5154 38.0405 30.7412 47.4637 32.2642 53.722C32.4766 54.3263 33.0719 54.9199 33.9692 54.9199H65.5601V56.5619H33.9692C32.2203 56.5619 31.0783 55.3642 30.6958 54.2102L30.6853 54.1785L30.6774 54.1461C29.1525 47.881 26.9203 38.4308 25.0427 30.4655C24.8157 29.5023 24.5938 28.5608 24.379 27.6493C23.7054 24.7909 23.1012 22.2269 22.6241 20.211C22.3094 18.8815 22.0502 17.7915 21.863 17.013C21.7693 16.6236 21.694 16.3136 21.6388 16.0912C21.6112 15.9797 21.5891 15.8921 21.5725 15.8283C21.56 15.7798 21.553 15.7545 21.5503 15.7447C21.5489 15.7397 21.5487 15.7388 21.5494 15.741C21.4783 15.5216 21.3033 15.2309 21.0566 14.9636C20.8195 14.7068 20.587 14.5481 20.4317 14.4866Z" fill="#E21521"/>
<path fill-rule="evenodd" clip-rule="evenodd" d="M36.3542 60.5811C34.5404 60.5811 33.07 62.0515 33.07 63.8653C33.07 65.6791 34.5404 67.1494 36.3542 67.1494C38.168 67.1494 39.6384 65.6791 39.6384 63.8653C39.6384 62.0515 38.168 60.5811 36.3542 60.5811ZM31.4279 63.8653C31.4279 61.1446 33.6335 58.939 36.3542 58.939C39.0749 58.939 41.2805 61.1446 41.2805 63.8653C41.2805 66.586 39.0749 68.7915 36.3542 68.7915C33.6335 68.7915 31.4279 66.586 31.4279 63.8653Z" fill="#323B5E"/>
<path fill-rule="evenodd" clip-rule="evenodd" d="M61.7579 60.5811C59.9441 60.5811 58.4737 62.0515 58.4737 63.8653C58.4737 65.6791 59.9441 67.1494 61.7579 67.1494C63.5716 67.1494 65.042 65.6791 65.042 63.8653C65.042 62.0515 63.5716 60.5811 61.7579 60.5811ZM56.8316 63.8653C56.8316 61.1446 59.0372 58.939 61.7579 58.939C64.4785 58.939 66.6841 61.1446 66.6841 63.8653C66.6841 66.586 64.4785 68.7915 61.7579 68.7915C59.0372 68.7915 56.8316 66.586 56.8316 63.8653Z" fill="#323B5E"/>
<path fill-rule="evenodd" clip-rule="evenodd" d="M12.7428 26.4258H21.7317V28.0679H12.7428V26.4258Z" fill="#323B5E"/>
<path fill-rule="evenodd" clip-rule="evenodd" d="M7.77777 33.008L21.7287 33.008V34.6501L7.77777 34.6501L7.77777 33.008Z" fill="#323B5E"/>
<path fill-rule="evenodd" clip-rule="evenodd" d="M11.0373 39.5315L21.7278 39.5315L21.7278 41.1736L11.0373 41.1736L11.0373 39.5315Z" fill="#323B5E"/>
</svg>
