<svg width="96" height="96" viewBox="0 0 96 96" fill="none" xmlns="http://www.w3.org/2000/svg">
<path fill-rule="evenodd" clip-rule="evenodd" d="M32.5599 46.7771C31.1911 44.9368 30.495 42.6828 30.5875 40.3912C30.6801 38.0996 31.5557 35.909 33.0684 34.1851C34.5811 32.4612 36.6392 31.3082 38.8993 30.9186C41.1594 30.5289 43.4848 30.9262 45.4874 32.0441C47.49 33.162 49.0486 34.9328 49.9032 37.0612L47.8508 37.8852C47.1848 36.2265 45.9701 34.8464 44.4094 33.9752C42.8487 33.104 41.0365 32.7944 39.2751 33.098C37.5136 33.4017 35.9097 34.3003 34.7308 35.6438C33.5519 36.9873 32.8695 38.6945 32.7973 40.4804C32.7252 42.2663 33.2678 44.023 34.3345 45.4572C35.4012 46.8914 36.9275 47.9164 38.6586 48.3611C40.3898 48.8058 42.2212 48.6434 43.847 47.9008C45.4729 47.1583 46.7949 45.8807 47.5925 44.2811L49.5717 45.2679C48.5483 47.3204 46.852 48.9598 44.7658 49.9126C42.6796 50.8654 40.3297 51.0738 38.1084 50.5032C35.887 49.9325 33.9286 48.6173 32.5599 46.7771Z" fill="#323B5E"/>
<path fill-rule="evenodd" clip-rule="evenodd" d="M20.401 40.8514C20.3877 36.1074 22.0449 31.51 25.082 27.8655C28.119 24.2209 32.3421 21.7618 37.0107 20.9192C41.6794 20.0766 46.4957 20.9044 50.6151 23.2574C54.7346 25.6104 57.8943 29.3384 59.5402 33.7878L57.466 34.5551C56.0003 30.5929 53.1866 27.2731 49.5182 25.1778C45.8498 23.0825 41.561 22.3454 37.4035 23.0957C33.2461 23.846 29.4855 26.0359 26.781 29.2813C24.0765 32.5268 22.6008 36.6207 22.6126 40.8453C22.6244 45.0698 24.123 49.1554 26.8455 52.3857C29.5681 55.6161 33.3409 57.7849 37.5024 58.512C41.664 59.239 45.9487 58.478 49.6053 56.3622C53.2619 54.2464 56.057 50.911 57.5005 46.9407L59.579 47.6964C57.958 52.1549 54.8192 55.9005 50.7129 58.2764C46.6067 60.6524 41.7951 61.5071 37.1218 60.6906C32.4485 59.8741 28.2118 57.4386 25.1544 53.811C22.0971 50.1835 20.4142 45.5955 20.401 40.8514Z" fill="#323B5E"/>
<path d="M68.9298 50.0393C66.7377 56.7597 62.2279 62.482 56.2059 66.184C55.5052 66.6148 54.7894 67.0149 54.0604 67.384L59.0059 82.788H65.8024L63.0548 74.392L65.1567 73.7041L68.3788 83.5499C68.489 83.8867 68.4311 84.2559 68.2231 84.5429C68.0151 84.8298 67.6822 84.9996 67.3278 84.9996H58.1995C57.719 84.9996 57.2935 84.6894 57.1467 84.2319L52.0366 68.3153C47.0154 70.4022 41.4885 71.087 36.0558 70.2487C33.9601 69.9253 31.9195 69.3816 29.9645 68.6346L24.9569 84.2319C24.81 84.6894 24.3845 84.9996 23.9041 84.9996H14.7758C14.4214 84.9996 14.0885 84.8298 13.8805 84.5429C13.6725 84.2559 13.6146 83.8867 13.7248 83.5499L16.9469 73.7041L19.0488 74.392L16.3012 82.788H23.0977L27.9208 67.7651C24.1787 66.0056 20.815 63.4729 18.0681 60.299C13.4422 54.9539 10.8671 48.1384 10.8028 41.0697C10.7385 34.0011 13.1892 27.1398 17.7171 21.7115C22.245 16.2831 28.5553 12.6411 35.5207 11.4362C42.4862 10.2312 49.6531 11.5417 55.7415 15.1336C61.8298 18.7254 66.443 24.3647 68.757 31.0442L66.6672 31.7681C64.525 25.5844 60.2542 20.3637 54.6177 17.0384C48.9812 13.7131 42.3462 12.4999 35.8977 13.6154C29.4492 14.731 23.6073 18.1026 19.4155 23.1281C15.2236 28.1536 12.9548 34.5056 13.0143 41.0496C13.0739 47.5936 15.4578 53.9033 19.7404 58.8517C24.023 63.8001 29.9253 67.0649 36.393 68.063C42.8607 69.061 49.4726 67.7272 55.0477 64.3C60.6227 60.8727 64.7978 55.5751 66.8272 49.3534L68.9298 50.0393Z" fill="#323B5E"/>
<path fill-rule="evenodd" clip-rule="evenodd" d="M20.4009 40.801H22.6125C22.6128 36.5947 24.0875 32.5209 26.781 29.2886C29.4855 26.0432 33.2461 23.8533 37.4035 23.103C41.561 22.3527 45.8498 23.0898 49.5182 25.1851C53.1866 27.2804 56.0002 30.6002 57.466 34.5624L59.5402 33.7951C57.8943 29.3457 54.7346 25.6177 50.6151 23.2647C46.4957 20.9117 41.6794 20.084 37.0107 20.9265C32.3421 21.7691 28.119 24.2283 25.082 27.8728C22.0573 31.5025 20.4012 36.0774 20.4009 40.801Z" fill="#E21521"/>
<path d="M74.7043 33.7559L68.6315 39.8287L39.9649 39.8467L39.9663 42.0583L68.914 42.0402L74.7043 47.8305L76.2682 46.2666L72.0397 42.0382L77.829 42.0346L83.6347 47.8403L85.1985 46.2764L79.7251 40.8029L85.1985 35.3295L83.6347 33.7656L77.5772 39.8231L71.7611 39.8268L76.2682 35.3197L74.7043 33.7559Z" fill="#323B5E"/>
</svg>
