<svg width="96" height="96" viewBox="0 0 96 96" fill="none" xmlns="http://www.w3.org/2000/svg">
<path fill-rule="evenodd" clip-rule="evenodd" d="M23.459 65.8098C22.213 67.4096 21.6392 68.8633 21.6392 69.9926C21.6392 71.1701 22.2174 72.6428 23.4595 74.2403C24.6897 75.8226 26.5124 77.4484 28.8411 78.9142C33.4963 81.8442 40.0868 84.0798 47.7467 84.0798C55.3868 84.0798 62.1036 81.6137 66.8998 78.5466C69.2986 77.0126 71.194 75.343 72.4781 73.7831C73.7903 72.1892 74.3608 70.8377 74.3608 69.9263C74.3608 69.0157 73.7911 67.6694 72.4794 66.0829C71.1957 64.5304 69.3008 62.8701 66.902 61.3454C62.106 58.2969 55.3884 55.8488 47.7467 55.8488C40.0919 55.8488 33.5026 58.1389 28.8454 61.105C26.5156 62.5888 24.691 64.228 23.459 65.8098ZM27.8287 59.4812C32.7814 56.3269 39.7218 53.9283 47.7467 53.9283C55.7848 53.9283 62.8502 56.4999 67.9173 59.7206C70.4501 61.3306 72.5068 63.1173 73.9418 64.853C75.3488 66.5547 76.265 68.3377 76.265 69.9263C76.265 71.5141 75.3496 73.3015 73.9431 75.0099C72.5085 76.7525 70.4523 78.5489 67.9195 80.1685C62.8526 83.4087 55.7864 86.0002 47.7467 86.0002C39.727 86.0002 32.7877 83.662 27.833 80.5434C25.3568 78.9848 23.3545 77.2175 21.961 75.4253C20.5793 73.6483 19.735 71.7651 19.735 69.9926C19.735 68.2586 20.5837 66.3926 21.9615 64.6236C23.3533 62.8365 25.3535 61.0576 27.8287 59.4812Z" fill="#323B5E"/>
<path fill-rule="evenodd" clip-rule="evenodd" d="M60.7373 69.7974C60.7373 76.9827 54.9619 82.8075 47.8375 82.8075C40.7131 82.8075 34.9377 76.9827 34.9377 69.7974C34.9377 62.6121 40.7131 56.7873 47.8375 56.7873C54.9619 56.7873 60.7373 62.6121 60.7373 69.7974ZM47.8375 80.8871C53.9102 80.8871 58.8332 75.9221 58.8332 69.7974C58.8332 63.6728 53.9102 58.7078 47.8375 58.7078C41.7648 58.7078 36.8419 63.6728 36.8419 69.7974C36.8419 75.9221 41.7648 80.8871 47.8375 80.8871Z" fill="#323B5E"/>
<path fill-rule="evenodd" clip-rule="evenodd" d="M43.0434 77.0344C41.6243 76.0781 40.5182 74.7188 39.8651 73.1285C39.212 71.5382 39.0411 69.7882 39.374 68.1C39.707 66.4117 40.5289 64.8609 41.7357 63.6437L43.0822 65.0017C42.1417 65.9503 41.5011 67.1589 41.2416 68.4746C40.9821 69.7904 41.1153 71.1542 41.6243 72.3936C42.1334 73.633 42.9954 74.6923 44.1013 75.4376C45.2073 76.1829 46.5076 76.5807 47.8377 76.5807C49.1679 76.5807 50.4682 76.1829 51.5741 75.4376C52.6801 74.6923 53.5421 73.633 54.0511 72.3936C54.5602 71.1542 54.6933 69.7904 54.4338 68.4746C54.1743 67.1589 53.5338 65.9503 52.5933 65.0017L53.9397 63.6437C55.1466 64.8609 55.9685 66.4117 56.3014 68.1C56.6344 69.7882 56.4635 71.5382 55.8104 73.1285C55.1572 74.7188 54.0512 76.0781 52.632 77.0344C51.2129 77.9908 49.5445 78.5012 47.8377 78.5012C46.131 78.5012 44.4625 77.9908 43.0434 77.0344Z" fill="#323B5E"/>
<path fill-rule="evenodd" clip-rule="evenodd" d="M30.3429 18.8544C30.8453 18.698 31.3784 18.9819 31.5335 19.4886L41.0834 50.6854L39.2639 51.2519L29.7141 20.0552C29.5589 19.5484 29.8405 19.0108 30.3429 18.8544Z" fill="#323B5E"/>
<path fill-rule="evenodd" clip-rule="evenodd" d="M43.855 11.9932C47.3558 12.3135 50.8638 14.4326 53.7461 16.2124C56.7109 18.043 58.7751 19.2539 61.0149 19.5117C63.1964 19.7628 65.7021 19.1142 69.5042 16.7435C69.8181 16.5477 70.2158 16.5526 70.5249 16.7559C70.834 16.9592 70.9988 17.3243 70.9478 17.6929C70.1341 23.5747 67.6865 27.4973 64.3208 29.5993C60.9671 31.6937 56.87 31.8744 52.9607 30.6216C51.3138 30.0938 49.9111 30.2128 48.7037 30.7117C47.4768 31.2186 46.3931 32.1433 45.4599 33.3122C43.5815 35.665 42.4523 38.8326 42.0513 40.8133C41.9639 41.245 41.5964 41.5613 41.1599 41.5805C40.7235 41.5997 40.3301 41.3168 40.2057 40.8944L33.8329 19.2433C33.7615 19.0007 33.7879 18.7395 33.9064 18.5165C35.2719 15.9465 36.8233 14.2168 38.533 13.1776C40.2543 12.1314 42.0636 11.8294 43.855 11.9932ZM35.7713 19.0805L41.1228 37.2617C41.7747 35.5489 42.7184 33.6839 43.9768 32.1078C45.0435 30.7716 46.3706 29.6003 47.9818 28.9346C49.6125 28.2608 51.4752 28.1305 53.5373 28.7913C57.0459 29.9157 60.5413 29.7008 63.3183 27.9665C65.7283 26.4614 67.7253 23.7316 68.6997 19.4314C65.6131 21.1007 63.1508 21.6905 60.799 21.4198C58.0644 21.105 55.6342 19.63 52.7519 17.8503C49.7871 16.0196 46.6625 14.1784 43.683 13.9058C42.2342 13.7733 40.8414 14.0168 39.5159 14.8225C38.2447 15.5951 36.9709 16.9243 35.7713 19.0805Z" fill="#323B5E"/>
<path fill-rule="evenodd" clip-rule="evenodd" d="M28.5859 11.9205C27.5012 11.9205 26.6219 12.8073 26.6219 13.9013C26.6219 14.9953 27.5012 15.8822 28.5859 15.8822C29.6707 15.8822 30.55 14.9953 30.55 13.9013C30.55 12.8073 29.6707 11.9205 28.5859 11.9205ZM24.7177 13.9013C24.7177 11.7467 26.4495 10 28.5859 10C30.7223 10 32.4542 11.7467 32.4542 13.9013C32.4542 16.056 30.7223 17.8027 28.5859 17.8027C26.4495 17.8027 24.7177 16.056 24.7177 13.9013Z" fill="#323B5E"/>
<path fill-rule="evenodd" clip-rule="evenodd" d="M47.7467 53.9283L47.8291 53.9284V55.8489L47.7467 55.8488C40.0919 55.8488 33.5026 58.1389 28.8454 61.105C26.5156 62.5888 24.691 64.228 23.459 65.8098C22.2237 67.3959 21.6491 68.8383 21.6393 69.9635H19.735C19.7445 68.2377 20.5915 66.3827 21.9615 64.6236C23.3533 62.8365 25.3535 61.0576 27.8287 59.4812C32.7814 56.3269 39.7218 53.9283 47.7467 53.9283Z" fill="#E21521"/>
</svg>
