<svg width="96" height="96" viewBox="0 0 96 96" fill="none" xmlns="http://www.w3.org/2000/svg">
<path fill-rule="evenodd" clip-rule="evenodd" d="M48.3396 37.1781C43.5681 37.1781 39.7 41.0549 39.7 45.8371C39.7 50.6193 43.5681 54.4961 48.3396 54.4961C53.1112 54.4961 56.9793 50.6193 56.9793 45.8371C56.9793 41.0549 53.1112 37.1781 48.3396 37.1781ZM37.7801 45.8371C37.7801 39.9922 42.5078 35.2539 48.3396 35.2539C54.1715 35.2539 58.8992 39.9922 58.8992 45.8371C58.8992 51.682 54.1715 56.4203 48.3396 56.4203C42.5078 56.4203 37.7801 51.682 37.7801 45.8371Z" fill="#323B5E"/>
<path fill-rule="evenodd" clip-rule="evenodd" d="M20.5729 88.0002H22.4977C23.4801 74.5521 34.6777 63.9474 48.3466 63.9474C62.0154 63.9474 73.213 74.5521 74.1954 88.0002H76.1202C75.134 73.4884 63.0762 62.0232 48.3466 62.0232C33.6169 62.0232 21.5591 73.4884 20.5729 88.0002Z" fill="#323B5E"/>
<path fill-rule="evenodd" clip-rule="evenodd" d="M55.3016 16.2354C55.049 16.8322 54.7222 17.3899 54.3327 17.8967L69.3414 26.9041C69.6276 26.3232 69.986 25.7843 70.4048 25.2994L55.3016 16.2354ZM62.0231 37.4192L71.3116 31.6359C71.5513 32.2393 71.8663 32.8044 72.2449 33.3197L62.9313 39.1185C62.6618 38.5322 62.3582 37.9649 62.0231 37.4192ZM75.6514 55.602V37.8055C75.8055 37.8149 75.9608 37.8196 76.1173 37.8196C76.6147 37.8196 77.1008 37.7715 77.5713 37.6795V55.7261C77.1031 55.6351 76.6195 55.5874 76.1248 55.5874C75.9658 55.5874 75.808 55.5923 75.6514 55.602ZM71.8497 60.4489L61.9766 54.3354C61.6365 54.8824 61.2645 55.4075 60.8632 55.908L71.0369 62.2071C71.233 61.5822 71.5078 60.9923 71.8497 60.4489ZM49.2984 18.4272C48.9864 18.4666 48.6685 18.4869 48.3459 18.4869C48.0181 18.4869 47.6952 18.4659 47.3785 18.4253V29.7832C47.6985 29.7641 48.0211 29.7545 48.3459 29.7545C48.6657 29.7545 48.9832 29.7638 49.2984 29.7823V18.4272ZM42.3588 17.8964C41.9694 17.3895 41.6426 16.8318 41.39 16.235L26.1063 25.4074C26.4607 25.9403 26.7494 26.5208 26.9608 27.1374L42.3588 17.8964ZM19.1196 55.7277V37.1364C19.3493 37.1575 19.5819 37.1683 19.8171 37.1683C20.2333 37.1683 20.6416 37.1346 21.0396 37.0696V55.6015C20.8858 55.5922 20.7307 55.5874 20.5746 55.5874C20.0769 55.5874 19.5904 55.6357 19.1196 55.7277ZM33.6933 39.2668L23.5161 32.9766C23.916 32.4776 24.2541 31.9268 24.5188 31.3357L34.5849 37.5573C34.255 38.1066 33.957 38.6773 33.6933 39.2668ZM24.6403 60.4714C24.9869 61.0111 25.267 61.5978 25.4689 62.2199L35.7867 55.8554C35.3876 55.3534 35.0179 54.8269 34.6801 54.2786L24.6403 60.4714Z" fill="#ABAFBF"/>
<path fill-rule="evenodd" clip-rule="evenodd" d="M48.3388 62.0232H48.3336C33.604 62.0232 21.5462 73.4884 20.56 88.0002H22.4847C23.4672 74.5521 34.6648 63.9474 48.3336 63.9474H48.3388V62.0232Z" fill="#E21521"/>
<path fill-rule="evenodd" clip-rule="evenodd" d="M20.5749 59.6828C18.6613 59.6828 17.1101 61.2376 17.1101 63.1555C17.1101 65.0733 18.6613 66.6281 20.5749 66.6281C22.4885 66.6281 24.0398 65.0733 24.0398 63.1555C24.0398 61.2376 22.4885 59.6828 20.5749 59.6828ZM15.1901 63.1555C15.1901 60.1749 17.601 57.7586 20.5749 57.7586C23.5489 57.7586 25.9597 60.1749 25.9597 63.1555C25.9597 66.136 23.5489 68.5523 20.5749 68.5523C17.601 68.5523 15.1901 66.136 15.1901 63.1555Z" fill="#323B5E"/>
<path fill-rule="evenodd" clip-rule="evenodd" d="M19.8096 26.1265C17.8961 26.1265 16.3448 27.6812 16.3448 29.5991C16.3448 31.517 17.8961 33.0717 19.8096 33.0717C21.7232 33.0717 23.2745 31.517 23.2745 29.5991C23.2745 27.6812 21.7232 26.1265 19.8096 26.1265ZM14.4249 29.5991C14.4249 26.6185 16.8357 24.2023 19.8096 24.2023C22.7836 24.2023 25.1944 26.6185 25.1944 29.5991C25.1944 32.5797 22.7836 34.9959 19.8096 34.9959C16.8357 34.9959 14.4249 32.5797 14.4249 29.5991Z" fill="#323B5E"/>
<path fill-rule="evenodd" clip-rule="evenodd" d="M76.1904 59.6828C74.2768 59.6828 72.7255 61.2376 72.7255 63.1555C72.7255 65.0733 74.2768 66.6281 76.1904 66.6281C78.104 66.6281 79.6552 65.0733 79.6552 63.1555C79.6552 61.2376 78.104 59.6828 76.1904 59.6828ZM70.8056 63.1555C70.8056 60.1749 73.2164 57.7586 76.1904 57.7586C79.1643 57.7586 81.5751 60.1749 81.5751 63.1555C81.5751 66.136 79.1643 68.5523 76.1904 68.5523C73.2164 68.5523 70.8056 66.136 70.8056 63.1555Z" fill="#323B5E"/>
<path fill-rule="evenodd" clip-rule="evenodd" d="M76.1904 26.758C74.2768 26.758 72.7255 28.3127 72.7255 30.2306C72.7255 32.1484 74.2768 33.7032 76.1904 33.7032C78.104 33.7032 79.6552 32.1484 79.6552 30.2306C79.6552 28.3127 78.104 26.758 76.1904 26.758ZM70.8056 30.2306C70.8056 27.25 73.2164 24.8337 76.1904 24.8337C79.1643 24.8337 81.5751 27.25 81.5751 30.2306C81.5751 33.2111 79.1643 35.6274 76.1904 35.6274C73.2164 35.6274 70.8056 33.2111 70.8056 30.2306Z" fill="#323B5E"/>
<path fill-rule="evenodd" clip-rule="evenodd" d="M48.3364 9.92422C46.4228 9.92422 44.8715 11.479 44.8715 13.3968C44.8715 15.3147 46.4228 16.8694 48.3364 16.8694C50.2499 16.8694 51.8012 15.3147 51.8012 13.3968C51.8012 11.479 50.2499 9.92422 48.3364 9.92422ZM42.9516 13.3968C42.9516 10.4162 45.3624 8 48.3364 8C51.3103 8 53.7211 10.4162 53.7211 13.3968C53.7211 16.3774 51.3103 18.7937 48.3364 18.7937C45.3624 18.7937 42.9516 16.3774 42.9516 13.3968Z" fill="#323B5E"/>
</svg>
