<svg width="96" height="96" viewBox="0 0 96 96" fill="none" xmlns="http://www.w3.org/2000/svg">
<path d="M34.3229 27.4281C33.7313 24.7195 33.3369 20.7295 34.0001 17.5129C34.3309 15.9083 34.904 14.5995 35.746 13.7199C36.5528 12.877 37.6821 12.3463 39.3499 12.41C48.1538 12.7458 61.0292 13.3805 65.3399 13.593L66.4292 13.6465C68.3256 13.739 71.3519 16.0248 70.9716 20.2632C70.9209 20.8274 70.8722 21.3906 70.8241 21.9474L70.8237 21.9526C70.664 23.7999 70.5104 25.5773 70.3115 27.0924C70.1823 28.077 70.0383 28.9138 69.8709 29.5613C69.691 30.2571 69.5243 30.5643 69.449 30.6485C69.2344 30.8884 69.0393 31.0718 68.714 31.2236C68.3709 31.3838 67.8095 31.5413 66.8333 31.58C64.8596 31.6583 61.4291 31.246 55.2406 29.7175C54.9538 29.6019 54.4981 29.3409 54.1149 28.9399C53.7214 28.5282 53.4458 28.0168 53.4339 27.3865L53.4135 26.3054L51.2513 26.3462L51.2717 27.4273C51.2963 28.7285 51.8825 29.7342 52.5515 30.4341C53.2079 31.1209 53.9836 31.5594 54.5409 31.7653C54.5785 31.7792 54.6169 31.791 54.6558 31.8006C60.9202 33.351 64.6164 33.8323 66.919 33.7409C67.5654 33.7153 68.1194 33.6441 68.6005 33.5317C69.3091 36.2351 69.1715 42.2805 63.2514 48.9805C63.1038 49.1475 63.0265 49.3524 63.0321 49.5619C63.0634 50.7348 63.1851 53.4913 63.43 54.9094C63.4502 55.0261 63.4751 55.1585 63.5041 55.3131C63.8842 57.3357 64.9794 63.1647 65.6037 87.5816L65.6274 88.5088L67.7895 88.4681L67.7658 87.5409C67.1397 63.0545 66.0389 57.1606 65.6459 55.057C65.6162 54.8976 65.5904 54.7599 65.5693 54.6376C65.3653 53.4566 65.2464 51.1318 65.2038 49.839C71.5903 42.4526 71.5826 35.6377 70.5516 32.5936C70.7546 32.4215 70.9192 32.2486 71.0607 32.0905C71.5111 31.5871 71.7773 30.8273 71.9647 30.1025C72.1646 29.3293 72.3221 28.3917 72.4557 27.3739C72.6615 25.8064 72.8209 23.9609 72.9814 22.1034C73.0289 21.5532 73.0766 21.0019 73.1255 20.4565C73.6111 15.046 69.71 11.6414 66.5345 11.4865L65.4479 11.433C61.1409 11.2207 48.2502 10.5853 39.4323 10.2489C37.191 10.1634 35.4483 10.9034 34.1838 12.2245C32.9544 13.5088 32.2571 15.257 31.882 17.0762C31.1334 20.7069 31.5857 25.0308 32.2101 27.8896L32.4409 28.946L34.5537 28.4845L34.3229 27.4281Z" fill="#323B5E"/>
<path fill-rule="evenodd" clip-rule="evenodd" d="M51.7334 54.0587L52.0012 55.1063C52.4725 56.9503 53.2856 61.5946 52.7072 65.452L52.5468 66.5214L50.4081 66.2007L50.5685 65.1313C51.0849 61.6875 50.347 57.3674 49.9059 55.6418L49.6382 54.5942L51.7334 54.0587Z" fill="#323B5E"/>
<path fill-rule="evenodd" clip-rule="evenodd" d="M20.2227 16.0665L27.971 18.3898L27.3499 20.4613L19.6015 18.138L20.2227 16.0665Z" fill="#323B5E"/>
<path fill-rule="evenodd" clip-rule="evenodd" d="M24.5667 8.30078L30.2216 14.0849L28.6753 15.5968L23.0203 9.81261L24.5667 8.30078Z" fill="#323B5E"/>
<path fill-rule="evenodd" clip-rule="evenodd" d="M19.1165 26.6303L27.0899 25.2662L26.7252 23.1345L18.7518 24.4986L19.1165 26.6303Z" fill="#323B5E"/>
<path fill-rule="evenodd" clip-rule="evenodd" d="M49.9419 10.6945C46.3045 10.5297 42.6048 10.37 39.4323 10.2489C37.191 10.1634 35.4483 10.9034 34.1838 12.2245C32.9544 13.5088 32.2571 15.257 31.882 17.0762C31.1334 20.7069 31.5857 25.0308 32.2101 27.8896L32.4409 28.946L34.5537 28.4845L34.3229 27.4281C33.7313 24.7195 33.3369 20.7295 34.0001 17.5129C34.3309 15.9083 34.904 14.5995 35.746 13.7199C36.5528 12.877 37.6821 12.3463 39.3499 12.41C42.5456 12.5319 46.2777 12.6932 49.9419 12.8593V10.6945Z" fill="#E21521"/>
<path d="M41.1193 51.3658C37.4021 49.4779 30.4131 43.2354 31.9447 33.4133C32.1801 32.3154 32.7156 30.777 33.5211 29.665C33.9237 29.1094 34.3494 28.7218 34.7768 28.5158C35.1744 28.3242 35.6218 28.2637 36.1795 28.4411C37.9998 29.0203 40.0789 29.1275 41.8897 29.0484C43.5757 28.9747 45.1012 28.7358 46.0899 28.5144C46.9544 28.6884 48.0663 29.134 48.8365 29.899C49.5929 30.6501 50.1007 31.7755 49.5506 33.5913C49.4108 34.0401 48.1431 35.9655 43.7134 35.7348C43.1305 35.7045 42.6288 36.1421 42.5797 36.7237C42.5305 37.3052 42.9518 37.8208 43.5315 37.8886C44.3923 37.9894 45.8334 38.327 47.2422 39.0058C48.658 39.6878 49.9274 40.6585 50.6193 41.9609L51.1266 42.9158L53.0364 41.9012L52.5291 40.9463C51.597 39.1918 50.0189 37.9944 48.4714 37.2018C50.3084 36.4519 51.3051 35.2427 51.618 34.2256L51.6193 34.2215C52.404 31.6349 51.6828 29.6778 50.3604 28.3645C49.112 27.1247 47.4109 26.5317 46.2334 26.343C46.0921 26.3204 45.9477 26.326 45.8086 26.3596C44.9702 26.562 43.475 26.8144 41.7952 26.8878C40.1056 26.9617 38.3126 26.8504 36.8351 26.3803C35.7438 26.0331 34.7262 26.1396 33.838 26.5676C32.9797 26.9812 32.2989 27.6659 31.7698 28.3963C30.7186 29.8474 30.092 31.7204 29.823 32.9934C29.8192 33.0117 29.8158 33.0302 29.8128 33.0487C28.113 43.8426 35.4985 50.7422 39.7394 53.0816C38.6468 61.8936 36.092 80.1197 34.0209 87.2772L33.7771 88.1197L35.884 88.5097L36.1278 87.6672C38.2836 80.217 40.9177 61.2074 41.9625 52.6758L42.0565 51.9083L42.0834 51.8554L42.0642 51.8457L42.0679 51.8151L41.9924 51.8092L41.1193 51.3658Z" fill="#323B5E"/>
</svg>
