<svg width="80" height="80" viewBox="0 0 80 80" fill="none" xmlns="http://www.w3.org/2000/svg">
<path fill-rule="evenodd" clip-rule="evenodd" d="M27.5479 10.1178C35.0247 7.13272 43.3376 6.99863 50.9067 9.74104C58.4759 12.4834 64.7737 17.9112 68.6032 24.9927C72.4327 32.0743 73.5269 40.3159 71.6779 48.1514C69.829 55.9868 65.1657 62.8699 58.5743 67.4924C51.983 72.1149 43.9231 74.1546 35.9264 73.2239C27.9298 72.2931 20.5538 68.4569 15.2002 62.4441C9.84674 56.4314 6.88892 48.6613 6.88892 40.6107H8.66669C8.66669 48.2254 11.4644 55.5748 16.528 61.2619C21.5916 66.9491 28.5683 70.5777 36.132 71.458C43.6957 72.3383 51.3192 70.4091 57.5536 66.0369C63.788 61.6647 68.1988 55.1543 69.9477 47.7431C71.6965 40.3319 70.6615 32.5365 67.0394 25.8384C63.4173 19.1403 57.4605 14.0064 50.3012 11.4125C43.1418 8.81857 35.279 8.9454 28.2071 11.7689C21.1352 14.5924 15.3471 19.9157 11.9428 26.7271L10.3526 25.9324C13.9517 18.731 20.0711 13.103 27.5479 10.1178Z" fill="#323B5E"/>
<path fill-rule="evenodd" clip-rule="evenodd" d="M39.5495 41.553C39.0586 41.553 38.6606 41.155 38.6606 40.6641L38.6606 20.0417C38.6606 19.5508 39.0586 19.1528 39.5495 19.1528C40.0404 19.1528 40.4384 19.5508 40.4384 20.0417L40.4384 40.6641C40.4384 41.155 40.0404 41.553 39.5495 41.553Z" fill="#323B5E"/>
<path fill-rule="evenodd" clip-rule="evenodd" d="M50.875 49.9754C50.5637 50.3549 50.0036 50.4102 49.624 50.0988L39.0063 41.3881C38.6267 41.0768 38.5715 40.5167 38.8829 40.1371C39.1942 39.7576 39.7543 39.7023 40.1339 40.0137L50.7516 48.7244C51.1311 49.0357 51.1864 49.5958 50.875 49.9754Z" fill="#323B5E"/>
<path fill-rule="evenodd" clip-rule="evenodd" d="M9.85265 13.7982C10.3405 13.7437 10.7802 14.095 10.8348 14.5829L12.1019 25.9174C12.1565 26.4053 11.8052 26.845 11.3173 26.8995C10.8294 26.9541 10.3897 26.6028 10.3352 26.1149L9.06802 14.7804C9.01348 14.2925 9.36477 13.8528 9.85265 13.7982Z" fill="#E21521"/>
<path fill-rule="evenodd" clip-rule="evenodd" d="M10.4482 26.1683C10.3507 25.6872 10.6617 25.2181 11.1429 25.1206L22.3207 22.8552C22.8019 22.7577 23.271 23.0687 23.3685 23.5499C23.466 24.031 23.155 24.5001 22.6738 24.5976L11.496 26.8629C11.0148 26.9605 10.5457 26.6495 10.4482 26.1683Z" fill="#E21521"/>
<path fill-rule="evenodd" clip-rule="evenodd" d="M50.9056 9.74152C43.3365 6.99911 35.0235 7.13321 27.5468 10.1183C20.07 13.1034 13.9506 18.7315 10.3515 25.9329L11.9417 26.7276C15.3459 19.9162 21.134 14.5929 28.206 11.7694C35.2779 8.94589 43.1407 8.81906 50.3 11.413C57.4593 14.0069 63.4161 19.1408 67.0383 25.8389C67.6881 27.0405 68.2546 28.2775 68.7368 29.5413H70.6321C70.0746 27.9846 69.3973 26.4639 68.602 24.9932C64.7726 17.9117 58.4748 12.4839 50.9056 9.74152Z" fill="#E21521"/>
</svg>
