<svg width="80" height="80" viewBox="0 0 80 80" fill="none" xmlns="http://www.w3.org/2000/svg">
<path fill-rule="evenodd" clip-rule="evenodd" d="M61.5691 28.3793C65.045 25.4959 70.3075 27.9679 70.3075 32.4841V61.9117C70.3075 66.0845 66.9248 69.4672 62.7519 69.4672H16.6669C12.4941 69.4672 9.11133 66.0845 9.11133 61.9117V32.4841C9.11133 27.9679 14.3738 25.4959 17.8498 28.3793L37.4394 44.6294C38.7557 45.7214 40.6631 45.7214 41.9795 44.6294L61.5691 28.3793ZM68.5297 32.4841C68.5297 29.4733 65.0214 27.8253 62.7041 29.7476L43.1145 45.9977C41.1399 47.6357 38.2789 47.6357 36.3043 45.9977L16.7147 29.7476C14.3974 27.8253 10.8891 29.4733 10.8891 32.4841V61.9117C10.8891 65.1027 13.4759 67.6895 16.6669 67.6895H62.7519C65.9429 67.6895 68.5297 65.1027 68.5297 61.9117V32.4841Z" fill="#323B5E"/>
<path fill-rule="evenodd" clip-rule="evenodd" d="M35.1514 50.7876C35.4263 51.1943 35.3196 51.7469 34.9129 52.0218L12.6202 67.0941C12.2136 67.3691 11.661 67.2623 11.386 66.8556C11.111 66.4489 11.2178 65.8964 11.6245 65.6214L33.9171 50.5491C34.3238 50.2741 34.8764 50.3809 35.1514 50.7876Z" fill="#323B5E"/>
<path fill-rule="evenodd" clip-rule="evenodd" d="M44.0095 50.5795C43.7253 50.9798 43.8194 51.5347 44.2197 51.8188L65.7205 67.0823C66.1208 67.3665 66.6757 67.2723 66.9599 66.872C67.2441 66.4717 67.1499 65.9168 66.7496 65.6327L45.2488 50.3692C44.8485 50.085 44.2936 50.1792 44.0095 50.5795Z" fill="#323B5E"/>
<path fill-rule="evenodd" clip-rule="evenodd" d="M19.4177 12.2227C17.0859 12.2227 15.1955 14.113 15.1955 16.4449V25.2984H16.9733V16.4449C16.9733 15.0948 18.0677 14.0004 19.4177 14.0004H60.0027C61.3527 14.0004 62.4472 15.0948 62.4472 16.4449V25.2984H64.2249V16.4449C64.2249 14.113 62.3346 12.2227 60.0027 12.2227H19.4177Z" fill="#E21521"/>
<path fill-rule="evenodd" clip-rule="evenodd" d="M44.3418 19.7318C46.1808 19.8571 47.9711 20.8853 48.7614 22.3103C49.0556 22.8406 49.4232 23.5929 49.4845 24.5313C49.5472 25.4934 49.2835 26.5546 48.4917 27.7018L48.4446 27.77L41.2611 34.8882C40.4859 35.6564 39.2381 35.6613 38.4569 34.8994L31.1198 27.7433L31.0674 27.6644C30.6377 27.0164 30.3247 26.3535 30.2267 25.5952C30.1286 24.836 30.257 24.0681 30.5638 23.2245C31.0237 21.96 32.0235 20.602 33.7939 20.0544C35.4089 19.5549 36.8208 19.6858 37.9898 20.2634C38.7332 20.6307 39.3436 21.1612 39.8337 21.7658C41.0481 20.1943 42.7367 19.6224 44.3418 19.7318ZM44.2209 21.5054C42.9601 21.4195 41.6134 21.9312 40.7538 23.6316C40.4075 24.3165 39.382 24.4076 38.9736 23.6652C38.5364 22.8704 37.9408 22.2222 37.2023 21.8573C36.4833 21.502 35.5462 21.3733 34.3192 21.7528C33.2175 22.0935 32.5595 22.9386 32.2345 23.8322C31.9916 24.4999 31.9388 24.9727 31.9898 25.3673C32.0384 25.7428 32.1909 26.126 32.4988 26.605L39.6982 33.6267C39.785 33.7113 39.9236 33.7108 40.0098 33.6254L47.0735 26.6259C47.6271 25.7994 47.7433 25.15 47.7105 24.6471C47.6752 24.1071 47.4629 23.6343 47.2068 23.1726C46.7586 22.3644 45.5683 21.5972 44.2209 21.5054Z" fill="#323B5E"/>
</svg>
