<svg width="80" height="80" viewBox="0 0 80 80" fill="none" xmlns="http://www.w3.org/2000/svg">
<path fill-rule="evenodd" clip-rule="evenodd" d="M44.8772 27.979C44.937 27.9586 45.0027 27.9647 45.0577 27.9957L50.4315 31.0159C50.5857 31.1026 50.5818 31.3259 50.4246 31.4071L43.0421 35.2223C41.5668 35.9847 41.6096 38.1091 43.1145 38.8114L61.4657 47.3757C61.9273 47.5911 62.4538 47.6223 62.9376 47.4628L70.5252 44.9617C70.5837 44.9425 70.6476 44.9483 70.7017 44.978L73.259 46.3815C73.3999 46.4589 73.4146 46.6557 73.2868 46.7531L59.9056 56.9479C59.8394 56.9984 59.7506 57.0076 59.6755 56.9718L39.253 47.257C37.7494 46.5417 36.0813 47.8696 36.4411 49.4953L38.2571 57.699C38.2974 57.8811 38.1091 58.0288 37.9418 57.9463L31.355 54.6984C31.3094 54.6759 31.2729 54.6385 31.2516 54.5924L25.2596 41.6462L22.7418 35.3379C22.6677 35.1522 22.8574 34.9707 23.0397 35.053L34.5281 40.243C34.5905 40.2712 34.6365 40.3267 34.6526 40.3933L35.4779 43.805C35.5933 44.2822 36.0737 44.5754 36.5508 44.46C37.028 44.3446 37.3212 43.8642 37.2058 43.387L36.3805 39.9753C36.2355 39.3758 35.822 38.8768 35.26 38.6229L23.7716 33.4329C22.1313 32.6919 20.4235 34.3253 21.0907 35.9969L22.801 40.2821C17.1727 37.6521 13.3983 35.0913 10.9941 33.1388C9.65472 32.051 8.73942 31.151 8.16489 30.5315C7.87759 30.2217 7.67536 29.9819 7.54783 29.8237C7.48407 29.7446 7.43897 29.6858 7.41123 29.6489C7.39736 29.6304 7.38783 29.6174 7.38248 29.61L7.3788 29.6049L7.37791 29.6037L7.37411 29.5983C6.76491 28.7442 6.54205 28.0611 6.52209 27.5249C6.5027 27.0039 6.67109 26.5315 7.02267 26.0747C7.322 25.6859 7.66766 25.5572 8.03149 25.5334C8.43245 25.5072 8.85153 25.6125 9.2045 25.729L9.57957 25.8528L9.92283 25.6574C11.2573 24.8978 12.2924 24.6748 13.1396 24.6802C13.9838 24.6855 14.7143 24.9161 15.4851 25.2053L29.7786 32.4828C30.2599 32.7278 30.8198 32.7678 31.331 32.5936L44.8772 27.979ZM23.7777 42.677L29.6382 55.3391C29.8302 55.7541 30.1587 56.0907 30.5687 56.2929L37.1556 59.5408C38.6607 60.283 40.3555 58.9533 39.9928 57.3148L38.1769 49.1111C38.1369 48.9304 38.3223 48.7829 38.4893 48.8624L58.9118 58.5772C59.588 58.8989 60.3873 58.8159 60.983 58.3621L74.3642 48.1672C75.5151 47.2903 75.3828 45.5192 74.1143 44.823L71.557 43.4195C71.0707 43.1526 70.4954 43.0997 69.9686 43.2733L62.3811 45.7744C62.3273 45.7921 62.2688 45.7886 62.2175 45.7647L43.8663 37.2004C43.6991 37.1224 43.6944 36.8863 43.8583 36.8016L51.2408 32.9864C52.6549 32.2556 52.6901 30.246 51.3025 29.4661L45.9288 26.4459C45.4331 26.1673 44.8422 26.1128 44.3039 26.2962L30.7577 30.9108C30.7009 30.9302 30.6387 30.9257 30.5852 30.8985L16.204 23.5765L16.1582 23.5592C15.333 23.2478 14.3434 22.91 13.1509 22.9024C12.0331 22.8953 10.8007 23.1769 9.38225 23.9264C8.9837 23.819 8.46762 23.7233 7.91542 23.7594C7.12816 23.811 6.27425 24.1325 5.61392 24.9903C5.05046 25.7223 4.70838 26.5925 4.74555 27.591C4.78213 28.574 5.18255 29.587 5.92583 30.6293L5.92679 30.6307L5.92944 30.6344L5.94308 30.6534C5.95429 30.6689 5.96978 30.69 5.98969 30.7165C6.02952 30.7695 6.08706 30.8442 6.16361 30.9392C6.31673 31.1292 6.54587 31.4002 6.86141 31.7404C7.49256 32.421 8.4689 33.3781 9.87333 34.5188C12.6404 36.766 17.0647 39.7217 23.7777 42.677Z" fill="#323B5E"/>
<path fill-rule="evenodd" clip-rule="evenodd" d="M25.2967 61.0561C24.3393 60.5793 23.324 60.4795 22.941 60.5061C21.1751 60.6287 19.9914 61.7154 19.3875 62.7444L19.0186 63.3729L18.33 63.1345C16.9397 62.653 15.5979 62.8124 14.685 63.3588C13.8064 63.8847 13.2754 64.7873 13.4346 66.0251L13.5635 67.0274H12.553C11.7886 67.0274 11.3557 67.2084 11.1013 67.4072C10.8475 67.6055 10.6745 67.8972 10.5733 68.3034C10.4121 68.9512 10.4671 69.7332 10.5716 70.4683H32.1293C32.8898 70.2225 33.3023 69.6341 33.5381 68.9889C33.6608 68.6531 33.7241 68.3273 33.756 68.0829C33.7717 67.9621 33.7794 67.8647 33.783 67.8007C33.7848 67.7687 33.7857 67.7453 33.786 67.7317L33.7862 67.7215L33.7861 67.7138C33.7858 67.7023 33.7853 67.6824 33.784 67.6549C33.7813 67.5998 33.7758 67.515 33.7644 67.4074C33.7414 67.1908 33.6952 66.8894 33.6034 66.556C33.4155 65.8737 33.0638 65.1514 32.4293 64.6839C32.1461 64.4752 31.7139 64.2101 31.0802 64.0749C30.4478 63.94 29.5607 63.9229 28.3545 64.2909L27.3754 64.5896L27.2169 63.5783C27.0137 62.2808 26.2197 61.5158 25.2967 61.0561ZM35.5641 67.7227L35.5641 67.7253L35.5641 67.7298L35.5639 67.7421L35.5632 67.7794C35.5624 67.8098 35.5608 67.8511 35.5579 67.9019C35.5521 68.0034 35.5409 68.144 35.5188 68.3128C35.4752 68.6477 35.3874 69.108 35.2078 69.5991C34.8498 70.5789 34.0801 71.7844 32.4898 72.2151L32.3757 72.246H9.06737L8.93369 71.479C8.78599 70.6319 8.5288 69.1569 8.84822 67.8739C9.01722 67.1951 9.35979 66.5118 10.0068 66.0063C10.453 65.6576 10.9977 65.4298 11.6365 65.3221C11.7248 63.7861 12.5528 62.5632 13.772 61.8334C15.0203 61.0862 16.6363 60.8734 18.2433 61.259C19.1462 60.0484 20.6667 58.882 22.8178 58.7326C23.5021 58.6851 24.8353 58.8402 26.0893 59.4648C27.1622 59.9991 28.2296 60.9088 28.7387 62.3614C29.801 62.1484 30.6997 62.176 31.4511 62.3363C32.4054 62.5398 33.0679 62.9461 33.484 63.2527C34.5681 64.0516 35.0756 65.2061 35.3174 66.084C35.4404 66.5307 35.5015 66.9303 35.5323 67.2197C35.5477 67.3651 35.5556 67.4845 35.5597 67.5703C35.5618 67.6133 35.5629 67.648 35.5634 67.6736L35.564 67.705L35.5641 67.7153L35.5641 67.7191L35.5641 67.7206V67.7227Z" fill="#323B5E"/>
<path fill-rule="evenodd" clip-rule="evenodd" d="M55.4783 11.2276C52.7559 8.27828 49.2787 8.30457 46.6123 9.18779C43.1706 10.3279 42.1991 13.2262 42.3981 14.7322L42.5517 15.8944L41.3911 15.7286C40.3281 15.5768 39.5546 15.6873 38.9928 15.9126C38.4364 16.1357 38.0354 16.4921 37.743 16.9219C37.3057 17.5646 37.1094 18.3797 37.0659 19.1124H63.6098C64.1343 18.5408 64.3909 18.0405 64.4977 17.6256C64.6175 17.1603 64.5653 16.7398 64.4039 16.3503C64.0616 15.5241 63.2169 14.8304 62.4862 14.4587L62.1097 14.2672L62.0204 13.8544C61.8323 12.9847 61.4909 12.4056 61.0996 12.0137C60.7059 11.6194 60.2178 11.371 59.6722 11.2338C58.5521 10.9521 57.269 11.1617 56.4311 11.4616L55.8773 11.6598L55.4783 11.2276ZM56.3882 9.61371C53.0918 6.39179 48.9985 6.5246 46.0533 7.50019C42.3922 8.71293 40.8051 11.6145 40.6155 13.8825C39.7511 13.8646 38.9914 13.9977 38.3311 14.2626C37.4154 14.6298 36.7445 15.229 36.2731 15.9219C35.3526 17.275 35.1994 18.9646 35.3102 20.0885L35.3892 20.8902H64.3482L64.6074 20.6365C65.4682 19.7939 65.9966 18.9345 66.2194 18.0687C66.4447 17.1931 66.3399 16.3783 66.0463 15.6697C65.5505 14.4733 64.5288 13.5948 63.6588 13.0766C63.3893 12.1104 62.942 11.3427 62.3576 10.7575C61.6969 10.0959 60.9043 9.71055 60.1059 9.50973C58.7928 9.17945 57.417 9.33407 56.3882 9.61371Z" fill="#323B5E"/>
<path fill-rule="evenodd" clip-rule="evenodd" d="M45.0591 27.9957C45.004 27.9647 44.9384 27.9587 44.8786 27.9791L31.3323 32.5937C30.8211 32.7678 30.2612 32.7279 29.78 32.4828L15.4864 25.2054C14.7156 24.9161 13.9851 24.6856 13.141 24.6802C12.2937 24.6748 11.2587 24.8979 9.92418 25.6575L9.58092 25.8529L9.20584 25.7291C8.85288 25.6126 8.4338 25.5072 8.03284 25.5335C7.66901 25.5573 7.32335 25.6859 7.02403 26.0748C6.67245 26.5315 6.50405 27.004 6.52344 27.525C6.54339 28.0611 6.76623 28.7443 7.37543 29.5983L7.37877 29.603L7.37966 29.6043L7.38383 29.6101C7.38918 29.6175 7.39871 29.6305 7.41258 29.6489C7.44032 29.6859 7.48542 29.7446 7.54919 29.8238C7.67672 29.982 7.87894 30.2218 8.16624 30.5316C8.74077 31.1511 9.65607 32.051 10.9954 33.1388C11.3275 33.4085 11.6858 33.6899 12.0715 33.9814L9.65252 34.337C8.36658 33.2764 7.46008 32.3845 6.86275 31.7405C6.54721 31.4002 6.31808 31.1293 6.16496 30.9393C6.08841 30.8443 6.03087 30.7695 5.99104 30.7165C5.97113 30.69 5.95565 30.6689 5.94443 30.6534L5.93079 30.6345L5.92814 30.6307L5.92717 30.6294C5.1839 29.587 4.78348 28.5741 4.7469 27.5911C4.70973 26.5925 5.05181 25.7224 5.61527 24.9904C6.2756 24.1325 7.12951 23.811 7.91677 23.7595C8.46897 23.7234 8.98506 23.8191 9.3836 23.9265C10.8021 23.177 12.0344 22.8954 13.1523 22.9025C14.3447 22.91 15.3343 23.2478 16.1596 23.5592L16.2054 23.5765L30.5866 30.8986C30.6401 30.9258 30.7023 30.9302 30.7591 30.9109L44.3053 26.2963C44.8435 26.1129 45.4344 26.1673 45.9301 26.4459L51.3039 29.4662C52.6915 30.2461 52.6563 32.2557 51.2422 32.9864L47.6596 34.8379L44.8442 34.8378L43.9322 34.763L50.426 31.4071C50.5831 31.3259 50.587 31.1026 50.4328 31.016L45.0591 27.9957Z" fill="#E21521"/>
</svg>
