<svg width="80" height="80" viewBox="0 0 80 80" fill="none" xmlns="http://www.w3.org/2000/svg">
<path fill-rule="evenodd" clip-rule="evenodd" d="M40.2225 23.34L38.2079 26.7989C37.7997 27.4997 37.1157 27.9967 36.323 28.1683L32.4108 29.0155L35.0779 32.0004C35.6183 32.6052 35.8796 33.4093 35.7979 34.2162L35.3946 38.1987L39.0576 36.5845C39.7998 36.2575 40.6453 36.2575 41.3874 36.5845L45.0504 38.1987L44.6472 34.2162C44.5655 33.4093 44.8267 32.6052 45.3671 32.0004L48.0342 29.0155L44.122 28.1683C43.3293 27.9967 42.6453 27.4997 42.2371 26.7989L40.2225 23.34ZM41.1826 21.4562C40.754 20.7203 39.691 20.7203 39.2624 21.4562L36.6717 25.9041C36.5147 26.1737 36.2516 26.3648 35.9467 26.4308L30.9159 27.5202C30.0836 27.7005 29.7551 28.7115 30.3225 29.3465L33.7522 33.1849C33.96 33.4175 34.0605 33.7268 34.0291 34.0371L33.5106 39.1584C33.4248 40.0056 34.2848 40.6305 35.0641 40.2871L39.7745 38.2114C40.0599 38.0856 40.3851 38.0856 40.6706 38.2114L45.3809 40.2871C46.1602 40.6305 47.0202 40.0056 46.9344 39.1584L46.4159 34.0371C46.3845 33.7268 46.485 33.4175 46.6928 33.1849L50.1225 29.3465C50.6899 28.7115 50.3614 27.7005 49.5291 27.5202L44.4983 26.4308C44.1934 26.3648 43.9303 26.1737 43.7733 25.9041L41.1826 21.4562Z" fill="#323B5E"/>
<path fill-rule="evenodd" clip-rule="evenodd" d="M35.7026 57.903C36.1825 58.0064 36.4876 58.4793 36.3842 58.9592C35.9559 60.9458 34.8484 62.3875 33.2163 63.3344C31.6202 64.2604 29.5652 64.6905 27.234 64.7924C27.0694 64.7996 26.9721 64.9276 26.9721 65.039V67.5021C26.9721 67.6248 27.0716 67.7243 27.1943 67.7243H53.253C53.3757 67.7243 53.4752 67.6248 53.4752 67.5021V65.039C53.4752 64.9242 53.3874 64.8314 53.2619 64.8323C51.9272 64.8423 49.8644 64.7801 48.0074 64.0272C46.093 63.251 44.3853 61.7288 43.9169 58.918C43.8362 58.4338 44.1633 57.9758 44.6476 57.8951C45.1318 57.8144 45.5898 58.1415 45.6705 58.6258C46.019 60.7173 47.2229 61.7907 48.6754 62.3797C50.1853 62.9919 51.9449 63.0643 53.2486 63.0546C54.3504 63.0464 55.253 63.9264 55.253 65.039V67.5021C55.253 68.6066 54.3575 69.5021 53.253 69.5021H27.1943C26.0898 69.5021 25.1943 68.6066 25.1943 67.5021V65.039C25.1943 63.923 26.0948 63.0627 27.1563 63.0163C29.3468 62.9205 31.0777 62.5198 32.3242 61.7967C33.5346 61.0945 34.3263 60.0689 34.6463 58.5846C34.7498 58.1047 35.2227 57.7995 35.7026 57.903Z" fill="#323B5E"/>
<path fill-rule="evenodd" clip-rule="evenodd" d="M11.2909 11.1105C11.2909 10.5889 11.7138 10.166 12.2354 10.166H68.1288C68.6504 10.166 69.0732 10.5889 69.0732 11.1105C69.0732 11.6321 68.6504 12.0549 68.1288 12.0549H12.2354C11.7138 12.0549 11.2909 11.6321 11.2909 11.1105Z" fill="#E21521"/>
<path fill-rule="evenodd" clip-rule="evenodd" d="M17.2648 11.7949C17.2611 11.9581 17.2593 12.1217 17.2593 12.2858V35.1914C17.2593 46.9917 26.8253 56.5577 38.6256 56.5577H41.8147C53.615 56.5577 63.181 46.9916 63.181 35.1913V12.2858C63.181 12.1217 63.1792 11.9581 63.1755 11.7949H61.3972C61.4012 11.958 61.4032 12.1217 61.4032 12.2858V35.1913C61.4032 46.0098 52.6332 54.7799 41.8147 54.7799H38.6256C27.8071 54.7799 19.0371 46.0098 19.0371 35.1914V12.2858C19.0371 12.1217 19.0391 11.9581 19.0431 11.7949H17.2648Z" fill="#323B5E"/>
<path fill-rule="evenodd" clip-rule="evenodd" d="M15.8637 16.9707C17.4111 18.0572 18.4805 19.7107 19.0062 20.8995C19.2047 21.3485 19.0017 21.8734 18.5527 22.0719C18.1037 22.2705 17.5788 22.0674 17.3803 21.6184C16.9415 20.6263 16.0484 19.2726 14.8421 18.4256C13.6881 17.6153 12.2675 17.2676 10.5447 18.1497C8.71661 19.0857 7.95071 20.3665 7.68018 21.5567C7.4097 22.7468 7.62395 23.905 7.90541 24.6109L18.9662 40.9492L18.9946 41.0085C19.3332 41.7141 19.5321 42.8446 18.9718 43.9402C18.3985 45.0612 17.1525 45.9127 15.0822 46.2941C14.5994 46.383 14.1359 46.0638 14.047 45.581C13.9581 45.0982 14.2773 44.6347 14.7601 44.5457C16.5151 44.2224 17.1567 43.5848 17.3889 43.1307C17.622 42.6751 17.5634 42.1733 17.4157 41.8301L6.33397 25.4609L6.30027 25.3816C5.88337 24.4008 5.57013 22.8192 5.94661 21.1627C6.33288 19.4632 7.43415 17.7451 9.73449 16.5673C12.1401 15.3355 14.2642 15.8476 15.8637 16.9707Z" fill="#323B5E"/>
<path fill-rule="evenodd" clip-rule="evenodd" d="M64.5816 16.9707C63.0342 18.0572 61.9648 19.7107 61.4391 20.8995C61.2406 21.3485 61.4436 21.8734 61.8926 22.0719C62.3416 22.2705 62.8665 22.0674 63.0651 21.6184C63.5038 20.6263 64.3969 19.2726 65.6032 18.4256C66.7572 17.6153 68.1778 17.2676 69.9006 18.1497C71.7287 19.0857 72.4946 20.3665 72.7651 21.5567C73.0356 22.7468 72.8214 23.905 72.5399 24.6109L61.4791 40.9492L61.4507 41.0085C61.1121 41.7141 60.9133 42.8446 61.4736 43.9402C62.0468 45.0612 63.2928 45.9127 65.3631 46.2941C65.8459 46.383 66.3094 46.0638 66.3983 45.581C66.4873 45.0982 66.168 44.6347 65.6852 44.5457C63.9302 44.2224 63.2886 43.5848 63.0564 43.1307C62.8234 42.6751 62.8819 42.1733 63.0296 41.8301L74.1114 25.4609L74.145 25.3816C74.5619 24.4008 74.8752 22.8192 74.4987 21.1627C74.1124 19.4632 73.0112 17.7451 70.7108 16.5673C68.3052 15.3355 66.1811 15.8476 64.5816 16.9707Z" fill="#323B5E"/>
<path fill-rule="evenodd" clip-rule="evenodd" d="M28.0113 51.6596C22.6115 48.1717 19.0371 42.0999 19.0371 35.1933V12.2877C19.0371 12.1236 19.0391 11.96 19.0431 11.7969H17.2648C17.2611 11.96 17.2593 12.1237 17.2593 12.2877V35.1933C17.2593 41.7564 20.2184 47.6283 24.8751 51.5477L28.0113 51.6596Z" fill="#E21521"/>
</svg>
