<svg width="80" height="80" viewBox="0 0 80 80" fill="none" xmlns="http://www.w3.org/2000/svg">
<path fill-rule="evenodd" clip-rule="evenodd" d="M68.3758 55.1022L14.1233 55.1022L14.1233 53.4355L68.3758 53.4356L68.3758 55.1022Z" fill="#ABAFBF"/>
<path fill-rule="evenodd" clip-rule="evenodd" d="M12.928 48.9957C12.8959 49.0323 12.8843 49.0727 12.8923 49.1192C14.5248 58.649 22.8279 65.9016 32.8233 65.9016H49.151C59.1463 65.9016 67.4495 58.649 69.082 49.1192C69.09 49.0727 69.0784 49.0323 69.0462 48.9957C69.012 48.9567 68.9582 48.9282 68.8902 48.9282H13.0841C13.0161 48.9282 12.9622 48.9567 12.928 48.9957ZM11.14 49.4194C10.9291 48.1884 11.9072 47.1504 13.0841 47.1504H68.8902C70.0671 47.1504 71.0451 48.1884 70.8343 49.4194C69.058 59.7884 60.0269 67.6794 49.151 67.6794H32.8233C21.9474 67.6794 12.9163 59.7884 11.14 49.4194Z" fill="#323B5E"/>
<path fill-rule="evenodd" clip-rule="evenodd" d="M29.898 67.2832C30.3889 67.2832 30.7869 67.6812 30.7869 68.1721V69.0887C34.4241 70.1398 43.0108 71.3832 52.7152 69.0482V68.1721C52.7152 67.6812 53.1132 67.2832 53.6041 67.2832C54.095 67.2832 54.493 67.6812 54.493 68.1721V69.7432C54.493 70.1491 54.218 70.5034 53.8249 70.6042C42.8962 73.4063 33.187 71.7839 29.6153 70.586C29.2531 70.4645 29.0091 70.1252 29.0091 69.7432V68.1721C29.0091 67.6812 29.407 67.2832 29.898 67.2832Z" fill="#323B5E"/>
<path fill-rule="evenodd" clip-rule="evenodd" d="M33.6268 10.0854L34.4301 10.7052C34.9145 11.0789 35.5642 11.5804 36.2258 12.0913C37.5427 13.1083 38.9231 14.1756 39.12 14.3333C39.5032 14.6402 39.5652 15.1995 39.2583 15.5828C38.9515 15.966 38.3921 16.0279 38.0089 15.7211C37.828 15.5763 36.4682 14.5247 35.1392 13.4983C34.7342 13.1856 34.3337 12.8764 33.9728 12.5978V25.3481C33.9728 25.3816 33.9728 25.4159 33.9729 25.451C33.9732 25.8769 33.9735 26.4064 33.93 26.9073C33.8853 27.421 33.7853 28.0575 33.4853 28.5524C32.8205 29.649 31.7498 30.2533 30.7029 30.5126C29.6674 30.769 28.5635 30.7128 27.7116 30.3901C26.0515 29.7612 25.2243 28.5302 24.9206 27.2887C24.6292 26.0974 24.8115 24.8822 25.1516 24.1167C25.4654 23.4103 26.2644 21.8185 28.3243 21.8185H32.195V10.7893C32.195 10.4504 32.3877 10.1411 32.6917 9.99158C32.9958 9.84209 33.3585 9.87848 33.6268 10.0854ZM32.195 23.5963H28.3243C27.4332 23.5963 27.0612 24.197 26.7763 24.8384C26.591 25.2555 26.4524 26.0688 26.6475 26.8663C26.8303 27.6136 27.2971 28.332 28.3414 28.7276C28.8194 28.9087 29.5511 28.9663 30.2755 28.7869C30.9886 28.6103 31.6023 28.2291 31.965 27.6308C32.0382 27.5102 32.1175 27.23 32.1589 26.7533C32.1954 26.3336 32.1952 25.8787 32.195 25.4379C32.195 25.4079 32.195 25.3779 32.195 25.3481V23.5963Z" fill="#323B5E"/>
<path fill-rule="evenodd" clip-rule="evenodd" d="M49.0979 8.09119C49.402 7.9417 49.7646 7.97809 50.0329 8.18502L49.49 8.8889C50.0329 8.18502 50.0328 8.18497 50.0329 8.18502L51.4413 9.2715C52.2904 9.92668 53.4294 10.8058 54.5893 11.7015C56.9025 13.488 59.315 15.3534 59.6542 15.625C60.0374 15.9318 60.0993 16.4912 59.7925 16.8745C59.4857 17.2577 58.9263 17.3196 58.5431 17.0128C58.2199 16.754 55.828 14.9044 53.5026 13.1085C52.3538 12.2213 51.2254 11.3504 50.3789 10.6973V34.4136C50.3789 34.4715 50.379 34.5306 50.379 34.5905C50.3795 35.3418 50.3801 36.2418 50.3064 37.0892C50.2293 37.9759 50.0617 38.9577 49.6212 39.6844C48.5695 41.4193 46.8644 42.3947 45.1547 42.8182C43.4563 43.2388 41.6612 43.1397 40.3084 42.6272C37.6298 41.6125 36.3153 39.6474 35.8284 37.6569C35.3537 35.7165 35.6569 33.7375 36.1948 32.5265C36.7341 31.3125 37.9742 28.895 41.1453 28.895H48.6012V8.8889C48.6012 8.55005 48.7938 8.24068 49.0979 8.09119ZM48.6012 30.6728H41.1453C39.1429 30.6728 38.3299 32.0993 37.8195 33.2482C37.4364 34.1107 37.1769 35.6879 37.5553 37.2345C37.9213 38.7308 38.8754 40.1833 40.9382 40.9647C41.917 41.3356 43.34 41.4361 44.7273 41.0925C46.1032 40.7518 47.3513 39.9994 48.101 38.7627C48.3146 38.4103 48.4615 37.7849 48.5353 36.9352C48.6019 36.169 48.6016 35.3437 48.6012 34.5776C48.6012 34.5226 48.6012 34.4679 48.6012 34.4136V30.6728Z" fill="#323B5E"/>
<path fill-rule="evenodd" clip-rule="evenodd" d="M48.9477 17.4188C49.2634 17.0429 49.8241 16.9941 50.2001 17.3098L55.6665 21.9003C56.0424 22.216 56.0913 22.7767 55.7756 23.1526C55.4599 23.5286 54.8992 23.5774 54.5232 23.2617L49.0568 18.6712C48.6809 18.3555 48.632 17.7948 48.9477 17.4188Z" fill="#323B5E"/>
<path fill-rule="evenodd" clip-rule="evenodd" d="M54.5066 47.1504H13.084C11.9071 47.1504 10.929 48.1884 11.1399 49.4194C11.9602 54.2078 14.3277 58.4678 17.7095 61.6662L19.553 60.939C16.1133 57.9453 13.6954 53.8079 12.8922 49.1192C12.8842 49.0727 12.8958 49.0323 12.9279 48.9957C12.9621 48.9567 13.016 48.9282 13.084 48.9282H50L54.5066 47.1504Z" fill="#E21521"/>
</svg>
