<svg width="80" height="80" viewBox="0 0 80 80" fill="none" xmlns="http://www.w3.org/2000/svg">
<path fill-rule="evenodd" clip-rule="evenodd" d="M14.2224 51.9121C12.5042 51.9121 11.1113 53.305 11.1113 55.0232V70.5398H12.8891V55.0232C12.8891 54.2869 13.4861 53.6899 14.2224 53.6899H66.3497C67.0861 53.6899 67.6831 54.2869 67.6831 55.0232V70.5398H69.4609V55.0232C69.4609 53.305 68.068 51.9121 66.3497 51.9121H14.2224Z" fill="#323B5E"/>
<path fill-rule="evenodd" clip-rule="evenodd" d="M21.6746 39.3223C19.9564 39.3223 18.5635 40.7152 18.5635 42.4334V52.9857H62.011V42.4334C62.011 40.7152 60.6181 39.3223 58.8999 39.3223H21.6746ZM20.3413 42.4334C20.3413 41.697 20.9382 41.1 21.6746 41.1H58.8999C59.6363 41.1 60.2332 41.697 60.2332 42.4334V52.7685H20.3413V42.4334Z" fill="#323B5E"/>
<path fill-rule="evenodd" clip-rule="evenodd" d="M30.5701 29.4512C28.8519 29.4512 27.459 30.8441 27.459 32.5623V39.3233H29.2368V32.5623C29.2368 31.8259 29.8337 31.2289 30.5701 31.2289H50.0055C50.7419 31.2289 51.3388 31.8259 51.3388 32.5623V39.3233H53.1166V32.5623C53.1166 30.8441 51.7237 29.4512 50.0055 29.4512H30.5701Z" fill="#E21521"/>
<path fill-rule="evenodd" clip-rule="evenodd" d="M39.398 29.9479V25.7227H41.1757V29.9479H39.398Z" fill="#323B5E"/>
<path fill-rule="evenodd" clip-rule="evenodd" d="M40.2958 7.53711L40.9774 8.3296C42.2045 9.75615 43.6303 11.4138 44.7464 13.1571C45.8621 14.8998 46.7411 16.8362 46.7411 18.8167C46.7411 22.6375 44.1989 25.9636 40.2853 25.9636C36.3405 25.9636 33.9876 22.6007 33.9876 18.8167C33.9876 16.8626 34.7328 14.9976 35.7828 13.2651C36.8333 11.5317 38.2314 9.86319 39.6205 8.29801L40.2958 7.53711ZM37.3031 14.1865C36.3406 15.7746 35.7654 17.3145 35.7654 18.8167C35.7654 21.9451 37.6195 24.1858 40.2853 24.1858C42.9822 24.1858 44.9633 21.9083 44.9633 18.8167C44.9633 17.3409 44.2976 15.7532 43.2492 14.1157C42.3905 12.7745 41.3238 11.4722 40.2777 10.2448C39.1514 11.5473 38.107 12.8601 37.3031 14.1865Z" fill="#323B5E"/>
<path fill-rule="evenodd" clip-rule="evenodd" d="M27.9096 60.9589C27.2612 60.6771 26.5226 60.6898 25.8843 60.9937L25.2212 61.3094C24.0152 61.8835 22.606 61.8393 21.4384 61.1907C20.7274 60.7957 19.863 60.7957 19.152 61.1906L17.6908 62.0021L16.8276 60.4479L18.2888 59.6364C19.5367 58.9433 21.0539 58.9434 22.3017 59.6366C22.967 60.0062 23.7699 60.0314 24.457 59.7042L25.1201 59.3885C26.2226 58.8636 27.4984 58.8417 28.6183 59.3285L29.8016 59.8429C30.3244 60.0702 30.928 60.0065 31.3919 59.6752C32.3978 58.9569 33.7143 58.8408 34.8303 59.3722L35.6662 59.7701C36.3045 60.074 37.0431 60.0867 37.6915 59.8049L38.7516 59.344C39.8975 58.8459 41.2051 58.8809 42.3227 59.4396L42.8489 59.7027C43.5223 60.0392 44.3131 60.0468 44.9927 59.7233L45.6331 59.4184C46.7813 58.8717 48.1148 58.8717 49.263 59.4184L49.8422 59.6941C50.5426 60.0276 51.361 60.002 52.0392 59.6253C53.2715 58.9408 54.7658 58.9239 56.0133 59.5803L56.1663 59.6608C56.8483 60.0197 57.6596 60.036 58.3554 59.7047L58.7398 59.5217C60.0416 58.9019 61.5696 58.9892 62.7922 59.7532L63.9412 60.4712L62.9991 61.9788L61.8502 61.2609C61.1423 60.8186 60.2577 60.768 59.504 61.1268L59.1196 61.3098C57.9177 61.882 56.5164 61.854 55.3384 61.2341L55.1854 61.1536C54.4688 60.7765 53.6103 60.7862 52.9024 61.1794C51.7219 61.8351 50.2972 61.8798 49.078 61.2993L48.4988 61.0236C47.834 60.7071 47.062 60.7071 46.3973 61.0236L45.7569 61.3284C44.583 61.8873 43.217 61.8742 42.054 61.2928L41.5278 61.0298C40.8808 60.7063 40.1237 60.686 39.4603 60.9744L38.4002 61.4353C37.2803 61.9221 36.0045 61.9002 34.902 61.3753L34.0661 60.9773C33.5335 60.7237 32.9052 60.7791 32.4251 61.122C31.4531 61.8161 30.1882 61.9495 29.0928 61.4733L27.9096 60.9589Z" fill="#323B5E"/>
</svg>
