<svg width="80" height="80" viewBox="0 0 80 80" fill="none" xmlns="http://www.w3.org/2000/svg">
<path fill-rule="evenodd" clip-rule="evenodd" d="M36.6152 13.5565C37.1674 13.548 38.8753 13.5217 40.094 14.8952C40.8401 14.1837 41.9286 13.5575 43.4782 13.5575H65.5555C66.66 13.5575 67.5554 14.453 67.5554 15.5575V18.0001H67.779C69.4972 18.0001 70.8901 19.393 70.8901 21.1112V62.5528C70.8901 64.271 69.4972 65.6639 67.779 65.6639H45.51C45.1752 65.6639 44.8095 65.8058 44.4548 66.0814C41.1146 68.6755 37.4663 67.3228 35.5664 66.0204C35.2225 65.7847 34.8803 65.6639 34.5678 65.6639H12.2234C10.5052 65.6639 9.1123 64.271 9.1123 62.5528V21.1112C9.1123 19.393 10.5052 18.0001 12.2234 18.0001H12.4443V15.5575C12.4443 14.453 13.3398 13.5575 14.4443 13.5575H36.5216C36.5475 13.5575 36.5789 13.557 36.6152 13.5565ZM36.5216 15.3353L36.6121 15.335C37.2665 15.3318 38.4529 15.3261 39.111 16.5892V60.7757C38.3776 60.4282 37.5373 60.1261 36.5216 60.1261H14.4397C14.3218 60.1261 14.2221 60.0315 14.2221 59.9039V15.5575C14.2221 15.4348 14.3216 15.3353 14.4443 15.3353H36.5216ZM40.8888 60.7927V16.6694C41.3933 15.9975 42.1772 15.3353 43.4782 15.3353H65.5555C65.6782 15.3353 65.7777 15.4348 65.7777 15.5575V59.9039C65.7777 60.0266 65.6782 60.1261 65.5555 60.1261H42.899C42.6109 60.126 42.3222 60.2017 42.0833 60.2813C41.8314 60.3651 41.5631 60.4782 41.2971 60.5998C41.1673 60.6591 41.0301 60.7242 40.8888 60.7927ZM12.4443 19.7779V59.9039C12.4443 61.0036 13.3302 61.9039 14.4397 61.9039H36.5216C37.4183 61.9039 38.0229 62.2143 38.8864 62.6576C39.1083 62.7716 39.3473 62.8943 39.6127 63.0227C39.8572 63.1411 40.1425 63.1411 40.3871 63.0227C40.6328 62.9038 40.8643 62.7884 41.0855 62.6781C41.4214 62.5106 41.7343 62.3546 42.036 62.2167C42.2772 62.1065 42.48 62.0229 42.6448 61.968C42.7262 61.9409 42.7898 61.9238 42.8374 61.9138C42.876 61.9057 42.8952 61.9042 42.8987 61.904L65.5555 61.9039C66.66 61.9039 67.5554 61.0085 67.5554 59.9039V19.7779H67.779C68.5153 19.7779 69.1123 20.3748 69.1123 21.1112V62.5528C69.1123 63.2892 68.5153 63.8861 67.779 63.8861H45.51C44.6735 63.8861 43.9346 64.2344 43.3643 64.6773C40.9266 66.5705 38.203 65.6724 36.5715 64.5541C36.0237 64.1785 35.3364 63.8861 34.5678 63.8861H12.2234C11.487 63.8861 10.8901 63.2892 10.8901 62.5528V21.1112C10.8901 20.3748 11.487 19.7779 12.2234 19.7779H12.4443Z" fill="#323B5E"/>
<path fill-rule="evenodd" clip-rule="evenodd" d="M19.111 30.0001C19.111 29.5092 19.509 29.1113 19.9999 29.1113H33.3332C33.8241 29.1113 34.2221 29.5092 34.2221 30.0001C34.2221 30.4911 33.8241 30.889 33.3332 30.889H19.9999C19.509 30.889 19.111 30.4911 19.111 30.0001Z" fill="#323B5E"/>
<path fill-rule="evenodd" clip-rule="evenodd" d="M45.7777 30.0001C45.7777 29.5092 46.1756 29.1113 46.6666 29.1113H59.9999C60.4908 29.1113 60.8888 29.5092 60.8888 30.0001C60.8888 30.4911 60.4908 30.889 59.9999 30.889H46.6666C46.1756 30.889 45.7777 30.4911 45.7777 30.0001Z" fill="#323B5E"/>
<path fill-rule="evenodd" clip-rule="evenodd" d="M19.1108 37.7775C19.1108 37.2865 19.5088 36.8886 19.9997 36.8886H33.3331C33.824 36.8886 34.222 37.2865 34.222 37.7775C34.222 38.2684 33.824 38.6664 33.3331 38.6664H19.9997C19.5088 38.6664 19.1108 38.2684 19.1108 37.7775Z" fill="#323B5E"/>
<path fill-rule="evenodd" clip-rule="evenodd" d="M19.1108 45.5548C19.1108 45.0639 19.5088 44.6659 19.9997 44.6659H33.3331C33.824 44.6659 34.222 45.0639 34.222 45.5548C34.222 46.0457 33.824 46.4437 33.3331 46.4437H19.9997C19.5088 46.4437 19.1108 46.0457 19.1108 45.5548Z" fill="#323B5E"/>
<path fill-rule="evenodd" clip-rule="evenodd" d="M45.7778 37.7775C45.7778 37.2865 46.1758 36.8886 46.6667 36.8886H60.0001C60.491 36.8886 60.8889 37.2865 60.8889 37.7775C60.8889 38.2684 60.491 38.6664 60.0001 38.6664H46.6667C46.1758 38.6664 45.7778 38.2684 45.7778 37.7775Z" fill="#323B5E"/>
<path fill-rule="evenodd" clip-rule="evenodd" d="M45.7778 45.5548C45.7778 45.0639 46.1758 44.6659 46.6667 44.6659H60.0001C60.491 44.6659 60.8889 45.0639 60.8889 45.5548C60.8889 46.0457 60.491 46.4437 60.0001 46.4437H46.6667C46.1758 46.4437 45.7778 46.0457 45.7778 45.5548Z" fill="#323B5E"/>
<path fill-rule="evenodd" clip-rule="evenodd" d="M39.2232 14.1634C37.9971 13.4299 36.5932 13.5492 36.1313 13.5562C36.0959 13.5567 36.0653 13.5572 36.04 13.5572H14.4458C13.3412 13.5572 12.4458 14.4526 12.4458 15.5572V41.1422L14.2236 40.1354V15.5572C14.2236 15.4345 14.3231 15.335 14.4458 15.335H36.04L36.1309 15.3346C36.5783 15.3346 37.368 15.277 37.9971 15.538L39.2232 14.1634Z" fill="#E21521"/>
</svg>
