<svg width="80" height="80" viewBox="0 0 80 80" fill="none" xmlns="http://www.w3.org/2000/svg">
<path fill-rule="evenodd" clip-rule="evenodd" d="M10.001 23.128C10.001 18.3416 13.8812 14.4614 18.6676 14.4614H61.8382C66.6247 14.4614 70.5049 18.3416 70.5049 23.128V63.8945C70.5049 68.6809 66.6247 72.5611 61.8382 72.5611H18.6676C13.8812 72.5611 10.001 68.6809 10.001 63.8945V23.128ZM18.6676 16.2392C14.863 16.2392 11.7788 19.3234 11.7788 23.128V63.8945C11.7788 67.6991 14.863 70.7833 18.6676 70.7833H61.8382C65.6428 70.7833 68.7271 67.6991 68.7271 63.8945V23.128C68.7271 19.3234 65.6428 16.2392 61.8382 16.2392H18.6676Z" fill="#323B5E"/>
<path fill-rule="evenodd" clip-rule="evenodd" d="M68.7271 29.7645H11.4365V27.9868H68.7271V29.7645Z" fill="#323B5E"/>
<path d="M33.6373 41.1636C33.6373 42.3909 32.6424 43.3858 31.4151 43.3858C30.1878 43.3858 29.1929 42.3909 29.1929 41.1636C29.1929 39.9363 30.1878 38.9414 31.4151 38.9414C32.6424 38.9414 33.6373 39.9363 33.6373 41.1636Z" fill="#323B5E"/>
<path d="M51.4064 41.1636C51.4064 42.3909 50.4114 43.3858 49.1841 43.3858C47.9568 43.3858 46.9619 42.3909 46.9619 41.1636C46.9619 39.9363 47.9568 38.9414 49.1841 38.9414C50.4114 38.9414 51.4064 39.9363 51.4064 41.1636Z" fill="#323B5E"/>
<path d="M28.4141 49.7832C27.8337 49.7832 27.3836 50.296 27.5075 50.8631C28.8156 56.8492 34.1474 61.3307 40.5259 61.3307C46.9044 61.3307 52.2362 56.8492 53.5443 50.8631C53.6682 50.296 53.2181 49.7832 52.6376 49.7832C52.1647 49.7832 51.7666 50.1293 51.6601 50.59C50.4886 55.6563 45.9483 59.4329 40.5259 59.4329C35.1035 59.4329 30.5632 55.6563 29.3917 50.59C29.2852 50.1293 28.887 49.7832 28.4141 49.7832Z" fill="#323B5E"/>
<path fill-rule="evenodd" clip-rule="evenodd" d="M68.3324 17.3896C66.7445 15.5935 64.4231 14.4609 61.8372 14.4609H18.6667C13.8802 14.4609 10 18.3411 10 23.1276V51.6025L11.7778 50.5598V23.1276C11.7778 19.323 14.862 16.2387 18.6667 16.2387H61.8372C63.767 16.2387 65.5114 17.0322 66.762 18.3106L68.3324 17.3896Z" fill="#E21521"/>
<path fill-rule="evenodd" clip-rule="evenodd" d="M24.5707 8.88867C25.0923 8.88867 25.5151 9.31151 25.5151 9.83312V19.407C25.5151 19.9286 25.0923 20.3515 24.5707 20.3515C24.0491 20.3515 23.6262 19.9286 23.6262 19.407V9.83312C23.6262 9.31151 24.0491 8.88867 24.5707 8.88867Z" fill="#323B5E"/>
<path fill-rule="evenodd" clip-rule="evenodd" d="M57.8216 8.88867C58.3432 8.88867 58.766 9.31151 58.766 9.83312V19.407C58.766 19.9286 58.3432 20.3515 57.8216 20.3515C57.3 20.3515 56.8771 19.9286 56.8771 19.407V9.83312C56.8771 9.31151 57.3 8.88867 57.8216 8.88867Z" fill="#323B5E"/>
</svg>
