<svg width="80" height="80" viewBox="0 0 80 80" fill="none" xmlns="http://www.w3.org/2000/svg">
<path fill-rule="evenodd" clip-rule="evenodd" d="M37.268 10.6758C39.9233 9.96455 42.6169 9.82335 44.3089 9.9125C44.3258 9.91339 44.3427 9.91477 44.3596 9.91663C53.8663 10.9652 59.574 15.4034 62.7958 20.5851C65.9864 25.7167 66.701 31.5112 66.3802 35.3157C66.0179 43.0827 61.7554 47.8988 56.6444 50.7191C51.5702 53.5191 45.6324 54.3785 41.7008 54.3205L41.6949 54.3204C31.9891 54.1123 25.9085 50.9685 22.2893 46.9986C18.7671 43.135 17.6542 38.5727 17.7228 35.4258L12.5371 23.2194C12.4145 22.9536 12.3141 22.7254 12.226 22.5251C12.0365 22.0941 11.9038 21.7925 11.7284 21.5233C11.5297 21.2185 11.3024 21.0085 10.8181 20.8429C10.4484 20.7165 9.67278 20.4057 9.01798 20.1389C8.68433 20.0029 8.37228 19.8744 8.14375 19.7799L7.87091 19.6668L7.76954 19.6246L8.45338 17.9836L8.55306 18.0251L8.82315 18.1371C9.0498 18.2308 9.35883 18.3581 9.68877 18.4925C10.3611 18.7665 11.0828 19.0546 11.3932 19.1607C12.26 19.4571 12.8063 19.9213 13.2177 20.5525C13.4771 20.9506 13.6981 21.4526 13.919 21.9547C13.9977 22.1335 14.0764 22.3124 14.1568 22.4865C14.1607 22.4948 14.1644 22.5032 14.168 22.5117L19.2053 34.3687H42.5933L30.2764 16.0513C30.0741 15.7505 30.0748 15.3569 30.2781 15.0568C31.8806 12.6911 34.6323 11.3817 37.268 10.6758ZM45.151 34.3687V11.8071C53.5227 12.9822 58.4656 16.9875 61.2861 21.5238C64.0215 25.9233 64.7941 30.8806 64.6575 34.3687H45.151ZM64.541 36.1465H19.5063C19.6109 38.8558 20.6743 42.5883 23.6031 45.8009C26.8329 49.3437 32.4138 52.3426 41.7302 52.5429C45.4419 52.5972 51.0522 51.7745 55.7855 49.1625C60.2692 46.6883 63.9398 42.634 64.541 36.1465ZM43.3732 11.6664V32.3427L32.1032 15.5821C33.4002 14.008 35.477 12.9959 37.7279 12.393C39.769 11.8463 41.8485 11.6648 43.3732 11.6664ZM8.45338 17.9836C8.00029 17.7947 7.47979 18.0088 7.29082 18.4619C7.10185 18.915 7.31645 19.4357 7.76954 19.6246L8.45338 17.9836Z" fill="#323B5E"/>
<path fill-rule="evenodd" clip-rule="evenodd" d="M36.7111 52.7796C37.0713 53.1131 37.093 53.6755 36.7595 54.0357L32.5158 58.6196C32.1823 58.9798 31.6199 59.0015 31.2596 58.668C30.8994 58.3345 30.8777 57.7721 31.2112 57.4118L35.4549 52.828C35.7884 52.4678 36.3508 52.4461 36.7111 52.7796Z" fill="#323B5E"/>
<path fill-rule="evenodd" clip-rule="evenodd" d="M47.413 52.7835C47.0527 53.117 47.031 53.6794 47.3646 54.0396L51.6082 58.6235C51.9418 58.9837 52.5042 59.0054 52.8644 58.6719C53.2246 58.3384 53.2463 57.776 52.9128 57.4158L48.6691 52.8319C48.3356 52.4717 47.7732 52.45 47.413 52.7835Z" fill="#323B5E"/>
<path fill-rule="evenodd" clip-rule="evenodd" d="M27.1456 57.8752C23.2786 57.8752 20.1438 61.01 20.1438 64.877C20.1438 68.744 23.2786 71.8789 27.1456 71.8789C31.0126 71.8789 34.1474 68.744 34.1474 64.877C34.1474 61.01 31.0126 57.8752 27.1456 57.8752ZM18.366 64.877C18.366 60.0282 22.2968 56.0974 27.1456 56.0974C31.9944 56.0974 35.9252 60.0282 35.9252 64.877C35.9252 69.7259 31.9944 73.6566 27.1456 73.6566C22.2968 73.6566 18.366 69.7259 18.366 64.877Z" fill="#323B5E"/>
<path fill-rule="evenodd" clip-rule="evenodd" d="M56.783 57.8774C60.65 57.8774 63.7848 61.0122 63.7848 64.8792C63.7848 68.7462 60.65 71.881 56.783 71.881C52.916 71.881 49.7812 68.7462 49.7812 64.8792C49.7812 61.0122 52.916 57.8774 56.783 57.8774ZM65.5626 64.8792C65.5626 60.0304 61.6318 56.0996 56.783 56.0996C51.9342 56.0996 48.0034 60.0304 48.0034 64.8792C48.0034 69.728 51.9342 73.6588 56.783 73.6588C61.6318 73.6588 65.5626 69.728 65.5626 64.8792Z" fill="#323B5E"/>
<path fill-rule="evenodd" clip-rule="evenodd" d="M66.4129 34.9314C66.6553 31.1282 65.8851 25.5468 62.8001 20.5851C59.5783 15.4034 53.8706 10.9652 44.3639 9.91663C44.3471 9.91477 44.3302 9.91339 44.3132 9.9125C42.6212 9.82335 39.9277 9.96455 37.2723 10.6758C34.6366 11.3817 31.8849 12.6911 30.2824 15.0568C30.0791 15.3569 30.0784 15.7505 30.2807 16.0513L30.4503 16.3035L32.1735 15.6802L32.1075 15.5821C33.4045 14.008 35.4813 12.9959 37.7322 12.393C39.7733 11.8463 41.8528 11.6648 43.3776 11.6664V11.7815L45.2907 11.7815L45.338 11.8333C53.599 13.0407 58.4905 17.0206 61.2904 21.5238C63.6897 25.3827 64.5789 29.6707 64.669 33.0201L66.4129 34.9314Z" fill="#E21521"/>
</svg>
