<?xml version="1.0" encoding="utf-8"?>
<!-- Generator: Adobe Illustrator 24.1.1, SVG Export Plug-In . SVG Version: 6.00 Build 0)  -->
<svg version="1.1" id="Layer_1" xmlns="http://www.w3.org/2000/svg" xmlns:xlink="http://www.w3.org/1999/xlink" x="0px" y="0px"
	 viewBox="0 0 122.02 121.32" style="enable-background:new 0 0 122.02 121.32;" xml:space="preserve">
<style type="text/css">
	.st0{fill:#EE242E;}
</style>
<g>
	<path class="st0" d="M38.19,98.84c9.54,0,14.32-4.84,14.32-14.52V0h23.87v84.33c0,11.41-3.52,20.43-10.54,27.05
		c-7.03,6.63-16.25,9.94-27.64,9.94c-11.54,0-20.79-3.31-27.75-9.94C3.48,104.75,0,95.74,0,84.33V0h23.87v84.33
		C23.87,94.01,28.64,98.84,38.19,98.84z"/>
	<path class="st0" d="M110.95,18.7c3.1,0,5.72,1.12,7.86,3.33c2.14,2.22,3.21,4.93,3.21,8.12c0,3.13-1.05,5.73-3.16,7.8
		c-2.1,2.07-4.74,3.11-7.92,3.11c-3.17,0-5.85-1.07-8.02-3.22c-2.18-2.14-3.27-4.78-3.27-7.91c0-3.05,1.09-5.69,3.27-7.9
		c2.18-2.22,4.78-3.33,7.81-3.33H110.95z M111.07,69.98c3.05,0,5.64,1.09,7.77,3.27c2.12,2.18,3.19,4.76,3.19,7.74
		c0,3.13-1.07,5.8-3.19,8.02c-2.13,2.22-4.72,3.33-7.77,3.33c-3.21,0-5.91-1.07-8.11-3.22c-2.2-2.14-3.3-4.71-3.3-7.69
		c0-3.12,1.1-5.81,3.3-8.07c2.2-2.25,4.83-3.39,7.89-3.39H111.07z"/>
</g>
</svg>
