<svg width="1784" height="102" viewBox="0 0 1784 102" fill="none" xmlns="http://www.w3.org/2000/svg">
<g opacity="0.6">
<path d="M32.4472 83.6042C36.574 83.6042 39.7652 82.5697 41.921 80.4089C44.0766 78.2483 45.1127 75.0462 45.1127 70.8935V0.5H64.3944V70.8935C64.3944 80.3658 61.453 87.8125 55.5929 93.2779C49.7229 98.7525 42.0299 101.5 32.4472 101.5C22.8614 101.5 15.0158 98.7508 9.21744 93.2799C3.42483 87.8144 0.5 80.3837 0.5 70.8935V0.5H19.7817V70.8935C19.7817 75.0374 20.8133 78.2394 22.9666 80.4021C25.1202 82.5653 28.3115 83.6042 32.4472 83.6042Z" stroke="#ABAFBF"/>
<path d="M93.7562 20.9697V20.9819H94.2562C96.7582 20.9819 98.8523 21.8658 100.585 23.6284C102.3 25.3906 103.165 27.5491 103.165 30.1004C103.165 32.6499 102.318 34.667 100.628 36.3074C98.9371 37.949 96.8253 38.7754 94.2562 38.7754C91.693 38.7754 89.5449 37.9187 87.7809 36.2052C86.0198 34.4945 85.1582 32.4082 85.1582 29.9128C85.1582 27.4227 86.0162 25.3993 87.7875 23.6138L87.7875 23.6138C89.4646 21.923 91.4567 21.042 93.7562 20.9697ZM93.8596 64.0822V64.0944H94.3596C96.8279 64.0944 98.8886 64.9618 100.604 66.6921C102.322 68.4243 103.165 70.4811 103.165 72.8547C103.165 75.3518 102.301 77.4781 100.6 79.2433C98.8842 81.0057 96.8077 81.8879 94.3596 81.8879C91.7608 81.8879 89.5952 81.0303 87.8144 79.3167C86.0467 77.5993 85.1754 75.5785 85.1754 73.2128C85.1754 70.8348 86.056 68.5738 87.8235 66.7759C89.5184 65.0519 91.5279 64.1549 93.8596 64.0822Z" stroke="#ABAFBF"/>
<path d="M157.607 90.2342C160.198 90.2342 163.3 89.4692 166.913 87.9902V98.7691C163.007 100.588 159.114 101.5 155.23 101.5C147.253 101.5 140.359 98.4733 134.525 92.3891C131.651 89.3922 129.454 84.7231 127.979 78.318C126.506 71.9186 125.762 63.8287 125.762 54.0359C125.762 43.4129 126.501 34.5467 127.975 27.429C129.45 20.3059 131.653 14.9708 134.553 11.3759L134.554 11.3753C140.395 4.11375 147.44 0.5 155.709 0.5C158.727 0.5 162.459 0.986956 166.913 1.97102V13.0396C164.033 11.9754 161.307 11.4518 158.724 11.4518C153.207 11.4518 148.529 14.1967 144.681 19.5643C142.73 22.2854 141.299 26.2813 140.351 31.5044C139.401 36.7348 138.931 43.2358 138.931 51C138.931 60.2389 139.339 67.4927 140.178 72.7483C141.006 78.0446 142.958 82.2804 146.003 85.4566L146.004 85.4576C149.083 88.6496 152.958 90.2342 157.607 90.2342Z" stroke="#ABAFBF"/>
<path d="M206.128 49.998L206.113 50.0132C206.152 39.8181 206.687 31.3939 207.716 24.7323C208.788 17.7991 210.388 12.8287 212.479 9.75542L212.479 9.75516C216.65 3.61553 223.561 0.5 233.309 0.5C244.506 0.5 251.784 4.00378 255.369 10.8405L255.37 10.8414C259.031 17.7885 260.898 30.4129 260.898 48.8016C260.898 65.2746 260.063 76.6435 258.414 82.9425C256.767 89.2339 253.945 93.8141 249.984 96.729C246 99.6471 240.566 101.134 233.628 101.134C226.675 101.134 221.033 99.7626 217.305 97.0754C213.574 94.385 210.751 90.0107 208.909 83.8506L208.909 83.849C207.053 77.7161 206.128 66.844 206.128 51.1919V49.998ZM244.306 16.8723L244.305 16.8709C243.14 14.5954 241.672 12.8599 239.889 11.6946C238.103 10.5275 236.028 9.95124 233.682 9.95124C230.936 9.95124 228.584 10.6371 226.66 12.0383C224.738 13.4377 223.281 15.5217 222.272 18.2514C220.27 23.6632 219.279 32.6921 219.279 45.312V50.7557C219.279 64.8246 220.076 75.1354 221.688 81.6537C222.503 84.9507 223.902 87.4777 225.923 89.1788C227.949 90.8839 230.549 91.7172 233.682 91.7172C237.599 91.7172 240.929 89.7966 243.661 86.0691C245.072 84.1429 246.08 80.6128 246.745 75.5907C247.414 70.5414 247.747 63.8954 247.747 55.6585V51.9945C247.747 42.5737 247.463 34.9398 246.896 29.1004C246.331 23.2831 245.479 19.1805 244.306 16.8723Z" stroke="#ABAFBF"/>
<path d="M351.009 37.3048L337.634 100.244H330.007L317.161 37.3088L317.079 36.9087H316.671H316.281H315.821L315.783 37.3669L310.502 100.244H298.817L308.647 2.24536H319.524L333.346 71.2337L333.427 71.6354H333.836H334.156H334.565L334.646 71.2346L348.609 2.24536H359.645L369.159 100.244H357.474L352.316 37.3679L352.278 36.9087H351.817H351.498H351.093L351.009 37.3048Z" stroke="#ABAFBF"/>
<path d="M418.961 56.8167L418.468 56.8236V57.3166V100.262H405.813V2.24536H427.603C434.722 2.24536 439.99 4.53926 443.496 9.06556C447.02 13.616 448.826 20.5002 448.826 29.8014C448.826 37.2207 447.556 42.9814 445.05 47.1486C442.526 51.3436 439.426 53.9313 435.745 55.0046C431.98 56.1021 426.395 56.7122 418.961 56.8167ZM418.485 46.8479V47.3479H418.985C424.826 47.3479 429.113 46.2101 431.752 43.7981C433.096 42.5787 434.069 40.7667 434.707 38.421C435.345 36.0737 435.658 33.1602 435.658 29.6967C435.658 26.2364 435.386 23.2867 434.831 20.8782C434.278 18.4736 433.436 16.5752 432.27 15.2511C429.936 12.5993 425.426 11.3651 418.985 11.3651H418.485V11.8651V46.8479Z" stroke="#ABAFBF"/>
<path d="M512.644 80.9186L512.568 80.5109H512.153H490.874H490.46L490.382 80.9173L486.7 100.244H474.808L496.241 2.24536H506.555L528.164 100.244H516.274L512.644 80.9186ZM510.362 71.5656H510.964L510.853 70.9733L501.987 23.7943L501.91 23.3867H501.495H501.176H500.757L500.684 23.7993L492.314 70.9783L492.21 71.5656H492.806H510.362Z" stroke="#ABAFBF"/>
<path d="M602.492 69.7396V2.24536H613.461V100.244H603.597L578.184 32.6266L578.062 32.3025H577.716H577.396H576.896V32.8025V100.244H565.75V2.24536H575.721L601.205 69.8288L601.295 70.0674L601.541 70.1347L601.86 70.2219L602.492 70.3946V69.7396Z" stroke="#ABAFBF"/>
<path d="M657.973 2.24536H670.627V100.244H657.973V2.24536Z" stroke="#ABAFBF"/>
<path d="M716.473 49.9993L716.457 50.0145C716.496 39.8188 717.031 31.3942 718.061 24.7323C719.132 17.7991 720.732 12.8287 722.823 9.75542L722.823 9.75516C726.995 3.61553 733.906 0.5 743.654 0.5C754.851 0.5 762.128 4.00378 765.714 10.8405L765.714 10.8414C769.375 17.7885 771.242 30.4129 771.242 48.8016C771.242 65.2746 770.407 76.6435 768.758 82.9425C767.112 89.2339 764.289 93.8141 760.328 96.729C756.345 99.6471 750.91 101.134 743.973 101.134C737.019 101.134 731.377 99.7626 727.65 97.0754C723.918 94.385 721.095 90.0107 719.254 83.8506L719.253 83.849C717.397 77.7161 716.473 66.844 716.473 51.1919V49.9993ZM754.65 16.8723L754.65 16.8709C753.484 14.5954 752.017 12.8599 750.233 11.6946C748.447 10.5275 746.373 9.95124 744.026 9.95124C741.28 9.95124 738.929 10.6371 737.004 12.0383C735.082 13.4377 733.626 15.5217 732.616 18.2514C730.614 23.6632 729.624 32.6921 729.624 45.312V50.7557C729.624 64.8246 730.421 75.1354 732.032 81.6537C732.847 84.9507 734.246 87.4777 736.267 89.1788C738.293 90.8839 740.893 91.7172 744.026 91.7172C747.943 91.7172 751.273 89.7966 754.005 86.0691C755.417 84.1429 756.424 80.6128 757.09 75.5907C757.759 70.5414 758.092 63.8954 758.092 55.6585V51.9945C758.092 42.5737 757.808 34.9398 757.24 29.1004C756.675 23.2831 755.823 19.1805 754.65 16.8723Z" stroke="#ABAFBF"/>
<path d="M848.53 69.7396V2.24536H859.5V100.244H849.636L824.222 32.6266L824.1 32.3025H823.754H823.435H822.935V32.8025V100.244H811.788V2.24536H821.759L847.243 69.8288L847.333 70.0674L847.579 70.1347L847.898 70.2219L848.53 70.3946V69.7396Z" stroke="#ABAFBF"/>
</g>
<path d="M1091.41 99.0862C1087.35 101.023 1083.29 102 1079.23 102C1071.11 102 1064.09 98.9117 1058.16 92.7352C1052.24 86.5587 1049.26 73.6647 1049.26 54.0359C1049.26 32.7496 1052.22 18.4249 1058.16 11.0619C1064.09 3.69894 1071.27 0 1079.71 0C1082.87 0 1086.77 0.523435 1091.41 1.5703V13.7663C1088.33 12.545 1085.44 11.9518 1082.72 11.9518C1077.4 11.9518 1072.86 14.5864 1069.09 19.8556C1065.31 25.1249 1063.43 35.5063 1063.43 51C1063.43 60.2299 1063.84 67.4533 1064.67 72.6702C1065.49 77.8871 1067.4 82.0222 1070.36 85.1105C1073.34 88.1988 1077.08 89.7342 1081.61 89.7342C1084.27 89.7342 1087.53 88.8967 1091.41 87.2391V99.0862Z" fill="#E21521"/>
<path d="M1129.61 51.2093C1129.61 29.7136 1131.76 15.8077 1136.07 9.47416C1140.36 3.15805 1147.45 0 1157.31 0C1168.6 0 1176.11 3.54191 1179.81 10.6083C1183.54 17.6746 1185.4 30.4115 1185.4 48.8015C1185.4 65.2723 1184.56 76.7006 1182.9 83.0691C1181.23 89.4375 1178.36 94.131 1174.28 97.132C1170.18 100.133 1164.63 101.634 1157.63 101.634C1150.62 101.634 1144.86 100.255 1141.01 97.481C1137.16 94.7067 1134.29 90.2227 1132.43 83.9938C1130.55 77.7824 1129.63 66.8426 1129.63 51.1919L1129.61 51.2093ZM1171.25 51.9945C1171.25 33.1683 1170.11 21.5306 1167.86 17.0989C1165.59 12.6671 1162.2 10.4512 1157.68 10.4512C1152.36 10.4512 1148.71 13.1033 1146.74 18.4249C1144.77 23.7465 1143.78 32.6972 1143.78 45.312V50.7557C1143.78 64.8186 1144.58 75.078 1146.17 81.5337C1147.77 87.9893 1151.6 91.2172 1157.68 91.2172C1161.41 91.2172 1164.6 89.4026 1167.26 85.7735C1169.92 82.1443 1171.25 72.1118 1171.25 55.6585V51.9945Z" fill="#E21521"/>
<path d="M1293.71 100.745H1281.01L1275.82 37.409H1275.5L1262.04 100.745H1253.6L1240.67 37.409H1240.28L1234.96 100.745H1222.26L1232.19 1.74561H1243.93L1257.84 71.1357H1258.16L1272.2 1.74561H1284.1L1293.71 100.745Z" fill="#E21521"/>
<path d="M1329.33 1.74561H1351.6C1366.07 1.74561 1373.33 11.0976 1373.33 29.8017C1373.33 37.2693 1372.05 43.1318 1369.48 47.4065C1366.91 51.6812 1363.71 54.3682 1359.88 55.4849C1356.05 56.6015 1350.42 57.2122 1342.97 57.3169V100.762H1329.31V1.74561H1329.33ZM1342.99 46.8482C1348.78 46.8482 1352.92 45.7141 1355.42 43.4284C1357.92 41.1602 1359.16 36.5714 1359.16 29.697C1359.16 22.8226 1358.08 18.0593 1355.89 15.5817C1353.71 13.1041 1349.4 11.8653 1342.99 11.8653V46.8482Z" fill="#E21521"/>
<path d="M1452.79 100.745H1439.86L1436.15 81.0112H1414.87L1411.11 100.745H1398.19L1419.84 1.74561H1430.96L1452.79 100.745ZM1434.36 71.0659L1425.5 23.8869H1425.18L1416.81 71.0659H1434.36Z" fill="#E21521"/>
<path d="M1537.94 100.745H1527.25L1501.72 32.8028H1501.4V100.745H1489.25V1.74561H1500.07L1525.67 69.6526L1525.99 69.7399V1.74561H1537.96V100.745H1537.94Z" fill="#E21521"/>
<path d="M1581.47 1.74561H1595.13V100.745H1581.47V1.74561Z" fill="#E21521"/>
<path d="M1639.96 51.2093C1639.96 29.7136 1642.1 15.8077 1646.41 9.47416C1650.7 3.15805 1657.79 0 1667.65 0C1678.95 0 1686.45 3.54191 1690.16 10.6083C1693.88 17.6746 1695.74 30.4115 1695.74 48.8015C1695.74 65.2723 1694.91 76.7006 1693.24 83.0691C1691.58 89.4375 1688.7 94.131 1684.62 97.132C1680.53 100.133 1674.98 101.634 1667.97 101.634C1660.97 101.634 1655.21 100.255 1651.36 97.481C1647.51 94.7067 1644.64 90.2227 1642.77 83.9938C1640.89 77.7824 1639.97 66.8426 1639.97 51.1919L1639.96 51.2093ZM1681.59 51.9945C1681.59 33.1683 1680.46 21.5306 1678.2 17.0989C1675.93 12.6671 1672.55 10.4512 1668.03 10.4512C1662.71 10.4512 1659.05 13.1033 1657.08 18.4249C1655.12 23.7465 1654.12 32.6972 1654.12 45.312V50.7557C1654.12 64.8186 1654.92 75.078 1656.52 81.5337C1658.11 87.9893 1661.94 91.2172 1668.03 91.2172C1671.75 91.2172 1674.94 89.4026 1677.6 85.7735C1680.26 82.1443 1681.59 72.1118 1681.59 55.6585V51.9945Z" fill="#E21521"/>
<path d="M1783.98 100.745H1773.29L1747.75 32.8028H1747.44V100.745H1735.29V1.74561H1746.11L1771.71 69.6526L1772.03 69.7399V1.74561H1784V100.745H1783.98Z" fill="#E21521"/>
<path d="M956.447 83.1042C964.546 83.1042 968.613 79.0453 968.613 70.8935V0L988.894 0V70.8935C988.894 80.4778 985.913 88.0669 979.934 93.6435C973.954 99.2202 966.131 102 956.447 102C946.763 102 938.785 99.2202 932.874 93.6435C926.964 88.0669 924 80.4949 924 70.8935V0L944.282 0V70.8935C944.282 79.0283 948.331 83.1042 956.447 83.1042Z" fill="#E21521"/>
<path d="M1018.26 20.4819C1020.89 20.4819 1023.12 21.4199 1024.94 23.2788C1026.75 25.1376 1027.66 27.4229 1027.66 30.1004C1027.66 32.7778 1026.77 34.9266 1024.98 36.6661C1023.18 38.4056 1020.94 39.2754 1018.26 39.2754C1015.57 39.2754 1013.29 38.3715 1011.43 36.5638C1009.57 34.7561 1008.66 32.5391 1008.66 29.9128C1008.66 27.2864 1009.57 25.1376 1011.43 23.2617C1013.28 21.4028 1015.5 20.4648 1018.07 20.4648H1018.26V20.4819ZM1018.36 63.5944C1020.96 63.5944 1023.15 64.5153 1024.96 66.3401C1026.77 68.1649 1027.66 70.3478 1027.66 72.8547C1027.66 75.481 1026.75 77.7322 1024.96 79.5911C1023.15 81.4499 1020.94 82.3879 1018.36 82.3879C1015.64 82.3879 1013.35 81.4841 1011.47 79.6763C1009.61 77.8686 1008.68 75.7198 1008.68 73.2129C1008.68 70.7059 1009.61 68.3184 1011.47 66.4254C1013.33 64.5324 1015.57 63.5774 1018.17 63.5774H1018.36V63.5944Z" fill="#E21521"/>
</svg>
