<svg width="1000" height="128" viewBox="0 0 1000 128" fill="none" xmlns="http://www.w3.org/2000/svg">
<path d="M37.7293 101.559C47.1466 101.559 51.8753 96.7939 51.8753 87.2242V4H75.4586V87.2242C75.4586 98.4756 71.9922 107.385 65.0395 113.931C58.0867 120.478 48.99 123.741 37.7293 123.741C26.4686 123.741 17.1916 120.478 10.319 113.931C3.44633 107.385 0 98.4956 0 87.2242V4H23.5833V87.2242C23.5833 96.7739 28.292 101.559 37.7293 101.559Z" fill="#E21521"/>
<path d="M109.6 28.0442C112.666 28.0442 115.251 29.1453 117.375 31.3275C119.479 33.5097 120.54 36.1924 120.54 39.3356C120.54 42.4788 119.499 45.0013 117.415 47.0434C115.331 49.0855 112.726 50.1065 109.6 50.1065C106.475 50.1065 103.83 49.0454 101.666 46.9233C99.5018 44.8011 98.4399 42.1985 98.4399 39.1154C98.4399 36.0323 99.5018 33.5097 101.666 31.3075C103.81 29.1253 106.394 28.0242 109.38 28.0242H109.6V28.0442ZM109.721 78.6554C112.746 78.6554 115.291 79.7365 117.395 81.8786C119.499 84.0208 120.54 86.5834 120.54 89.5264C120.54 92.6095 119.479 95.2522 117.395 97.4344C115.291 99.6166 112.726 100.718 109.721 100.718C106.555 100.718 103.89 99.6566 101.706 97.5345C99.5419 95.4123 98.4599 92.8898 98.4599 89.9468C98.4599 87.0038 99.5419 84.201 101.706 81.9787C103.87 79.7565 106.475 78.6354 109.5 78.6354H109.721V78.6554Z" fill="#E21521"/>
<path d="M194.666 120.321C189.944 122.594 185.223 123.741 180.501 123.741C171.057 123.741 162.892 120.116 156.005 112.865C149.118 105.614 145.654 90.4775 145.654 67.4346C145.654 42.4458 149.097 25.6296 156.005 16.986C162.892 8.34231 171.243 4 181.057 4C184.728 4 189.264 4.61448 194.666 5.84343V20.1608C191.078 18.727 187.718 18.0306 184.563 18.0306C178.377 18.0306 173.098 21.1234 168.706 27.3092C164.314 33.4949 162.129 45.6821 162.129 63.8706C162.129 74.7059 162.603 83.1857 163.572 89.31C164.521 95.4343 166.748 100.289 170.191 103.914C173.655 107.539 178.006 109.342 183.264 109.342C186.357 109.342 190.151 108.359 194.666 106.413V120.321Z" fill="#E21521"/>
<path d="M239.082 64.1164C239.082 38.8818 241.577 22.5572 246.588 15.122C251.578 7.70735 259.826 4 271.29 4C284.424 4 293.147 8.15796 297.456 16.4534C301.786 24.7488 303.951 39.7011 303.951 61.2898C303.951 80.6253 302.982 94.0414 301.044 101.518C299.106 108.994 295.765 114.503 291.023 118.026C286.26 121.549 279.806 123.311 271.661 123.311C263.516 123.311 256.815 121.693 252.341 118.436C247.866 115.179 244.526 109.915 242.361 102.603C240.175 95.3113 239.103 82.4687 239.103 64.0959L239.082 64.1164ZM287.497 65.0381C287.497 42.9374 286.177 29.2755 283.558 24.0729C280.919 18.8703 276.981 16.2691 271.723 16.2691C265.537 16.2691 261.289 19.3824 259.001 25.6296C256.712 31.8768 255.557 42.3843 255.557 57.1932V63.5838C255.557 80.0928 256.485 92.1365 258.341 99.7151C260.197 107.294 264.65 111.083 271.723 111.083C276.053 111.083 279.764 108.953 282.857 104.692C285.95 100.432 287.497 88.6545 287.497 69.3394V65.0381Z" fill="#E21521"/>
<path d="M429.895 122.268H415.132L409.09 47.9158H408.719L393.069 122.268H383.254L368.222 47.9158H367.769L361.583 122.268H346.819L358.366 6.04933H372.016L388.182 87.5087H388.553L404.884 6.04933H418.719L429.895 122.268Z" fill="#E21521"/>
<path d="M497.213 6.04933C514.039 6.04933 522.472 17.028 522.472 38.9853C522.472 47.7518 520.988 54.634 517.998 59.6522C515.008 64.6704 511.296 67.8247 506.843 69.1356C502.389 70.4465 495.832 71.1634 487.172 71.2863V122.288H471.295V6.04933H497.213ZM487.192 58.9967C493.935 58.9967 498.739 57.6654 501.647 54.9822C504.554 52.3194 505.997 46.9325 505.997 38.8624C505.997 30.7923 504.739 25.2005 502.203 22.292C499.667 19.3835 494.657 17.9292 487.192 17.9292V58.9967Z" fill="#E21521"/>
<path d="M614.867 122.268H599.836L595.527 99.1018H570.783L566.412 122.268H551.38L576.557 6.04933H589.485L614.867 122.268ZM593.444 87.4267L583.134 32.0418H582.763L573.031 87.4267H593.444Z" fill="#E21521"/>
<path d="M701.455 122.268L671.763 42.5084H671.391V122.268H657.267V6.04933H669.845L699.619 85.7677L699.991 85.8701V6.04933H713.909V122.268H701.455Z" fill="#E21521"/>
<path d="M764.504 6.04933H780.381V122.268H764.504V6.04933Z" fill="#E21521"/>
<path d="M832.506 64.1164C832.506 38.8818 835.001 22.5572 840.012 15.122C845.002 7.70735 853.249 4 864.714 4C877.848 4 886.57 8.15796 890.88 16.4534C895.21 24.7488 897.375 39.7011 897.375 61.2898C897.375 80.6253 896.406 94.0414 894.468 101.518C892.529 108.994 889.189 114.503 884.447 118.026C879.683 121.549 873.23 123.311 865.085 123.311C856.94 123.311 850.239 121.693 845.764 118.436C841.29 115.179 837.95 109.915 835.785 102.603C833.599 95.3113 832.527 82.4687 832.527 64.0959L832.506 64.1164ZM880.921 65.0381C880.921 42.9374 879.601 29.2755 876.982 24.0729C874.343 18.8703 870.405 16.2691 865.147 16.2691C858.961 16.2691 854.713 19.3824 852.424 25.6296C850.136 31.8768 848.981 42.3843 848.981 57.1932V63.5838C848.981 80.0928 849.909 92.1365 851.765 99.7151C853.62 107.294 858.074 111.083 865.147 111.083C869.477 111.083 873.188 108.953 876.281 104.692C879.374 100.432 880.921 88.6545 880.921 69.3394V65.0381Z" fill="#E21521"/>
<path d="M987.546 122.268L957.854 42.5084H957.483V122.268H943.359V6.04933H955.937L985.711 85.7677L986.082 85.8701V6.04933H1000V122.268H987.546Z" fill="#E21521"/>
</svg>
