<svg width="49" height="48" viewBox="0 0 49 48" fill="none" xmlns="http://www.w3.org/2000/svg">
<g opacity="0.6">
<path fill-rule="evenodd" clip-rule="evenodd" d="M21.6326 32.0268C21.6326 35.3107 20.0228 36.9494 16.8052 36.9494H16.8031C13.5855 36.9494 11.9757 35.3085 11.9757 32.0268V3.42773H3.92856V32.0268C3.92856 35.8959 5.10093 38.9522 7.44782 41.2022C9.79256 43.45 12.9605 44.5728 16.8031 44.5728C20.6456 44.5728 23.7532 43.45 26.1238 41.2022C28.4923 38.9544 29.6798 35.8959 29.6798 32.0268V3.42773H21.6326V32.0268ZM43.9896 10.8994C43.2676 10.1472 42.3819 9.77009 41.3388 9.77009V9.77226H41.2655C40.244 9.77226 39.3669 10.1494 38.6341 10.9016C37.8993 11.6537 37.5329 12.5229 37.5329 13.5829C37.5329 14.6428 37.8993 15.5359 38.6341 16.2642C39.3669 16.9903 40.2699 17.3545 41.3388 17.3545C42.4077 17.3545 43.2978 17.0033 44.0068 16.301C44.7158 15.5987 45.0714 14.7382 45.0714 13.6544C45.0714 12.5706 44.7115 11.6516 43.9896 10.8994ZM43.9982 28.2704C43.2805 27.5291 42.4077 27.1606 41.3776 27.1606H41.3022C40.2699 27.1606 39.3841 27.5464 38.6428 28.3094C37.8993 29.0724 37.5307 30.0305 37.5307 31.0449C37.5307 32.0593 37.9014 32.9264 38.6428 33.6547C39.3841 34.3808 40.2979 34.745 41.3776 34.745C42.4077 34.745 43.2805 34.37 43.9982 33.6178C44.7137 32.8657 45.0736 31.9575 45.0736 30.8975C45.0736 29.8852 44.7137 29.0095 43.9982 28.2704Z" fill="#ADAEB2"/>
</g>
</svg>
