<svg width="176" height="25" viewBox="0 0 176 25" fill="none" xmlns="http://www.w3.org/2000/svg">
<path d="M8.58232 18.9749C10.2002 18.9749 11.0126 18.1563 11.0126 16.5122V2.21436H15.0642V16.5122C15.0642 18.4452 14.4687 19.9757 13.2742 21.1004C12.0797 22.2252 10.5169 22.7858 8.58232 22.7858C6.64775 22.7858 5.05396 22.2252 3.87325 21.1004C2.69254 19.9757 2.10046 18.4486 2.10046 16.5122V2.21436H6.15206V16.5122C6.15206 18.1528 6.961 18.9749 8.58232 18.9749Z" fill="#4A4B4C"/>
<path d="M20.93 6.34475C21.4567 6.34475 21.9007 6.53392 22.2656 6.90882C22.6271 7.28372 22.8095 7.74461 22.8095 8.2846C22.8095 8.8246 22.6305 9.25797 22.2725 9.6088C21.9145 9.95962 21.467 10.135 20.93 10.135C20.393 10.135 19.9386 9.95274 19.5668 9.58816C19.1951 9.22358 19.0126 8.77645 19.0126 8.24677C19.0126 7.71709 19.1951 7.28372 19.5668 6.90538C19.9352 6.53048 20.3792 6.34131 20.8921 6.34131H20.93V6.34475ZM20.9507 15.0397C21.4704 15.0397 21.9076 15.2254 22.2691 15.5935C22.6305 15.9615 22.8095 16.4017 22.8095 16.9073C22.8095 17.437 22.6271 17.891 22.2691 18.2659C21.9076 18.6408 21.467 18.83 20.9507 18.83C20.4068 18.83 19.9489 18.6477 19.5737 18.2831C19.202 17.9185 19.0161 17.4852 19.0161 16.9796C19.0161 16.474 19.202 15.9924 19.5737 15.6107C19.9455 15.2289 20.393 15.0363 20.9128 15.0363H20.9507V15.0397Z" fill="#4A4B4C"/>
<path d="M35.5442 22.1981C34.733 22.5887 33.9218 22.7858 33.1106 22.7858C31.4881 22.7858 30.0853 22.1629 28.9022 20.9173C27.719 19.6716 27.1239 17.0711 27.1239 13.1124C27.1239 8.81931 27.7155 5.9303 28.9022 4.44533C30.0853 2.96036 31.52 2.21436 33.2062 2.21436C33.8368 2.21436 34.6161 2.31992 35.5442 2.53106V4.99076C34.9278 4.74444 34.3504 4.62479 33.8084 4.62479C32.7457 4.62479 31.8388 5.15615 31.0843 6.21885C30.3298 7.28156 29.9543 9.3753 29.9543 12.5001C29.9543 14.3616 30.0358 15.8184 30.2022 16.8705C30.3652 17.9227 30.7478 18.7567 31.3394 19.3795C31.9345 20.0023 32.6819 20.312 33.5852 20.312C34.1166 20.312 34.7684 20.1431 35.5442 19.8088V22.1981Z" fill="#4A4B4C"/>
<path d="M43.1747 12.5423C43.1747 8.20702 43.6034 5.40247 44.4642 4.12511C45.3214 2.85127 46.7384 2.21436 48.708 2.21436C50.9645 2.21436 52.4629 2.92869 53.2033 4.35384C53.9472 5.77899 54.3191 8.34778 54.3191 12.0567C54.3191 15.3785 54.1527 17.6834 53.8197 18.9678C53.4867 20.2522 52.9128 21.1988 52.0981 21.804C51.2798 22.4093 50.171 22.7119 48.7717 22.7119C47.3725 22.7119 46.2212 22.4339 45.4525 21.8744C44.6838 21.3149 44.1099 20.4105 43.738 19.1543C43.3625 17.9016 43.1783 15.6952 43.1783 12.5388L43.1747 12.5423ZM51.4923 12.7006C51.4923 8.90376 51.2656 6.55666 50.8157 5.66287C50.3623 4.76907 49.6857 4.32217 48.7824 4.32217C47.7197 4.32217 46.9899 4.85704 46.5967 5.9303C46.2035 7.00356 46.0051 8.80875 46.0051 11.3529V12.4508C46.0051 15.287 46.1645 17.3561 46.4833 18.6581C46.8022 19.9601 47.5673 20.6111 48.7824 20.6111C49.5263 20.6111 50.1639 20.2451 50.6953 19.5132C51.2266 18.7813 51.4923 16.7579 51.4923 13.4396V12.7006Z" fill="#4A4B4C"/>
<path d="M75.9557 22.5326H73.4194L72.3815 9.75903H72.3177L69.629 22.5326H67.9428L65.3604 9.75903H65.2825L64.2198 22.5326H61.6834L63.6672 2.56641H66.0122L68.7895 16.561H68.8532L71.6588 2.56641H74.0358L75.9557 22.5326Z" fill="#4A4B4C"/>
<path d="M83.0716 2.56641H87.5209C90.4115 2.56641 91.8603 4.45253 91.8603 8.22477C91.8603 9.73086 91.6053 10.9132 91.0916 11.7753C90.578 12.6375 89.9403 13.1794 89.1752 13.4046C88.41 13.6298 87.2835 13.7529 85.7957 13.7741V22.5361H83.0681V2.56641H83.0716ZM85.7993 11.6627C86.9576 11.6627 87.783 11.434 88.2825 10.973C88.782 10.5156 89.0299 9.5901 89.0299 8.20366C89.0299 6.81722 88.8138 5.85656 88.3781 5.35688C87.9424 4.8572 87.0816 4.60736 85.7993 4.60736V11.6627Z" fill="#4A4B4C"/>
<path d="M107.734 22.5326H105.152L104.411 18.5527H100.16L99.4094 22.5326H96.827L101.152 2.56641H103.373L107.734 22.5326ZM104.054 16.547L102.282 7.03188H102.219L100.547 16.547H104.054Z" fill="#4A4B4C"/>
<path d="M124.746 22.5326H122.61L117.509 8.83004H117.445V22.5326H115.018V2.56641H117.179L122.295 16.2619L122.358 16.2795V2.56641H124.749V22.5326H124.746Z" fill="#4A4B4C"/>
<path d="M133.442 2.56641H136.169V22.5326H133.442V2.56641Z" fill="#4A4B4C"/>
<path d="M145.124 12.5423C145.124 8.20702 145.552 5.40247 146.413 4.12511C147.271 2.85127 148.687 2.21436 150.657 2.21436C152.914 2.21436 154.412 2.92869 155.152 4.35384C155.896 5.77899 156.268 8.34778 156.268 12.0567C156.268 15.3785 156.102 17.6834 155.769 18.9678C155.436 20.2522 154.862 21.1988 154.047 21.804C153.229 22.4093 152.12 22.7119 150.721 22.7119C149.322 22.7119 148.17 22.4339 147.402 21.8744C146.633 21.3149 146.059 20.4105 145.687 19.1543C145.312 17.9016 145.127 15.6952 145.127 12.5388L145.124 12.5423ZM153.441 12.7006C153.441 8.90376 153.215 6.55666 152.765 5.66287C152.311 4.76907 151.635 4.32217 150.731 4.32217C149.669 4.32217 148.939 4.85704 148.546 5.9303C148.153 7.00356 147.954 8.80875 147.954 11.3529V12.4508C147.954 15.287 148.114 17.3561 148.432 18.6581C148.751 19.9601 149.516 20.6111 150.731 20.6111C151.475 20.6111 152.113 20.2451 152.644 19.5132C153.176 18.7813 153.441 16.7579 153.441 13.4396V12.7006Z" fill="#4A4B4C"/>
<path d="M173.896 22.5326H171.76L166.659 8.83004H166.595V22.5326H164.168V2.56641H166.329L171.444 16.2619L171.508 16.2795V2.56641H173.899V22.5326H173.896Z" fill="#4A4B4C"/>
</svg>
